SplineFontDB: 3.0
FontName: LibraSans-Regular
FullName: Libra Sans
FamilyName: Libra Sans
Weight: Regular
Copyright: Libra Sans, created by Stefan Peev, Context Ltd., is based on Liberation Sans (ver. 2.00.1), which (on its turn) is based on Arimo (designed by Steve Matteson). Libra Sans offers improved pan-European WGL character set and multilingual support for Cyrillic Script. Libra Sans is a free-to-use non-commercial font released under the SIL Open Font License \\(OFL\\).

StartChar: .notdef
Encoding: 65536 -1 0
Width: 750
Flags: MW
HStem: 0 37<137 612 137 649> 651 37<137 612 137 137>
VStem: 100 37<37 651 37 688> 612 37<37 651 651 651>
LayerCount: 2
Fore
SplineSet
100 0 m 1
 100 688 l 1
 649 688 l 1
 649 0 l 1
 100 0 l 1
612 651 m 1
 137 651 l 1
 137 37 l 1
 612 37 l 1
 612 651 l 1
EndSplineSet
EndChar

StartChar: exclam
Encoding: 33 33 2
Width: 278
GlyphClass: 2
Flags: MW
HStem: 0 98<90 185 90 185> 668 20G<91 187 187 187>
VStem: 90 95<0 98> 97 84
LayerCount: 2
Fore
SplineSet
187 688 m 1xd0
 175 194 l 1
 103 194 l 1
 91 688 l 1
 187 688 l 1xd0
185 0 m 1xe0
 90 0 l 1
 90 98 l 1
 185 98 l 1
 185 0 l 1xe0
EndSplineSet
EndChar

StartChar: quotedbl
Encoding: 34 34 3
Width: 355
GlyphClass: 2
Flags: MW
HStem: 472 216<53 122 53 53 232 302 232 232>
VStem: 47 79 227 80
LayerCount: 2
Fore
SplineSet
313 688 m 1
 302 472 l 1
 232 472 l 1
 223 688 l 1
 313 688 l 1
132 688 m 1
 122 472 l 1
 53 472 l 1
 42 688 l 1
 132 688 l 1
EndSplineSet
EndChar

StartChar: numbersign
Encoding: 35 35 4
Width: 556
GlyphClass: 2
Flags: MW
HStem: 0 21G<62 115 62 62 292 345 292 292> 199 53<4 103 4 114 168 333 4 156 399 526> 432 53<29 152 29 163 29 208 217 383 448 551>
VStem: 4 547<199 432 252 432>
LayerCount: 2
Fore
SplineSet
551 432 m 1
 438 432 l 1
 399 252 l 1
 526 252 l 1
 526 199 l 1
 388 199 l 1
 345 0 l 1
 292 0 l 1
 333 199 l 1
 156 199 l 1
 115 0 l 1
 62 0 l 1
 103 199 l 1
 4 199 l 1
 4 252 l 1
 114 252 l 1
 152 432 l 1
 29 432 l 1
 29 485 l 1
 163 485 l 1
 207 684 l 1
 260 684 l 1
 217 485 l 1
 395 485 l 1
 438 684 l 1
 491 684 l 1
 448 485 l 1
 551 485 l 1
 551 432 l 1
383 432 m 1
 208 432 l 1
 168 252 l 1
 345 252 l 1
 383 432 l 1
EndSplineSet
EndChar

StartChar: dollar
Encoding: 36 36 5
Width: 556
GlyphClass: 2
Flags: MW
HStem: 10 72<253 253 253 313> 607 69<253 253>
VStem: 42 84<512 541.5 512 561> 253 60<-69 10 -69 10 82 310 402 606 676 740> 456 84<159.5 202.5>
LayerCount: 2
Fore
SplineSet
253 -69 m 1
 253 10 l 1
 114 16 34 74 11 185 c 1
 94 203 l 1
 110 126 161 87 253 82 c 1
 253 324 l 1
 196 339 156 352 134 363 c 0
 112 374 94 387 80 402 c 0
 53 431 42 463 42 511 c 0
 42 611 118 671 253 676 c 1
 253 740 l 1
 313 740 l 1
 313 676 l 1
 436 671 497 624 525 520 c 1
 440 504 l 1
 427 565 390 599 313 606 c 1
 313 389 l 1
 372 376 413 363 438 351 c 0
 463 340 482 327 496 313 c 0
 525 285 540 246 540 193 c 0
 540 86 458 17 313 10 c 1
 313 -69 l 1
 253 -69 l 1
456 192 m 0
 456 213 452 231 443 244 c 0
 435 258 423 269 407 278 c 0
 391 287 360 298 313 310 c 1
 313 82 l 1
 405 87 456 127 456 192 c 0
126 512 m 1
 132 452 148 430 253 402 c 1
 253 607 l 1
 168 603 126 571 126 512 c 1
EndSplineSet
EndChar

StartChar: percent
Encoding: 37 37 6
Width: 889
GlyphClass: 2
Flags: MW
HStem: -6 54<668.5 726.5 668.5 748.5> 0 21G<182 257 182 182> 256 55<161 219.5 161 242> 378 54<669.5 729> 641 53<161.5 221.5> 668 20G<632 708 708 708>
VStem: 36 71<420 534 420 548.5> 273 72<420.5 533.5> 543 72<156 271.5 156 286> 781 73<156.5 270>
LayerCount: 2
Fore
SplineSet
854 212 m 0xbbc0
 854 72 800 -6 697 -6 c 0
 596 -6 543 68 543 212 c 0
 543 360 591 432 699 432 c 0
 806 432 854 356 854 212 c 0xbbc0
708 688 m 1
 257 0 l 1
 182 0 l 1
 632 688 l 1
 708 688 l 1
192 694 m 0
 296 694 345 620 345 476 c 0
 345 335 294 256 190 256 c 0
 87 256 36 333 36 476 c 0
 36 621 84 694 192 694 c 0
781 212 m 0
 781 328 759 378 699 378 c 0
 640 378 615 331 615 212 c 0
 615 100 639 48 698 48 c 0
 755 48 781 101 781 212 c 0
273 476 m 0
 273 591 251 641 192 641 c 0
 131 641 107 592 107 476 c 0
 107 364 131 311 191 311 c 0x77c0
 248 311 273 365 273 476 c 0
EndSplineSet
EndChar

StartChar: ampersand
Encoding: 38 38 7
Width: 667
GlyphClass: 2
Flags: MW
HStem: -10 64<214.5 281.5 214.5 289.5> -6 69<576 596.5> 633 59<302.5 361>
VStem: 35 82<142.5 214.5 142.5 226.5> 163 75<519.5 568 519.5 586.5> 424 75<553 576.5>
LayerCount: 2
Fore
SplineSet
583 -6 m 0x7c
 525 -6 476 15 437 56 c 1
 388 13 324 -10 255 -10 c 0xbc
 115 -10 35 61 35 181 c 0
 35 272 91 342 203 391 c 1
 182 431 163 493 163 538 c 0
 163 635 225 692 334 692 c 0
 433 692 499 640 499 553 c 0
 499 477 446 421 299 362 c 1
 335 295 383 228 442 161 c 1
 479 215 506 282 525 361 c 1
 596 340 l 1
 575 259 541 182 493 111 c 1
 524 79 558 63 594 63 c 0
 617 63 636 66 651 71 c 1
 651 5 l 1
 633 -2 610 -6 583 -6 c 0x7c
424 553 m 1
 424 600 389 633 333 633 c 0
 272 633 238 598 238 538 c 0
 238 501 249 461 270 419 c 1
 393 470 418 498 424 553 c 1
388 106 m 1
 324 182 272 256 232 329 c 1
 155 296 117 247 117 182 c 0
 117 103 171 54 258 54 c 0
 305 54 353 73 388 106 c 1
EndSplineSet
EndChar

StartChar: quotesingle
Encoding: 39 39 8
Width: 191
GlyphClass: 2
Flags: MW
HStem: 472 216<61 130 61 61>
VStem: 56 79
LayerCount: 2
Fore
SplineSet
141 688 m 1
 130 472 l 1
 61 472 l 1
 51 688 l 1
 141 688 l 1
EndSplineSet
EndChar

StartChar: parenleft
Encoding: 40 40 9
Width: 333
GlyphClass: 2
Flags: MW
HStem: -207 21G<242 327 242 242>
VStem: 62 88<258 260 260 349.5 169 354>
LayerCount: 2
Fore
SplineSet
62 258 m 2
 62 260 l 2
 62 448 119 592 242 725 c 1
 327 725 l 1
 206 589 150 440 150 259 c 0
 150 79 204 -70 327 -207 c 1
 242 -207 l 1
 119 -74 62 71 62 258 c 2
EndSplineSet
EndChar

StartChar: parenright
Encoding: 41 41 10
Width: 333
GlyphClass: 2
Flags: MW
HStem: -207 21G<6 91 6 6>
VStem: 183 88<168.5 258 258 260 164 349.5>
LayerCount: 2
Fore
SplineSet
271 260 m 2
 271 258 l 2
 271 70 214 -75 91 -207 c 1
 6 -207 l 1
 129 -70 183 78 183 259 c 0
 183 440 127 589 6 725 c 1
 91 725 l 1
 214 592 271 447 271 260 c 2
EndSplineSet
EndChar

StartChar: asterisk
Encoding: 42 42 11
Width: 389
GlyphClass: 2
Flags: MW
HStem: 510 20G<16 16 374 374> 668 20G<163 229 229 229>
VStem: 165 60
LayerCount: 2
Fore
SplineSet
229 688 m 1
 223 544 l 1
 352 594 l 1
 374 530 l 1
 236 494 l 1
 326 372 l 1
 268 337 l 1
 195 463 l 1
 119 338 l 1
 61 373 l 1
 153 494 l 1
 16 530 l 1
 38 595 l 1
 168 543 l 1
 163 688 l 1
 229 688 l 1
EndSplineSet
EndChar

StartChar: plus
Encoding: 43 43 12
Width: 584
GlyphClass: 2
Flags: MW
HStem: 297 71<49 256 49 256 328 535>
VStem: 256 72<88 297 88 297 368 577>
LayerCount: 2
Fore
SplineSet
535 297 m 1
 328 297 l 1
 328 88 l 1
 256 88 l 1
 256 297 l 1
 49 297 l 1
 49 368 l 1
 256 368 l 1
 256 577 l 1
 328 577 l 1
 328 368 l 1
 535 368 l 1
 535 297 l 1
EndSplineSet
EndChar

StartChar: comma
Encoding: 44 44 13
Width: 278
GlyphClass: 2
Flags: MW
HStem: 0 107<93 136 93 188>
VStem: 93 95<0 25 25 107 -9.5 107>
LayerCount: 2
Fore
SplineSet
93 107 m 1
 188 107 l 1
 188 25 l 2
 188 -44 175 -85 150 -128 c 1
 90 -128 l 1
 121 -84 136 -41 136 0 c 1
 93 0 l 1
 93 107 l 1
EndSplineSet
EndChar

StartChar: hyphen
Encoding: 45 45 14
Width: 333
GlyphClass: 2
Flags: MW
HStem: 227 78<44 289 44 289>
VStem: 44 245<227 305 227 305>
LayerCount: 2
Fore
SplineSet
289 227 m 1
 44 227 l 1
 44 305 l 1
 289 305 l 1
 289 227 l 1
EndSplineSet
EndChar

StartChar: period
Encoding: 46 46 15
Width: 278
GlyphClass: 2
Flags: MW
HStem: 0 107<91 187 91 187>
VStem: 91 96<0 107>
LayerCount: 2
Fore
SplineSet
187 0 m 1
 91 0 l 1
 91 107 l 1
 187 107 l 1
 187 0 l 1
EndSplineSet
EndChar

StartChar: slash
Encoding: 47 47 16
Width: 278
GlyphClass: 2
Flags: MW
HStem: -10 21G<0 79 0 0>
VStem: 0 278
LayerCount: 2
Fore
SplineSet
79 -10 m 1
 0 -10 l 1
 201 725 l 1
 278 725 l 1
 79 -10 l 1
EndSplineSet
EndChar

StartChar: zero
Encoding: 48 48 17
Width: 556
GlyphClass: 2
Flags: MW
HStem: -10 72<226 329.5 226 356.5> 627 71<226 332.5>
VStem: 39 89<246.5 444.5 246.5 462> 428 89<248.5 443.5>
LayerCount: 2
Fore
SplineSet
517 344 m 0
 517 115 436 -10 277 -10 c 0
 118 -10 39 113 39 344 c 0
 39 580 113 698 280 698 c 0
 441 698 517 579 517 344 c 0
428 344 m 0
 428 543 385 627 280 627 c 0
 172 627 128 545 128 344 c 0
 128 149 174 62 278 62 c 0
 381 62 428 153 428 344 c 0
EndSplineSet
EndChar

StartChar: one
Encoding: 49 49 18
Width: 556
GlyphClass: 2
Flags: MW
HStem: 0 75<76 251 340 507 76 251> 668 20G<259 340 340 340>
VStem: 251 89<75 604 604 604>
LayerCount: 2
Fore
SplineSet
507 0 m 1
 76 0 l 1
 76 75 l 1
 251 75 l 1
 251 604 l 1
 96 493 l 1
 96 576 l 1
 259 688 l 1
 340 688 l 1
 340 75 l 1
 507 75 l 1
 507 0 l 1
EndSplineSet
EndChar

StartChar: two
Encoding: 50 50 19
Width: 556
GlyphClass: 2
Flags: MW
HStem: 0 75<147 506 147 506> 626 72<241.5 318.5>
VStem: 405 90<496.5 544.5>
LayerCount: 2
Fore
SplineSet
506 0 m 1
 50 0 l 1
 50 62 l 1
 150 291 405 339 405 507 c 0
 405 582 358 626 279 626 c 0
 204 626 152 583 144 510 c 1
 54 518 l 1
 67 629 154 698 279 698 c 0
 418 698 495 630 495 510 c 0
 495 483 489 457 476 430 c 0
 464 404 446 378 422 351 c 0
 398 325 352 284 284 229 c 0
 209 168 167 120 147 75 c 1
 506 75 l 1
 506 0 l 1
EndSplineSet
EndChar

StartChar: three
Encoding: 51 51 20
Width: 556
GlyphClass: 2
Flags: MW
HStem: -10 73<234.5 323 234.5 353.5> 312 76<203 251 251 253 203 251> 626 72<235.5 316.5>
VStem: 403 90<472 543.5> 421 91<149.5 230.5>
LayerCount: 2
Fore
SplineSet
512 190 m 0xe8
 512 63 428 -10 279 -10 c 0
 139 -10 54 53 38 177 c 1
 129 185 l 1
 140 104 190 63 279 63 c 0
 367 63 421 106 421 193 c 0xe8
 421 268 361 312 253 312 c 2
 203 312 l 1
 203 388 l 1
 251 388 l 2
 347 388 403 432 403 507 c 0
 403 580 359 626 274 626 c 0
 197 626 146 584 138 512 c 1
 50 519 l 1
 63 632 148 698 275 698 c 0
 412 698 493 631 493 516 c 0xf0
 493 428 442 373 349 353 c 1
 349 351 l 1
 452 340 512 278 512 190 c 0xe8
EndSplineSet
EndChar

StartChar: four
Encoding: 52 52 21
Width: 556
GlyphClass: 2
Flags: MW
HStem: 0 21G<347 430 347 347> 156 69<104 347 104 347 430 527> 589 99<347 347> 668 20G<338 430 430 430>
VStem: 347 83<0 156 0 156 225 589 589 589>
LayerCount: 2
Fore
SplineSet
527 156 m 1xd8
 430 156 l 1
 430 0 l 1
 347 0 l 1
 347 156 l 1
 23 156 l 1
 23 224 l 1
 338 688 l 1
 430 688 l 1
 430 225 l 1
 527 225 l 1
 527 156 l 1xd8
347 225 m 1
 347 589 l 2
 346 587 342 578 333 563 c 0
 325 548 319 537 314 531 c 2xe8
 138 271 l 1
 112 235 l 1
 104 225 l 1
 347 225 l 1
EndSplineSet
EndChar

StartChar: five
Encoding: 53 53 22
Width: 556
GlyphClass: 2
Flags: MW
HStem: -10 72<233.5 319.5 233.5 346.5> 367 72<263.5 319.5> 613 75<163 474 163 163>
VStem: 71 85 423 91<172 256 151.5 265.5>
LayerCount: 2
Fore
SplineSet
514 224 m 0
 514 79 423 -10 270 -10 c 0
 142 -10 61 47 40 154 c 1
 129 164 l 1
 148 96 195 62 272 62 c 0
 367 62 423 122 423 222 c 0
 423 309 365 367 274 367 c 0
 226 367 187 354 146 318 c 1
 60 318 l 1
 83 688 l 1
 474 688 l 1
 474 613 l 1
 163 613 l 1
 150 395 l 1
 188 424 235 439 292 439 c 0
 360 439 414 419 454 379 c 0
 494 340 514 288 514 224 c 0
EndSplineSet
EndChar

StartChar: six
Encoding: 54 54 23
Width: 556
GlyphClass: 2
Flags: MW
HStem: -10 71<266.5 329.5 266.5 359.5> 377 68<267.5 328> 627 71<246 325>
VStem: 51 87<354 442.5 354 447.5> 423 89<171 271>
LayerCount: 2
Fore
SplineSet
512 225 m 0
 512 80 429 -10 290 -10 c 0
 135 -10 51 108 51 328 c 0
 51 567 140 698 297 698 c 0
 401 698 466 651 493 558 c 1
 409 543 l 1
 392 599 354 627 296 627 c 0
 196 627 138 531 138 354 c 1
 170 413 230 445 305 445 c 0
 432 445 512 360 512 225 c 0
423 221 m 0
 423 321 372 377 284 377 c 0
 203 377 147 326 147 242 c 0
 147 189 160 146 186 112 c 0
 213 78 246 61 287 61 c 0
 372 61 423 121 423 221 c 0
EndSplineSet
EndChar

StartChar: seven
Encoding: 55 55 24
Width: 556
GlyphClass: 2
Flags: MW
HStem: 0 21G<178 270 178 178> 613 75<51 421 51 506>
VStem: 178 92<0 44>
LayerCount: 2
Fore
SplineSet
506 688 m 1
 506 617 l 1
 435 510 385 425 356 364 c 0
 299 243 270 127 270 0 c 1
 178 0 l 1
 178 88 197 180 234 277 c 0
 271 374 334 486 421 613 c 1
 51 613 l 1
 51 688 l 1
 506 688 l 1
EndSplineSet
EndChar

StartChar: eight
Encoding: 56 56 25
Width: 556
GlyphClass: 2
Flags: MW
HStem: -10 66<230.5 327 230.5 354> 329 66<236.5 318.5 236.5 322> 633 65<234.5 318.5>
VStem: 43 91<150.5 235.5> 60 89<482.5 554.5 476.5 574.5> 404 92<481.5 555> 421 92<150 237.5 128.5 242.5>
LayerCount: 2
Fore
SplineSet
513 192 m 0xf2
 513 65 430 -10 278 -10 c 0
 131 -10 43 63 43 191 c 0xf2
 43 280 101 347 181 360 c 1
 181 362 l 1
 106 379 60 443 60 522 c 0
 60 627 144 698 276 698 c 0
 412 698 496 630 496 521 c 0xec
 496 442 449 378 374 363 c 1
 374 361 l 1
 461 346 513 283 513 192 c 0xf2
404 516 m 0xec
 404 594 361 633 276 633 c 0
 193 633 149 593 149 516 c 0
 149 437 196 395 277 395 c 0
 360 395 404 431 404 516 c 0xec
421 200 m 0xf2
 421 285 368 329 276 329 c 0
 187 329 134 279 134 198 c 0
 134 103 182 56 279 56 c 0
 375 56 421 100 421 200 c 0xf2
EndSplineSet
EndChar

StartChar: nine
Encoding: 57 57 26
Width: 556
GlyphClass: 2
Flags: MW
HStem: -10 71<231 311.5 231 339.5> 235 69<230 289> 627 71<230.5 315.5>
VStem: 47 89<432 516.5 417 539> 422 87
LayerCount: 2
Fore
SplineSet
509 358 m 0
 509 122 419 -10 260 -10 c 0
 152 -10 89 33 61 134 c 1
 145 147 l 1
 162 90 201 61 261 61 c 0
 362 61 419 159 422 332 c 1
 395 273 327 235 251 235 c 0
 189 235 139 256 102 298 c 0
 65 341 47 397 47 467 c 0
 47 611 132 698 276 698 c 0
 429 698 509 585 509 358 c 0
413 443 m 0
 413 554 358 627 273 627 c 0
 188 627 136 566 136 467 c 0
 136 367 188 304 272 304 c 0
 349 304 413 361 413 443 c 0
EndSplineSet
EndChar

StartChar: colon
Encoding: 58 58 27
Width: 278
GlyphClass: 2
Flags: MW
HStem: 0 101<91 187 91 187> 427 101<91 187 91 187>
VStem: 91 96<0 101 427 528>
LayerCount: 2
Fore
SplineSet
187 427 m 1
 91 427 l 1
 91 528 l 1
 187 528 l 1
 187 427 l 1
187 0 m 1
 91 0 l 1
 91 101 l 1
 187 101 l 1
 187 0 l 1
EndSplineSet
EndChar

StartChar: semicolon
Encoding: 59 59 28
Width: 278
GlyphClass: 2
Flags: MW
HStem: 0 101<93 136 93 188> 427 101<93 188 93 188>
VStem: 93 95<0 25 25 101 -9.5 101 427 528>
LayerCount: 2
Fore
SplineSet
93 101 m 1
 188 101 l 1
 188 25 l 2
 188 -44 175 -85 150 -128 c 1
 90 -128 l 1
 121 -84 136 -41 136 0 c 1
 93 0 l 1
 93 101 l 1
188 427 m 1
 93 427 l 1
 93 528 l 1
 188 528 l 1
 188 427 l 1
EndSplineSet
EndChar

StartChar: less
Encoding: 60 60 29
Width: 584
GlyphClass: 2
Flags: MW
HStem: 75 508<535 535>
VStem: 49 67<329 329 329 379 329 379>
LayerCount: 2
Fore
SplineSet
535 75 m 1
 49 279 l 1
 49 379 l 1
 535 583 l 1
 535 508 l 1
 116 329 l 1
 535 150 l 1
 535 75 l 1
EndSplineSet
EndChar

StartChar: equal
Encoding: 61 61 30
Width: 584
GlyphClass: 2
Flags: MW
HStem: 168 72<49 535 49 535> 418 72<49 535 49 535>
VStem: 49 486<168 240 168 240 418 490 168 490>
LayerCount: 2
Fore
SplineSet
535 418 m 1
 49 418 l 1
 49 490 l 1
 535 490 l 1
 535 418 l 1
535 168 m 1
 49 168 l 1
 49 240 l 1
 535 240 l 1
 535 168 l 1
EndSplineSet
EndChar

StartChar: greater
Encoding: 62 62 31
Width: 584
GlyphClass: 2
Flags: MW
HStem: 75 508<49 49>
VStem: 468 67<329 329>
LayerCount: 2
Fore
SplineSet
535 279 m 1
 49 75 l 1
 49 150 l 1
 468 329 l 1
 49 508 l 1
 49 583 l 1
 535 379 l 1
 535 279 l 1
EndSplineSet
EndChar

StartChar: question
Encoding: 63 63 32
Width: 556
GlyphClass: 2
Flags: MW
HStem: 0 98<214 309 214 309> 620 78<240.5 331.5>
VStem: 214 95<0 98> 430 89<504 537.5>
LayerCount: 2
Fore
SplineSet
519 504 m 1
 513 427 501 393 412 328 c 2
 373 299 l 2
 326 264 304 228 303 184 c 1
 218 184 l 1
 223 366 430 345 430 500 c 0
 430 575 377 620 286 620 c 0
 195 620 140 572 131 492 c 1
 41 498 l 1
 58 627 146 698 285 698 c 0
 430 698 519 625 519 504 c 1
309 0 m 1
 214 0 l 1
 214 98 l 1
 309 98 l 1
 309 0 l 1
EndSplineSet
EndChar

StartChar: at
Encoding: 64 64 33
Width: 1015
GlyphClass: 2
Flags: MW
HStem: -138 62<466 513.5 368 522.5> 51 59<706 710> 51 64<407 459.5 407 461.5> 476 62<515 544.5 509 550.5> 507 20G<678 754 754 754> 663 62<550 647>
VStem: 79 68<240 240> 264 81<200.5 239> 609 71<108.5 170.5> 862 67<369 456>
LayerCount: 2
Fore
SplineSet
929 369 m 0xd7c0
 932 186 834 47 710 51 c 0
 646 51 609 80 609 137 c 2xd7c0
 611 171 l 1
 608 171 l 1
 565 91 498 51 425 51 c 0
 324 51 264 120 264 239 c 0
 261 398 371 542 509 538 c 0
 580 538 629 508 656 449 c 1
 659 449 l 1xb7c0
 678 527 l 1
 754 527 l 1xcfc0
 698 280 l 2
 686 227 680 185 680 156 c 0
 680 125 693 110 719 110 c 0
 798 110 862 223 862 368 c 0
 862 544 743 663 551 663 c 0
 472 663 403 646 342 611 c 0
 281 576 234 526 199 460 c 0
 164 395 147 321 147 240 c 0
 147 49 270 -76 466 -76 c 0
 561 -76 656 -53 760 3 c 1
 787 -51 l 1
 692 -108 579 -138 466 -138 c 0
 230 -141 76 14 79 240 c 1
 74 512 283 731 550 725 c 1
 785 725 929 582 929 369 c 0xd7c0
633 365 m 0
 633 432 586 476 515 476 c 0
 416 480 345 368 345 240 c 0
 345 161 375 115 439 115 c 0
 480 115 517 132 551 166 c 0xb7c0
 585 200 609 243 622 294 c 0
 629 324 633 348 633 365 c 0
EndSplineSet
EndChar

StartChar: A
Encoding: 65 65 34
Width: 667
GlyphClass: 2
Flags: MW
HStem: 0 21G<2 99 2 2 570 665 570 570> 201 73<206 463 206 491 178 463> 618 70<334 334> 668 20G<283 389 389 389>
VStem: 2 663<0 0>
LayerCount: 2
Fore
SplineSet
665 0 m 1xd8
 570 0 l 1
 491 201 l 1
 178 201 l 1
 99 0 l 1
 2 0 l 1
 283 688 l 1
 389 688 l 1
 665 0 l 1xd8
348 577 m 2
 334 618 l 1
 330 604 l 2xe8
 322 577 310 542 294 500 c 2
 206 274 l 1
 463 274 l 1
 375 501 l 2
 366 524 357 549 348 577 c 2
EndSplineSet
Substitution2: "'c2sc' Capitals to Small Capitals in Latin lookup 4 subtable" a.sc
Substitution2: "'aalt' Access All Alternates lookup 0 subtable" a.sc
EndChar

StartChar: B
Encoding: 66 66 35
Width: 667
GlyphClass: 2
Flags: MW
HStem: 0 75<175 356 356 361> 323 73<175 332 332 349 175 332> 613 75<175 332 175 175>
VStem: 82 93<75 323 396 613> 480 94<480.5 546.5> 520 94<159 240 132.5 241.5>
LayerCount: 2
Fore
SplineSet
614 194 m 0xf4
 614 71 520 0 361 0 c 2
 82 0 l 1
 82 688 l 1
 332 688 l 2
 493 688 574 632 574 521 c 0xf8
 574 440 527 382 443 363 c 1
 552 350 614 286 614 194 c 0xf4
480 510 m 0
 480 583 428 613 332 613 c 2
 175 613 l 1
 175 396 l 1
 332 396 l 2
 432 396 480 433 480 510 c 0
520 201 m 0xf4
 520 282 463 323 349 323 c 2
 175 323 l 1
 175 75 l 1
 356 75 l 2
 471 75 520 117 520 201 c 0xf4
EndSplineSet
Substitution2: "'c2sc' Capitals to Small Capitals in Latin lookup 4 subtable" b.sc
Substitution2: "'aalt' Access All Alternates lookup 0 subtable" b.sc
EndChar

StartChar: C
Encoding: 67 67 36
Width: 722
GlyphClass: 2
Flags: MW
HStem: -10 77<353.5 439 353.5 454> 622 76<333.5 435>
VStem: 51 95<305 402>
LayerCount: 2
Fore
SplineSet
387 622 m 0
 234 622 146 518 146 347 c 0
 146 263 168 195 212 144 c 0
 256 93 316 67 391 67 c 0
 487 67 559 115 608 210 c 1
 684 172 l 1
 628 53 522 -10 386 -10 c 0
 176 -10 51 127 51 347 c 0
 51 457 81 543 140 605 c 0
 199 667 281 698 386 698 c 0
 533 698 631 640 678 528 c 1
 589 499 l 1
 557 579 483 622 387 622 c 0
EndSplineSet
Substitution2: "'c2sc' Capitals to Small Capitals in Latin lookup 4 subtable" c.sc
Substitution2: "'aalt' Access All Alternates lookup 0 subtable" c.sc
EndChar

StartChar: D
Encoding: 68 68 37
Width: 722
GlyphClass: 2
Flags: MW
HStem: 0 75<175 329 329 339> 613 75<175 308 175 175>
VStem: 82 93<75 613 75 688 75 688> 581 93<351 436.5>
LayerCount: 2
Fore
SplineSet
674 351 m 0
 676 139 538 -3 339 0 c 2
 82 0 l 1
 82 688 l 1
 310 688 l 2
 542 688 674 567 674 351 c 0
581 351 m 0
 581 522 484 613 308 613 c 2
 175 613 l 1
 175 75 l 1
 329 75 l 2
 481 75 581 180 581 351 c 0
EndSplineSet
Substitution2: "'c2sc' Capitals to Small Capitals in Latin lookup 4 subtable" d.sc
Substitution2: "'aalt' Access All Alternates lookup 0 subtable" d.sc
EndChar

StartChar: E
Encoding: 69 69 38
Width: 667
GlyphClass: 2
Flags: MW
HStem: 0 76<175 624 175 624> 316 75<175 575 175 575> 612 76<175 604 175 175>
VStem: 82 93<76 316 391 612>
LayerCount: 2
Fore
SplineSet
624 0 m 1
 82 0 l 1
 82 688 l 1
 604 688 l 1
 604 612 l 1
 175 612 l 1
 175 391 l 1
 575 391 l 1
 575 316 l 1
 175 316 l 1
 175 76 l 1
 624 76 l 1
 624 0 l 1
EndSplineSet
Substitution2: "'c2sc' Capitals to Small Capitals in Latin lookup 4 subtable" e.sc
Substitution2: "'aalt' Access All Alternates lookup 0 subtable" e.sc
EndChar

StartChar: F
Encoding: 70 70 39
Width: 611
GlyphClass: 2
Flags: MW
HStem: 0 21G<82 175 82 82> 279 77<175 559 175 559> 612 76<175 571 175 175>
VStem: 82 93<0 279 356 612>
LayerCount: 2
Fore
SplineSet
571 612 m 1
 175 612 l 1
 175 356 l 1
 559 356 l 1
 559 279 l 1
 175 279 l 1
 175 0 l 1
 82 0 l 1
 82 688 l 1
 571 688 l 1
 571 612 l 1
EndSplineSet
Substitution2: "'c2sc' Capitals to Small Capitals in Latin lookup 4 subtable" f.sc
Substitution2: "'aalt' Access All Alternates lookup 0 subtable" f.sc
EndChar

StartChar: G
Encoding: 71 71 40
Width: 778
GlyphClass: 2
Flags: MW
HStem: -10 76<318.5 441.5 318.5 459> 266 78<412 617 412 703> 622 76<310.5 441.5>
VStem: 50 95<260.5 434.5 260.5 459> 617 86<142 266 266 266>
LayerCount: 2
Fore
SplineSet
50 347 m 0
 50 571 176 698 393 698 c 0
 545 698 636 649 688 536 c 1
 599 510 l 1
 560 587 493 622 390 622 c 0
 231 622 145 522 145 347 c 0
 145 174 240 66 397 66 c 0
 486 66 569 95 617 142 c 1
 617 266 l 1
 412 266 l 1
 412 344 l 1
 703 344 l 1
 703 107 l 1
 630 32 521 -10 397 -10 c 0
 181 -10 50 127 50 347 c 0
EndSplineSet
Substitution2: "'c2sc' Capitals to Small Capitals in Latin lookup 4 subtable" g.sc
Substitution2: "'aalt' Access All Alternates lookup 0 subtable" g.sc
EndChar

StartChar: H
Encoding: 72 72 41
Width: 722
GlyphClass: 2
Flags: MW
HStem: 0 21G<82 175 82 82 547 641 547 547> 319 78<175 547 175 547> 668 20G<82 175 175 175 547 641 641 641>
VStem: 82 93<0 319 0 397 397 688> 547 94<0 319 319 319 397 688>
LayerCount: 2
Fore
SplineSet
641 0 m 1
 547 0 l 1
 547 319 l 1
 175 319 l 1
 175 0 l 1
 82 0 l 1
 82 688 l 1
 175 688 l 1
 175 397 l 1
 547 397 l 1
 547 688 l 1
 641 688 l 1
 641 0 l 1
EndSplineSet
Substitution2: "'c2sc' Capitals to Small Capitals in Latin lookup 4 subtable" h.sc
Substitution2: "'aalt' Access All Alternates lookup 0 subtable" h.sc
EndChar

StartChar: I
Encoding: 73 73 42
Width: 278
GlyphClass: 2
Flags: MW
HStem: 0 21G<92 186 92 92> 668 20G<92 186 186 186>
VStem: 92 94<0 688>
LayerCount: 2
Fore
SplineSet
186 0 m 1
 92 0 l 1
 92 688 l 1
 186 688 l 1
 186 0 l 1
EndSplineSet
Substitution2: "'c2sc' Capitals to Small Capitals in Latin lookup 4 subtable" i.sc
Substitution2: "'aalt' Access All Alternates lookup 0 subtable" i.sc
EndChar

StartChar: J
Encoding: 74 74 43
Width: 500
GlyphClass: 2
Flags: MW
HStem: -10 76<192.5 257.5 192.5 285.5> 612 76<201 333 201 426>
VStem: 333 93<203 205 205 612 612 612>
LayerCount: 2
Fore
SplineSet
223 -10 m 0
 106 -10 37 50 16 171 c 1
 107 186 l 1
 119 110 161 66 224 66 c 0
 291 66 333 114 333 203 c 2
 333 612 l 1
 201 612 l 1
 201 688 l 1
 426 688 l 1
 426 205 l 2
 426 72 348 -10 223 -10 c 0
EndSplineSet
Substitution2: "'c2sc' Capitals to Small Capitals in Latin lookup 4 subtable" j.sc
Substitution2: "'aalt' Access All Alternates lookup 0 subtable" j.sc
EndChar

StartChar: K
Encoding: 75 75 44
Width: 667
GlyphClass: 2
Flags: MW
HStem: 0 21G<82 175 82 82 540 656 540 540> 668 20G<82 175 175 175 507 617 617 617>
VStem: 82 93<0 264 0 343 343 688>
LayerCount: 2
Fore
SplineSet
656 0 m 1
 540 0 l 1
 265 332 l 1
 175 264 l 1
 175 0 l 1
 82 0 l 1
 82 688 l 1
 175 688 l 1
 175 343 l 1
 507 688 l 1
 617 688 l 1
 324 389 l 1
 656 0 l 1
EndSplineSet
Substitution2: "'c2sc' Capitals to Small Capitals in Latin lookup 4 subtable" k.sc
Substitution2: "'aalt' Access All Alternates lookup 0 subtable" k.sc
EndChar

StartChar: L
Encoding: 76 76 45
Width: 556
GlyphClass: 2
Flags: MW
HStem: 0 76<175 523 175 523> 668 20G<82 175 175 175>
VStem: 82 93<76 688 76 688 76 688>
LayerCount: 2
Fore
SplineSet
523 0 m 1
 82 0 l 1
 82 688 l 1
 175 688 l 1
 175 76 l 1
 523 76 l 1
 523 0 l 1
EndSplineSet
Substitution2: "'c2sc' Capitals to Small Capitals in Latin lookup 4 subtable" l.sc
Substitution2: "'aalt' Access All Alternates lookup 0 subtable" l.sc
EndChar

StartChar: M
Encoding: 77 77 46
Width: 833
GlyphClass: 2
Flags: MW
HStem: 0 21G<82 165 82 82 385 451 385 385 667 751 667 667> 0 102 605 83<162 162>
VStem: 82 83<0 459 0 688> 667 84<0 459 459 484.5>
LayerCount: 2
Fore
SplineSet
751 0 m 1xb8
 667 0 l 1
 667 459 l 2
 667 510 668 558 671 605 c 1
 655 547 641 502 628 469 c 2
 451 0 l 1
 385 0 l 1
 205 469 l 1
 178 552 l 1
 162 605 l 1
 163 551 l 1
 165 459 l 1
 165 0 l 1
 82 0 l 1
 82 688 l 1
 205 688 l 1
 388 211 l 2
 400 172 415 121 418 102 c 1
 421 115 426 134 434 161 c 0x78
 443 188 449 204 452 211 c 2
 631 688 l 1
 751 688 l 1
 751 0 l 1xb8
EndSplineSet
Substitution2: "'c2sc' Capitals to Small Capitals in Latin lookup 4 subtable" m.sc
Substitution2: "'aalt' Access All Alternates lookup 0 subtable" m.sc
EndChar

StartChar: N
Encoding: 78 78 47
Width: 722
GlyphClass: 2
Flags: MW
HStem: 0 21G<82 165 82 82 528 641 528 528> 0 98<563 563 563 641 528 563> 586 102<160 160> 668 20G<82 190 190 190 557 641 641 641>
VStem: 82 83<0 457 0 688> 557 84<237 688>
LayerCount: 2
Fore
SplineSet
641 0 m 1x9c
 528 0 l 1
 160 586 l 1
 163 539 l 1xac
 165 457 l 1
 165 0 l 1
 82 0 l 1
 82 688 l 1
 190 688 l 1
 563 98 l 1x5c
 559 162 557 208 557 237 c 2
 557 688 l 1
 641 688 l 1
 641 0 l 1x9c
EndSplineSet
Substitution2: "'c2sc' Capitals to Small Capitals in Latin lookup 4 subtable" n.sc
Substitution2: "'aalt' Access All Alternates lookup 0 subtable" n.sc
EndChar

StartChar: O
Encoding: 79 79 48
Width: 778
GlyphClass: 2
Flags: MW
HStem: -10 76<349.5 467.5 349.5 493> 622 76<335.5 467>
VStem: 47 95<304 402> 635 95<257.5 433>
LayerCount: 2
Fore
SplineSet
730 347 m 0
 730 129 598 -10 388 -10 c 0
 175 -10 47 128 47 347 c 0
 47 457 77 543 137 605 c 0
 198 667 282 698 389 698 c 0
 600 698 730 567 730 347 c 0
635 347 m 0
 635 519 545 622 389 622 c 0
 232 622 142 522 142 347 c 0
 142 261 164 193 207 142 c 0
 250 91 311 66 388 66 c 0
 547 66 635 168 635 347 c 0
EndSplineSet
Substitution2: "'c2sc' Capitals to Small Capitals in Latin lookup 4 subtable" o.sc
Substitution2: "'aalt' Access All Alternates lookup 0 subtable" o.sc
EndChar

StartChar: P
Encoding: 80 80 49
Width: 667
GlyphClass: 2
Flags: MW
HStem: 0 21G<82 175 82 82> 268 74<175 364 364 377 175 364> 613 75<175 360 175 175>
VStem: 82 93<0 268 0 342 342 613> 521 93<434 524.5>
LayerCount: 2
Fore
SplineSet
614 481 m 0
 614 350 524 268 377 268 c 2
 175 268 l 1
 175 0 l 1
 82 0 l 1
 82 688 l 1
 372 688 l 2
 525 688 614 613 614 481 c 0
521 480 m 0
 521 569 467 613 360 613 c 2
 175 613 l 1
 175 342 l 1
 364 342 l 2
 469 342 521 388 521 480 c 0
EndSplineSet
Substitution2: "'c2sc' Capitals to Small Capitals in Latin lookup 4 subtable" p.sc
Substitution2: "'aalt' Access All Alternates lookup 0 subtable" p.sc
EndChar

StartChar: Q
Encoding: 81 81 50
Width: 778
GlyphClass: 2
Flags: MW
HStem: -189 70<554.5 571> -3 21G -3 69 622 76<335.5 467>
VStem: 47 95<304 402> 635 95<298.5 433>
LayerCount: 2
Fore
SplineSet
730 347 m 0xdc
 730 250 705 171 656 108 c 0
 607 45 540 8 453 -3 c 1
 480 -84 521 -119 588 -119 c 0
 606 -119 625 -117 644 -113 c 1
 644 -178 l 1
 614 -185 585 -189 557 -189 c 0
 458 -189 398 -137 358 -8 c 1
 163 2 47 137 47 347 c 0
 47 457 77 543 137 605 c 0
 198 667 282 698 389 698 c 0
 600 698 730 567 730 347 c 0xdc
635 347 m 0
 635 519 545 622 389 622 c 0
 232 622 142 522 142 347 c 0
 142 261 164 193 207 142 c 0
 250 91 311 66 388 66 c 0xbc
 547 66 635 168 635 347 c 0
EndSplineSet
Substitution2: "'c2sc' Capitals to Small Capitals in Latin lookup 4 subtable" q.sc
Substitution2: "'aalt' Access All Alternates lookup 0 subtable" q.sc
EndChar

StartChar: R
Encoding: 82 82 51
Width: 722
GlyphClass: 2
Flags: MW
HStem: 0 21G<82 175 82 82 568 676 568 568> 286 73<175 390 175 400> 613 75<175 396 175 175>
VStem: 82 93<0 286 0 359 359 613> 555 93<448.5 530>
LayerCount: 2
Fore
SplineSet
676 0 m 1
 568 0 l 1
 390 286 l 1
 175 286 l 1
 175 0 l 1
 82 0 l 1
 82 688 l 1
 406 688 l 2
 561 688 648 615 648 491 c 0
 648 390 585 315 480 296 c 1
 676 0 l 1
555 490 m 0
 555 570 499 613 396 613 c 2
 175 613 l 1
 175 359 l 1
 400 359 l 2
 499 359 555 407 555 490 c 0
EndSplineSet
Substitution2: "'c2sc' Capitals to Small Capitals in Latin lookup 4 subtable" r.sc
Substitution2: "'aalt' Access All Alternates lookup 0 subtable" r.sc
EndChar

StartChar: S
Encoding: 83 83 52
Width: 667
GlyphClass: 2
Flags: MW
HStem: -10 73<282 400.5 282 427> 628 70<282.5 388>
VStem: 78 90<508.5 555 508.5 573.5> 529 92<145 230>
LayerCount: 2
Fore
SplineSet
621 190 m 0
 621 63 517 -10 337 -10 c 0
 169 -10 72 48 45 165 c 1
 136 183 l 1
 156 100 224 63 340 63 c 0
 461 63 529 105 529 185 c 0
 529 275 442 291 318 317 c 0
 210 341 160 365 128 394 c 0
 96 423 78 463 78 514 c 0
 78 633 171 698 339 698 c 0
 495 698 572 655 605 540 c 1
 513 524 l 1
 493 597 438 628 338 628 c 0
 227 628 168 591 168 519 c 0
 168 498 174 480 185 466 c 0
 196 453 213 441 234 431 c 0
 255 422 297 410 360 396 c 0
 487 368 621 339 621 190 c 0
EndSplineSet
Substitution2: "'c2sc' Capitals to Small Capitals in Latin lookup 4 subtable" s.sc
Substitution2: "'aalt' Access All Alternates lookup 0 subtable" s.sc
EndChar

StartChar: T
Encoding: 84 84 53
Width: 611
GlyphClass: 2
Flags: MW
HStem: 0 21G<259 352 259 259> 612 76<22 259 22 588 352 588 352 352>
VStem: 259 93<0 612 0 612>
LayerCount: 2
Fore
SplineSet
588 612 m 1
 352 612 l 1
 352 0 l 1
 259 0 l 1
 259 612 l 1
 22 612 l 1
 22 688 l 1
 588 688 l 1
 588 612 l 1
EndSplineSet
Substitution2: "'c2sc' Capitals to Small Capitals in Latin lookup 4 subtable" t.sc
Substitution2: "'aalt' Access All Alternates lookup 0 subtable" t.sc
EndChar

StartChar: U
Encoding: 85 85 54
Width: 722
GlyphClass: 2
Flags: MW
HStem: -10 76<296 418 296 444.5> 668 20G<77 170 170 170 552 645 645 645>
VStem: 77 93<250 258 258 688> 552 93<264 688>
LayerCount: 2
Fore
SplineSet
357 -10 m 0
 187 -10 77 87 77 250 c 2
 77 688 l 1
 170 688 l 1
 170 258 l 2
 170 133 236 66 356 66 c 0
 480 66 552 135 552 264 c 2
 552 688 l 1
 645 688 l 1
 645 259 l 2
 645 90 532 -10 357 -10 c 0
EndSplineSet
Substitution2: "'c2sc' Capitals to Small Capitals in Latin lookup 4 subtable" u.sc
Substitution2: "'aalt' Access All Alternates lookup 0 subtable" u.sc
EndChar

StartChar: V
Encoding: 86 86 55
Width: 667
GlyphClass: 2
Flags: MW
HStem: 0 21G<285 382 285 285> 0 82<334 334 334 382 285 334> 668 20G<4 103 103 103 564 663 663 663>
VStem: 4 659<688 688>
LayerCount: 2
Fore
SplineSet
663 688 m 1xb0
 382 0 l 1
 285 0 l 1
 4 688 l 1
 103 688 l 1
 293 204 l 1
 334 82 l 1x70
 375 204 l 1
 564 688 l 1
 663 688 l 1xb0
EndSplineSet
Substitution2: "'c2sc' Capitals to Small Capitals in Latin lookup 4 subtable" v.sc
Substitution2: "'aalt' Access All Alternates lookup 0 subtable" v.sc
EndChar

StartChar: W
Encoding: 87 87 56
Width: 944
GlyphClass: 2
Flags: MW
HStem: 0 82<680 680 680 738 626 680> 584 104<473 473> 668 20G<4 102 102 102 428 518 518 518 843 940 940 940>
VStem: 4 936<688 688>
LayerCount: 2
Fore
SplineSet
940 688 m 1xb0
 738 0 l 1
 626 0 l 1
 507 437 l 2
 500 464 488 513 473 584 c 1
 451 489 l 2xd0
 446 464 401 301 318 0 c 1
 207 0 l 1
 4 688 l 1
 102 688 l 1
 225 251 l 2
 240 196 253 140 266 82 c 1
 273 118 282 157 292 199 c 0
 303 242 348 405 428 688 c 1
 518 688 l 1
 637 260 l 2
 656 190 670 131 680 82 c 1
 685 99 l 1
 706 190 l 2
 711 214 757 380 843 688 c 1
 940 688 l 1xb0
EndSplineSet
Substitution2: "'c2sc' Capitals to Small Capitals in Latin lookup 4 subtable" w.sc
Substitution2: "'aalt' Access All Alternates lookup 0 subtable" w.sc
EndChar

StartChar: X
Encoding: 88 88 57
Width: 667
GlyphClass: 2
Flags: MW
HStem: 0 21G<22 125 22 22 543 646 543 543> 668 20G<42 146 146 146 523 626 626 626>
VStem: 22 624<0 0>
LayerCount: 2
Fore
SplineSet
646 0 m 1
 543 0 l 1
 336 301 l 1
 125 0 l 1
 22 0 l 1
 284 357 l 1
 42 688 l 1
 146 688 l 1
 337 418 l 1
 523 688 l 1
 626 688 l 1
 391 361 l 1
 646 0 l 1
EndSplineSet
Substitution2: "'c2sc' Capitals to Small Capitals in Latin lookup 4 subtable" x.sc
Substitution2: "'aalt' Access All Alternates lookup 0 subtable" x.sc
EndChar

StartChar: Y
Encoding: 89 89 58
Width: 667
GlyphClass: 2
Flags: MW
HStem: 0 21G<287 379 287 287> 668 20G<22 125 125 125 542 645 645 645>
VStem: 287 92<0 285 0 285>
LayerCount: 2
Fore
SplineSet
645 688 m 1
 379 285 l 1
 379 0 l 1
 287 0 l 1
 287 285 l 1
 22 688 l 1
 125 688 l 1
 334 360 l 1
 542 688 l 1
 645 688 l 1
EndSplineSet
Substitution2: "'c2sc' Capitals to Small Capitals in Latin lookup 4 subtable" y.sc
Substitution2: "'aalt' Access All Alternates lookup 0 subtable" y.sc
EndChar

StartChar: Z
Encoding: 90 90 59
Width: 611
GlyphClass: 2
Flags: MW
HStem: 0 76<138 580 138 580> 612 76<67 451 67 557>
VStem: 32 548<0 70 70 70>
LayerCount: 2
Fore
SplineSet
580 76 m 1
 580 0 l 1
 32 0 l 1
 32 70 l 1
 451 612 l 1
 67 612 l 1
 67 688 l 1
 557 688 l 1
 557 620 l 1
 138 76 l 1
 580 76 l 1
EndSplineSet
Substitution2: "'c2sc' Capitals to Small Capitals in Latin lookup 4 subtable" z.sc
Substitution2: "'aalt' Access All Alternates lookup 0 subtable" z.sc
EndChar

StartChar: bracketleft
Encoding: 91 91 60
Width: 278
GlyphClass: 2
Flags: MW
HStem: -208 63<156 270 156 270> 662 63<156 270 156 156>
VStem: 71 85<-145 662 -145 725 -145 725>
LayerCount: 2
Fore
SplineSet
270 -208 m 1
 71 -208 l 1
 71 725 l 1
 270 725 l 1
 270 662 l 1
 156 662 l 1
 156 -145 l 1
 270 -145 l 1
 270 -208 l 1
EndSplineSet
EndChar

StartChar: backslash
Encoding: 92 92 61
Width: 278
GlyphClass: 2
Flags: MW
HStem: -10 21G<199 278 199 199>
VStem: 0 278
LayerCount: 2
Fore
SplineSet
278 -10 m 1
 199 -10 l 1
 0 725 l 1
 77 725 l 1
 278 -10 l 1
EndSplineSet
EndChar

StartChar: bracketright
Encoding: 93 93 62
Width: 278
GlyphClass: 2
Flags: MW
HStem: -208 63<8 122 8 207 8 122> 662 63<8 122 8 207>
VStem: 122 85<-145 662 662 662>
LayerCount: 2
Fore
SplineSet
207 -208 m 1
 8 -208 l 1
 8 -145 l 1
 122 -145 l 1
 122 662 l 1
 8 662 l 1
 8 725 l 1
 207 725 l 1
 207 -208 l 1
EndSplineSet
EndChar

StartChar: asciicircum
Encoding: 94 94 63
Width: 469
GlyphClass: 2
Flags: MW
HStem: 638 50<233 233>
VStem: 5 459<329 329>
LayerCount: 2
Fore
SplineSet
464 329 m 1
 384 329 l 1
 233 638 l 1
 84 329 l 1
 5 329 l 1
 185 688 l 1
 284 688 l 1
 464 329 l 1
EndSplineSet
EndChar

StartChar: underscore
Encoding: 95 95 64
Width: 556
GlyphClass: 2
Flags: MW
HStem: -199 64<-15 567 -15 567>
VStem: -15 582<-199 -135 -199 -135>
LayerCount: 2
Fore
SplineSet
567 -199 m 1
 -15 -199 l 1
 -15 -135 l 1
 567 -135 l 1
 567 -199 l 1
EndSplineSet
EndChar

StartChar: grave
Encoding: 96 96 65
Width: 333
GlyphClass: 2
Flags: MW
HStem: 722 14<52 153>
VStem: 52 207<586 736 586 736>
LayerCount: 2
Fore
SplineSet
259 586 m 1
 213 586 l 1
 52 722 l 1
 52 736 l 1
 153 736 l 1
 259 596 l 1
 259 586 l 1
EndSplineSet
EndChar

StartChar: a
Encoding: 97 97 66
Width: 556
GlyphClass: 2
Flags: MW
HStem: -10 66<193.5 222 193.5 244.5> -5 59<455.5 531.5> 260 61 471 67<236.5 314.5>
VStem: 42 91<117.5 146 117.5 201.5> 389 89<101 133 217 261 261 261 322 351 351 360>
LayerCount: 2
Fore
SplineSet
202 -10 m 0xbc
 97 -10 42 50 42 147 c 0
 42 256 110 316 271 320 c 2
 389 322 l 1
 389 351 l 2
 389 438 353 471 276 471 c 0
 197 471 165 446 158 387 c 1
 66 396 l 1
 81 491 151 538 278 538 c 0
 410 538 478 476 478 360 c 2
 478 133 l 2
 478 81 490 54 527 54 c 0
 536 54 545 55 556 58 c 1
 556 3 l 1
 534 -2 511 -5 488 -5 c 0x7c
 423 -5 396 28 392 101 c 1
 389 101 l 1
 344 21 287 -10 202 -10 c 0xbc
222 56 m 0
 319 52 390 136 389 217 c 2
 389 261 l 1
 293 259 l 2
 172 256 138 226 133 146 c 0
 133 89 165 56 222 56 c 0
EndSplineSet
Substitution2: "'smcp' Lowercase to Small Capitals in Latin lookup 3 subtable" a.sc
Substitution2: "'aalt' Access All Alternates lookup 0 subtable" a.sc
EndChar

StartChar: b
Encoding: 98 98 67
Width: 556
GlyphClass: 2
Flags: MW
HStem: -10 65<280 340.5 246.5 384.5> 0 21G<64 149 64 64> 470 68<280 341>
VStem: 67 88<188.5 332 507.5 518 518 725> 422 92<190 338>
LayerCount: 2
Fore
SplineSet
514 267 m 0xb8
 514 82 449 -10 320 -10 c 0
 240 -10 188 18 155 82 c 1
 154 82 l 1
 154 72 153 57 152 36 c 0xb8
 151 15 150 3 149 0 c 2
 64 0 l 1x78
 66 17 67 54 67 109 c 2
 67 725 l 1
 155 725 l 1
 155 518 l 2
 155 497 154 472 153 443 c 1
 155 443 l 1
 188 511 240 538 320 538 c 0
 453 538 514 448 514 267 c 0xb8
422 264 m 0
 422 412 385 470 297 470 c 0
 198 470 155 406 155 258 c 0
 155 119 197 55 296 55 c 0
 385 55 422 116 422 264 c 0
EndSplineSet
Substitution2: "'smcp' Lowercase to Small Capitals in Latin lookup 3 subtable" b.sc
Substitution2: "'aalt' Access All Alternates lookup 0 subtable" b.sc
EndChar

StartChar: c
Encoding: 99 99 68
Width: 500
GlyphClass: 2
Flags: MW
HStem: -10 70<223.5 298.5 223.5 326> 469 69<220.5 301>
VStem: 42 92<196.5 339.5 196.5 353.5>
LayerCount: 2
Fore
SplineSet
134 267 m 0
 134 126 179 60 268 60 c 0
 329 60 374 92 385 163 c 1
 474 157 l 1
 459 56 382 -10 270 -10 c 0
 122 -10 42 85 42 265 c 0
 42 442 124 538 269 538 c 0
 377 538 452 479 471 380 c 1
 380 374 l 1
 372 431 335 469 267 469 c 0
 174 469 134 412 134 267 c 0
EndSplineSet
Substitution2: "'smcp' Lowercase to Small Capitals in Latin lookup 3 subtable" c.sc
Substitution2: "'aalt' Access All Alternates lookup 0 subtable" c.sc
EndChar

StartChar: d
Encoding: 100 100 69
Width: 556
GlyphClass: 2
Flags: MW
HStem: -10 68<215 276> 0 21G<408 492 408 408> 473 65<215.5 276 171.5 308.5>
VStem: 42 92<191 338.5 191 354> 401 88<85 85 198.5 340.5 446 446 505 725>
LayerCount: 2
Fore
SplineSet
403 85 m 1xb8
 401 85 l 1
 368 17 316 -10 236 -10 c 0xb8
 103 -10 42 79 42 262 c 0
 42 446 107 538 236 538 c 0
 316 538 368 510 401 446 c 1
 402 446 l 1
 401 505 l 1
 401 725 l 1
 489 725 l 1
 489 109 l 2
 489 54 490 17 492 0 c 1
 408 0 l 1
 407 5 405 17 404 36 c 0x78
 403 55 403 71 403 85 c 1xb8
134 265 m 0
 134 117 171 58 259 58 c 0
 358 58 401 126 401 271 c 0
 401 410 357 473 260 473 c 0
 171 473 134 412 134 265 c 0
EndSplineSet
Substitution2: "'smcp' Lowercase to Small Capitals in Latin lookup 3 subtable" d.sc
Substitution2: "'aalt' Access All Alternates lookup 0 subtable" d.sc
EndChar

StartChar: e
Encoding: 101 101 70
Width: 556
GlyphClass: 2
Flags: MW
HStem: -10 66<234 320 234 338> 246 67<136 421 136 512 135 421> 473 65<234.5 321>
VStem: 42 93<185.5 246 185.5 354.5> 421 91<246 313>
LayerCount: 2
Fore
SplineSet
512 246 m 1
 135 246 l 1
 135 125 186 56 282 56 c 0
 358 56 404 90 420 137 c 1
 498 115 l 1
 466 32 394 -10 282 -10 c 0
 126 -10 42 84 42 268 c 0
 42 441 127 538 279 538 c 0
 434 538 512 444 512 257 c 2
 512 246 l 1
136 313 m 1
 421 313 l 1
 412 424 365 473 277 473 c 0
 192 473 140 413 136 313 c 1
EndSplineSet
Substitution2: "'smcp' Lowercase to Small Capitals in Latin lookup 3 subtable" e.sc
Substitution2: "'aalt' Access All Alternates lookup 0 subtable" e.sc
EndChar

StartChar: f
Encoding: 102 102 71
Width: 278
GlyphClass: 2
Flags: MW
HStem: 0 21G<88 176 88 88> 464 64<14 88 14 88 176 279> 655 69<218 229.5 173.5 245.5>
VStem: 88 88<0 464 0 464 528 576>
LayerCount: 2
Fore
SplineSet
279 464 m 1
 176 464 l 1
 176 0 l 1
 88 0 l 1
 88 464 l 1
 14 464 l 1
 14 528 l 1
 88 528 l 1
 88 588 l 2
 88 684 130 724 217 724 c 0
 242 724 262 722 279 718 c 1
 279 651 l 1
 264 654 251 655 240 655 c 0
 196 655 176 636 176 576 c 2
 176 528 l 1
 279 528 l 1
 279 464 l 1
EndSplineSet
Substitution2: "'smcp' Lowercase to Small Capitals in Latin lookup 3 subtable" f.sc
Substitution2: "'aalt' Access All Alternates lookup 0 subtable" f.sc
EndChar

StartChar: g
Encoding: 103 103 72
Width: 556
GlyphClass: 2
Flags: MW
HStem: -208 67<237.5 313.5 237.5 341.5> -4 65<213.5 269.5> 471 66<216.5 277.5 173.5 302.5> 508 20G<408 492 492 492>
VStem: 42 91<192 337.5 192 356.5> 401 88<13 15 15 98 98 98 201 329>
LayerCount: 2
Fore
SplineSet
268 -208 m 0xec
 152 -208 84 -161 64 -77 c 1
 152 -64 l 1
 164 -113 205 -141 270 -141 c 0
 357 -141 401 -90 401 13 c 2
 401 98 l 1
 400 98 l 1
 367 30 309 -4 230 -4 c 0
 101 -4 42 79 42 263 c 0
 42 450 107 537 240 537 c 0
 315 537 372 501 401 438 c 1
 402 438 l 1
 402 448 403 465 404 489 c 0xec
 405 513 407 526 408 528 c 2
 492 528 l 1xdc
 490 511 489 474 489 419 c 2
 489 15 l 2
 489 -134 415 -208 268 -208 c 0xec
401 264 m 0
 401 394 343 471 262 471 c 0
 171 471 133 411 133 264 c 0
 133 120 167 61 260 61 c 0
 345 61 401 138 401 264 c 0
EndSplineSet
Substitution2: "'smcp' Lowercase to Small Capitals in Latin lookup 3 subtable" g.sc
Substitution2: "'aalt' Access All Alternates lookup 0 subtable" g.sc
EndChar

StartChar: h
Encoding: 104 104 73
Width: 556
GlyphClass: 2
Flags: MW
HStem: 0 21G<69 157 69 69 403 491 403 403> 470 68<283.5 294>
VStem: 69 88<0 312 526 536 536 725> 403 88<0 335 335 335>
LayerCount: 2
Fore
SplineSet
153 438 m 2
 155 438 l 1
 192 507 243 538 324 538 c 0
 439 538 491 487 491 352 c 2
 491 0 l 1
 403 0 l 1
 403 335 l 2
 402 445 376 465 294 470 c 1
 211 470 157 408 157 312 c 2
 157 0 l 1
 69 0 l 1
 69 725 l 1
 157 725 l 1
 157 536 l 2
 157 516 156 495 155 474 c 0
 154 453 154 441 153 438 c 2
EndSplineSet
Substitution2: "'smcp' Lowercase to Small Capitals in Latin lookup 3 subtable" h.sc
Substitution2: "'aalt' Access All Alternates lookup 0 subtable" h.sc
EndChar

StartChar: i
Encoding: 105 105 74
Width: 222
GlyphClass: 2
Flags: MW
HStem: 0 21G<67 155 67 67> 508 20G<67 155 155 155> 641 84<67 155 67 155>
VStem: 67 88<0 528 641 725>
LayerCount: 2
Fore
SplineSet
155 641 m 1
 67 641 l 1
 67 725 l 1
 155 725 l 1
 155 641 l 1
155 0 m 1
 67 0 l 1
 67 528 l 1
 155 528 l 1
 155 0 l 1
EndSplineSet
Substitution2: "'smcp' Lowercase to Small Capitals in Latin lookup 3 subtable" i.sc
Substitution2: "'aalt' Access All Alternates lookup 0 subtable" i.sc
EndChar

StartChar: j
Encoding: 106 106 75
Width: 222
GlyphClass: 2
Flags: MW
HStem: -208 70<25.5 28.5 6 76.5> 508 20G<67 155 155 155> 641 84<67 155 67 155>
VStem: 67 88<-52 528 641 725>
LayerCount: 2
Fore
SplineSet
155 641 m 1
 67 641 l 1
 67 725 l 1
 155 725 l 1
 155 641 l 1
155 528 m 1
 155 -65 l 2
 155 -165 115 -208 38 -208 c 0
 13 -208 -8 -206 -24 -203 c 1
 -24 -135 l 1
 6 -138 l 1
 51 -138 67 -120 67 -52 c 2
 67 528 l 1
 155 528 l 1
EndSplineSet
Substitution2: "'smcp' Lowercase to Small Capitals in Latin lookup 3 subtable" j.sc
Substitution2: "'aalt' Access All Alternates lookup 0 subtable" j.sc
EndChar

StartChar: k
Encoding: 107 107 76
Width: 500
GlyphClass: 2
Flags: MW
HStem: 0 21G<67 155 67 67 398 501 398 398> 508 20G<387 490 490 490>
VStem: 67 88<0 188 0 272 272 725>
LayerCount: 2
Fore
SplineSet
501 0 m 1
 398 0 l 1
 220 241 l 1
 155 188 l 1
 155 0 l 1
 67 0 l 1
 67 725 l 1
 155 725 l 1
 155 272 l 1
 387 528 l 1
 490 528 l 1
 276 301 l 1
 501 0 l 1
EndSplineSet
Substitution2: "'smcp' Lowercase to Small Capitals in Latin lookup 3 subtable" k.sc
Substitution2: "'aalt' Access All Alternates lookup 0 subtable" k.sc
EndChar

StartChar: l
Encoding: 108 108 77
Width: 222
GlyphClass: 2
Flags: MW
HStem: 0 21G<67 155 67 67>
VStem: 67 88<0 725>
LayerCount: 2
Fore
SplineSet
155 0 m 1
 67 0 l 1
 67 725 l 1
 155 725 l 1
 155 0 l 1
EndSplineSet
Substitution2: "'smcp' Lowercase to Small Capitals in Latin lookup 3 subtable" l.sc
Substitution2: "'aalt' Access All Alternates lookup 0 subtable" l.sc
EndChar

StartChar: m
Encoding: 109 109 78
Width: 833
GlyphClass: 2
Flags: MW
HStem: 0 21G<69 157 69 69 375 462 375 375 680 680 680 767> 470 68<273.5 314.5 577.5 619.5> 508 20G<66 149 149 149>
VStem: 69 88<0 306 0 416> 375 87<0 306> 680 87<0 335 335 352 0 386.5>
LayerCount: 2
Fore
SplineSet
462 0 m 1xdc
 375 0 l 1
 375 335 l 2
 375 438 351 470 278 470 c 0xdc
 203 470 157 410 157 306 c 2
 157 0 l 1
 69 0 l 1
 69 416 l 2
 69 477 68 515 66 528 c 1
 149 528 l 2
 150 527 150 522 150 515 c 0xbc
 151 500 152 490 153 438 c 1
 155 438 l 1
 192 513 238 538 309 538 c 0
 389 538 434 507 453 438 c 1
 454 438 l 1
 490 509 541 538 614 538 c 0
 721 538 767 484 767 352 c 2
 767 0 l 1
 680 0 l 1
 680 335 l 2
 680 438 656 470 583 470 c 0
 507 470 462 411 462 306 c 2
 462 0 l 1xdc
EndSplineSet
Substitution2: "'smcp' Lowercase to Small Capitals in Latin lookup 3 subtable" m.sc
Substitution2: "'aalt' Access All Alternates lookup 0 subtable" m.sc
EndChar

StartChar: n
Encoding: 110 110 79
Width: 556
GlyphClass: 2
Flags: MW
HStem: 0 21G<69 157 69 69 403 491 403 403> 470 68<284.5 335.5> 508 20G<66 149 149 149>
VStem: 69 88<0 306 0 416> 403 88<0 335 335 352>
LayerCount: 2
Fore
SplineSet
491 0 m 1xd8
 403 0 l 1
 403 335 l 2
 403 438 377 470 294 470 c 0xd8
 209 470 157 409 157 306 c 2
 157 0 l 1
 69 0 l 1
 69 416 l 2
 69 477 68 515 66 528 c 1
 149 528 l 2
 150 527 150 522 150 515 c 0xb8
 151 500 152 490 153 438 c 1
 155 438 l 1
 195 511 245 538 324 538 c 0
 440 538 491 485 491 352 c 2
 491 0 l 1xd8
EndSplineSet
Substitution2: "'smcp' Lowercase to Small Capitals in Latin lookup 3 subtable" n.sc
Substitution2: "'aalt' Access All Alternates lookup 0 subtable" n.sc
EndChar

StartChar: o
Encoding: 111 111 80
Width: 556
GlyphClass: 2
Flags: MW
HStem: -10 65<226.5 327.5 226.5 353.5> 473 65<228.5 331.5>
VStem: 42 92<195 336.5 195 356> 422 92<193 337.5>
LayerCount: 2
Fore
SplineSet
514 265 m 0
 514 80 431 -10 276 -10 c 0
 121 -10 42 86 42 265 c 0
 42 447 121 538 279 538 c 0
 440 538 514 452 514 265 c 0
422 265 m 0
 422 410 383 473 280 473 c 0
 177 473 134 408 134 265 c 0
 134 125 178 55 275 55 c 0
 380 55 422 121 422 265 c 0
EndSplineSet
Substitution2: "'smcp' Lowercase to Small Capitals in Latin lookup 3 subtable" o.sc
Substitution2: "'aalt' Access All Alternates lookup 0 subtable" o.sc
EndChar

StartChar: p
Encoding: 112 112 81
Width: 556
GlyphClass: 2
Flags: MW
HStem: -208 21G<67 155 67 67> -10 65<279.5 340 246.5 384.5> 470 68<278 340.5> 508 20G<64 149 149 149>
VStem: 67 88<-208 -1 188.5 332.5> 422 92<189 338.5>
LayerCount: 2
Fore
SplineSet
514 267 m 0xec
 514 82 449 -10 320 -10 c 0
 239 -10 184 21 156 82 c 1
 153 82 l 2
 154 79 155 52 155 -1 c 2
 155 -208 l 1
 67 -208 l 1
 67 420 l 2
 67 475 66 511 64 528 c 1
 149 528 l 2
 150 527 150 522 151 514 c 0
 152 506 152 494 153 477 c 0xdc
 154 461 154 450 154 443 c 1
 156 443 l 1
 188 508 236 538 320 538 c 0
 449 538 514 454 514 267 c 0xec
422 265 m 0
 422 412 384 470 297 470 c 0
 197 470 155 407 155 258 c 0
 155 119 197 55 296 55 c 0
 384 55 422 113 422 265 c 0
EndSplineSet
Substitution2: "'smcp' Lowercase to Small Capitals in Latin lookup 3 subtable" p.sc
Substitution2: "'aalt' Access All Alternates lookup 0 subtable" p.sc
EndChar

StartChar: q
Encoding: 113 113 82
Width: 556
GlyphClass: 2
Flags: MW
HStem: -208 21G<401 489 401 401> -10 68<215 277.5> 473 65<215.5 276 171.5 308.5> 515 20G<408 492 492 492>
VStem: 42 92<191 337.5 191 354> 401 88<-208 7 7 7 200.5 339.5 -208 446>
LayerCount: 2
Fore
SplineSet
236 -10 m 0xec
 103 -10 42 81 42 262 c 0
 42 446 107 538 236 538 c 0
 316 538 366 513 401 446 c 1
 402 446 l 1xec
 402 456 403 473 404 497 c 0
 405 521 407 534 408 535 c 2
 492 535 l 1xdc
 490 516 489 468 489 391 c 2
 489 -208 l 1
 401 -208 l 1
 401 7 l 1
 403 87 l 1
 402 87 l 1
 366 18 319 -10 236 -10 c 0xec
401 271 m 0
 401 408 357 473 260 473 c 0
 171 473 134 410 134 265 c 0
 134 117 171 58 259 58 c 0
 358 58 401 130 401 271 c 0
EndSplineSet
Substitution2: "'smcp' Lowercase to Small Capitals in Latin lookup 3 subtable" q.sc
Substitution2: "'aalt' Access All Alternates lookup 0 subtable" q.sc
EndChar

StartChar: r
Encoding: 114 114 83
Width: 333
GlyphClass: 2
Flags: MW
HStem: 0 21G<69 157 69 69> 458 70 458 80<247.5 279.5> 513 20G<316 316>
VStem: 69 88<0 275>
LayerCount: 2
Fore
SplineSet
157 0 m 1xa8
 69 0 l 1
 69 405 l 2
 69 442 68 483 66 528 c 1
 149 528 l 1xc8
 152 468 153 432 153 420 c 1
 155 420 l 1
 183 511 214 538 281 538 c 0xa8
 292 538 304 536 316 533 c 1x98
 316 453 l 1
 305 456 289 458 270 458 c 0
 197 458 157 392 157 275 c 2
 157 0 l 1xa8
EndSplineSet
Substitution2: "'smcp' Lowercase to Small Capitals in Latin lookup 3 subtable" r.sc
Substitution2: "'aalt' Access All Alternates lookup 0 subtable" r.sc
EndChar

StartChar: s
Encoding: 115 115 84
Width: 500
GlyphClass: 2
Flags: MW
HStem: -10 67<208 294 208 317.5> 470 67<210.5 286>
VStem: 49 85<389.5 421.5 389.5 437> 378 86<111.5 159.5>
LayerCount: 2
Fore
SplineSet
464 146 m 0
 464 46 385 -10 250 -10 c 0
 118 -10 49 32 28 124 c 1
 105 139 l 1
 121 83 166 57 250 57 c 0
 338 57 378 84 378 139 c 0
 378 180 351 205 288 222 c 2
 225 239 l 2
 174 252 138 264 117 277 c 0
 74 302 49 337 49 389 c 0
 49 485 119 537 250 537 c 0
 367 537 436 498 455 407 c 1
 375 397 l 1
 366 445 322 470 250 470 c 0
 171 470 134 446 134 397 c 0
 134 382 138 370 146 360 c 0
 154 351 166 342 181 335 c 0
 196 328 228 319 277 307 c 0
 324 296 357 285 378 275 c 0
 399 265 415 254 426 242 c 0
 450 218 464 186 464 146 c 0
EndSplineSet
Substitution2: "'smcp' Lowercase to Small Capitals in Latin lookup 3 subtable" s.sc
Substitution2: "'aalt' Access All Alternates lookup 0 subtable" s.sc
EndChar

StartChar: t
Encoding: 116 116 85
Width: 278
GlyphClass: 2
Flags: MW
HStem: -8 70<146.5 225.5> 464 64<15 76 15 80 164 262>
VStem: 76 88<112 131 131 464>
LayerCount: 2
Fore
SplineSet
271 69 m 1
 271 4 l 1
 242 -4 212 -8 182 -8 c 0
 111 -8 76 32 76 112 c 2
 76 464 l 1
 15 464 l 1
 15 528 l 1
 80 528 l 1
 105 646 l 1
 164 646 l 1
 164 528 l 1
 262 528 l 1
 262 464 l 1
 164 464 l 1
 164 131 l 2
 164 80 179 62 220 62 c 0
 231 62 248 64 271 69 c 1
EndSplineSet
Substitution2: "'smcp' Lowercase to Small Capitals in Latin lookup 3 subtable" t.sc
Substitution2: "'aalt' Access All Alternates lookup 0 subtable" t.sc
EndChar

StartChar: u
Encoding: 117 117 86
Width: 556
GlyphClass: 2
Flags: MW
HStem: -10 68<220.5 272> 0 21G<407 490 407 407> 508 20G<65 153 153 153 399 487 487 487>
VStem: 65 88<176 193 193 528> 399 88<222 528>
LayerCount: 2
Fore
SplineSet
65 528 m 1xb8
 153 528 l 1
 153 193 l 2
 153 90 179 58 262 58 c 0xb8
 347 58 399 119 399 222 c 2
 399 528 l 1
 487 528 l 1
 487 113 l 2
 487 52 488 14 490 0 c 1
 407 0 l 2
 406 1 406 6 405 13 c 0x78
 405 28 404 39 403 90 c 1
 401 90 l 1
 361 18 312 -10 232 -10 c 0
 117 -10 65 44 65 176 c 2
 65 528 l 1xb8
EndSplineSet
Substitution2: "'smcp' Lowercase to Small Capitals in Latin lookup 3 subtable" u.sc
Substitution2: "'aalt' Access All Alternates lookup 0 subtable" u.sc
EndChar

StartChar: v
Encoding: 118 118 87
Width: 500
GlyphClass: 2
Flags: MW
HStem: 0 21G<195 299 195 195> 0 69<247 247 247 299 195 247> 508 20G<3 97 97 97 403 497 497 497>
VStem: 3 494<528 528>
LayerCount: 2
Fore
SplineSet
497 528 m 1xb0
 299 0 l 1
 195 0 l 1
 3 528 l 1
 97 528 l 1
 213 185 l 2
 218 172 229 133 247 69 c 1
 264 126 l 1x70
 283 184 l 1
 403 528 l 1
 497 528 l 1xb0
EndSplineSet
Substitution2: "'smcp' Lowercase to Small Capitals in Latin lookup 3 subtable" v.sc
Substitution2: "'aalt' Access All Alternates lookup 0 subtable" v.sc
EndChar

StartChar: w
Encoding: 119 119 88
Width: 722
GlyphClass: 2
Flags: MW
HStem: 0 73<196 196 196 248 146 196> 456 72<361 361> 508 20G<-1 85 85 85 314 409 409 409 639 725 725 725>
VStem: -1 726<528 528>
LayerCount: 2
Fore
SplineSet
725 528 m 1xb0
 573 0 l 1
 471 0 l 1
 379 374 l 1
 361 456 l 1
 358 441 354 420 347 393 c 0xd0
 341 366 308 235 248 0 c 1
 146 0 l 1
 -1 528 l 1
 85 528 l 1
 175 169 l 1
 196 73 l 1
 204 109 l 1
 314 528 l 1
 409 528 l 1
 501 166 l 1
 523 73 l 1
 539 141 l 1
 639 528 l 1
 725 528 l 1xb0
EndSplineSet
Substitution2: "'smcp' Lowercase to Small Capitals in Latin lookup 3 subtable" w.sc
Substitution2: "'aalt' Access All Alternates lookup 0 subtable" w.sc
EndChar

StartChar: x
Encoding: 120 120 89
Width: 500
GlyphClass: 2
Flags: MW
HStem: 0 21G<11 106 11 11 391 489 391 391> 508 20G<20 117 117 117 380 478 478 478>
VStem: 11 478<0 0>
LayerCount: 2
Fore
SplineSet
489 0 m 1
 391 0 l 1
 249 217 l 1
 106 0 l 1
 11 0 l 1
 199 271 l 1
 20 528 l 1
 117 528 l 1
 249 323 l 1
 380 528 l 1
 478 528 l 1
 299 272 l 1
 489 0 l 1
EndSplineSet
Substitution2: "'smcp' Lowercase to Small Capitals in Latin lookup 3 subtable" x.sc
Substitution2: "'aalt' Access All Alternates lookup 0 subtable" x.sc
EndChar

StartChar: y
Encoding: 121 121 90
Width: 500
GlyphClass: 2
Flags: MW
HStem: -208 69<81 101.5 66.5 122.5> 508 20G<2 96 96 96 405 498 498 498>
VStem: 2 496<528 528>
LayerCount: 2
Fore
SplineSet
93 -208 m 0
 69 -208 49 -206 33 -202 c 1
 33 -136 l 1
 45 -138 59 -139 74 -139 c 0
 129 -139 172 -99 204 -19 c 2
 212 2 l 1
 2 528 l 1
 96 528 l 1
 208 236 l 1
 213 219 l 2
 216 213 223 192 235 156 c 0
 248 120 254 100 255 96 c 2
 290 192 l 1
 405 528 l 1
 498 528 l 1
 295 0 l 2
 273 -56 253 -98 234 -125 c 0
 197 -181 152 -208 93 -208 c 0
EndSplineSet
Substitution2: "'smcp' Lowercase to Small Capitals in Latin lookup 3 subtable" y.sc
Substitution2: "'aalt' Access All Alternates lookup 0 subtable" y.sc
EndChar

StartChar: z
Encoding: 122 122 91
Width: 500
GlyphClass: 2
Flags: MW
HStem: 0 68<144 450 144 450> 460 68<57 336 57 440>
VStem: 41 409<0 67 67 67>
LayerCount: 2
Fore
SplineSet
450 0 m 1
 41 0 l 1
 41 67 l 1
 336 460 l 1
 57 460 l 1
 57 528 l 1
 440 528 l 1
 440 461 l 1
 144 68 l 1
 450 68 l 1
 450 0 l 1
EndSplineSet
Substitution2: "'smcp' Lowercase to Small Capitals in Latin lookup 3 subtable" z.sc
Substitution2: "'aalt' Access All Alternates lookup 0 subtable" z.sc
EndChar

StartChar: braceleft
Encoding: 123 123 92
Width: 334
GlyphClass: 2
Flags: MW
HStem: -208 63<208.5 316 286 316 286 316> 662 63<256 286 286 316>
VStem: 122 82<-64 -40 -40 112 112 135 405 557>
LayerCount: 2
Fore
SplineSet
316 -208 m 1
 250 -208 l 2
 167 -208 122 -155 122 -64 c 2
 122 112 l 2
 122 188 88 224 17 228 c 1
 17 290 l 1
 88 293 122 329 122 405 c 2
 122 582 l 2
 122 673 166 725 250 725 c 2
 316 725 l 1
 316 662 l 1
 286 662 l 2
 226 662 204 626 204 557 c 2
 204 383 l 2
 204 322 166 273 109 260 c 1
 109 259 l 1
 166 246 204 198 204 135 c 2
 204 -40 l 2
 204 -108 226 -145 286 -145 c 2
 316 -145 l 1
 316 -208 l 1
EndSplineSet
EndChar

StartChar: bar
Encoding: 124 124 93
Width: 260
GlyphClass: 2
Flags: MW
HStem: -212 937<89 170 89 170>
VStem: 89 81<-212 725>
LayerCount: 2
Fore
SplineSet
170 -212 m 1
 89 -212 l 1
 89 725 l 1
 170 725 l 1
 170 -212 l 1
EndSplineSet
EndChar

StartChar: braceright
Encoding: 125 125 94
Width: 334
GlyphClass: 2
Flags: MW
HStem: -208 63<17 46 46 75.5 17 81 17 46> 662 63<17 46 17 81>
VStem: 129 81<-40 112 383 405 405 557 557 582>
LayerCount: 2
Fore
SplineSet
17 -145 m 1
 46 -145 l 2
 105 -145 129 -108 129 -40 c 2
 129 135 l 2
 129 199 166 246 223 259 c 1
 223 260 l 1
 167 273 129 319 129 383 c 2
 129 557 l 2
 129 626 105 662 46 662 c 2
 17 662 l 1
 17 725 l 1
 81 725 l 2
 166 725 210 673 210 582 c 2
 210 405 l 2
 210 329 244 293 316 290 c 1
 316 228 l 1
 243 225 210 188 210 112 c 2
 210 -64 l 2
 210 -155 164 -208 81 -208 c 2
 17 -208 l 1
 17 -145 l 1
EndSplineSet
EndChar

StartChar: asciitilde
Encoding: 126 126 95
Width: 584
GlyphClass: 2
Flags: MW
HStem: 270 67<405.5 440> 326 68<148.5 180.5>
VStem: 45 494<309 353 353 353>
LayerCount: 2
Fore
SplineSet
412 270 m 0xa0
 367 270 320 288 272 304 c 0
 230 319 195 326 166 326 c 0
 122 326 88 314 45 283 c 1
 45 353 l 1
 81 380 124 394 173 394 c 0
 190 394 209 392 230 387 c 0x60
 251 383 282 374 324 359 c 0
 344 351 391 337 420 337 c 0
 462 337 502 352 539 382 c 1
 539 309 l 1
 502 282 468 270 412 270 c 0xa0
EndSplineSet
EndChar

StartChar: exclamdown
Encoding: 161 161 97
Width: 333
GlyphClass: 2
Flags: MW
HStem: 430 98<120 215 120 215>
VStem: 120 95<430 528 430 528> 124 84
LayerCount: 2
Fore
SplineSet
118 -160 m 1xa0
 130 334 l 1
 202 334 l 1
 214 -160 l 1
 118 -160 l 1xa0
120 528 m 1xc0
 215 528 l 1
 215 430 l 1
 120 430 l 1
 120 528 l 1xc0
EndSplineSet
EndChar

StartChar: cent
Encoding: 162 162 98
Width: 556
GlyphClass: 2
Flags: MW
HStem: -15 150<263 322.5 246.5 323 263 263> 545 67<263 263 263 323 263 324> 545 143<263 323 263 324>
VStem: 66 92<272 415.5 272 422.5> 263 60<-15 67 -15 67 612 688>
LayerCount: 2
Fore
SplineSet
291 135 m 0xb8
 354 135 399 168 408 239 c 1
 497 233 l 1
 485 140 419 76 323 67 c 1
 323 -15 l 1
 263 -15 l 1
 263 67 l 1
 134 79 66 173 66 340 c 0
 66 505 134 601 263 612 c 1
 263 688 l 1
 323 688 l 1xb8
 323 612 l 1xd8
 416 603 477 547 494 456 c 1
 404 449 l 1
 395 508 358 545 290 545 c 0
 197 545 158 489 158 342 c 0
 158 202 202 135 291 135 c 0xb8
EndSplineSet
EndChar

StartChar: sterling
Encoding: 163 163 99
Width: 556
GlyphClass: 2
Flags: MW
HStem: 0 75<125 360 360 375 34 34> 305 63<28 119 28 119 207 406> 626 72<280.5 340.5>
VStem: 119 88<235 244 244 305 205.5 305 368 505 505 509> 459 80<152 161>
LayerCount: 2
Fore
SplineSet
459 161 m 1
 539 152 l 1
 528 55 468 0 375 0 c 2
 34 0 l 1
 34 75 l 1
 91 106 119 156 119 235 c 2
 119 305 l 1
 28 305 l 1
 28 368 l 1
 119 368 l 1
 119 505 l 2
 119 632 188 698 315 698 c 0
 411 698 480 657 501 586 c 1
 417 558 l 1
 402 599 364 626 317 626 c 0
 244 626 207 590 207 509 c 2
 207 368 l 1
 406 368 l 1
 406 305 l 1
 207 305 l 1
 207 244 l 2
 207 167 174 102 125 75 c 1
 360 75 l 2
 417 75 450 104 459 161 c 1
EndSplineSet
EndChar

StartChar: currency
Encoding: 164 164 100
Width: 556
GlyphClass: 2
Flags: MW
HStem: 122 76<260.5 297.5 260.5 301.5> 472 75<260.5 297.5>
VStem: 67 75<316 354.5 316 356.5> 416 76<315.5 354>
LayerCount: 2
Fore
SplineSet
67 334 m 0
 67 379 80 420 105 457 c 1
 56 506 l 1
 107 556 l 1
 155 507 l 1
 192 534 234 547 279 547 c 0
 324 547 365 534 402 508 c 1
 449 555 l 1
 500 504 l 1
 453 457 l 1
 479 419 492 378 492 334 c 0
 492 289 479 248 452 211 c 1
 501 162 l 1
 451 111 l 1
 402 160 l 1
 365 135 324 122 279 122 c 0
 232 122 191 135 156 161 c 1
 105 110 l 1
 55 161 l 1
 105 211 l 1
 80 248 67 289 67 334 c 0
142 335 m 0
 142 297 155 265 182 238 c 0
 209 211 242 198 279 198 c 0
 316 198 348 211 375 237 c 0
 402 264 416 296 416 335 c 0
 416 373 402 405 375 432 c 0
 348 459 316 472 279 472 c 0
 242 472 210 459 183 432 c 0
 156 406 142 374 142 335 c 0
EndSplineSet
EndChar

StartChar: yen
Encoding: 165 165 101
Width: 556
GlyphClass: 2
Flags: MW
HStem: 0 210<48 321 48 234> 148 62<48 234 48 234 321 508> 285 61<48 205 48 235 48 205 352 508> 668 20G<-1 96 96 96 460 558 558 558>
VStem: 234 87<0 148 0 148 0 210>
LayerCount: 2
Fore
SplineSet
558 688 m 1x78
 352 346 l 1
 508 346 l 1
 508 285 l 1
 321 285 l 1
 321 210 l 1
 508 210 l 1
 508 148 l 1
 321 148 l 1x78
 321 0 l 1
 234 0 l 1xb8
 234 148 l 1
 48 148 l 1
 48 210 l 1
 234 210 l 1
 235 285 l 1
 48 285 l 1
 48 346 l 1
 205 346 l 1
 -1 688 l 1
 96 688 l 1
 277 372 l 1
 460 688 l 1
 558 688 l 1x78
EndSplineSet
EndChar

StartChar: brokenbar
Encoding: 166 166 102
Width: 260
GlyphClass: 2
Flags: MW
HStem: -212 937<89 170 89 170>
VStem: 89 81<-212 168 345 725>
LayerCount: 2
Fore
SplineSet
170 345 m 1
 89 345 l 1
 89 725 l 1
 170 725 l 1
 170 345 l 1
170 -212 m 1
 89 -212 l 1
 89 168 l 1
 170 168 l 1
 170 -212 l 1
EndSplineSet
EndChar

StartChar: section
Encoding: 167 167 103
Width: 556
GlyphClass: 2
Flags: MW
HStem: -84 64<234.5 326 234.5 350> 661 64<246.5 323.5>
VStem: 75 78<326 356.5> 85 78<580 611.5 580 626.5> 419 78<36.5 72.5> 423 77<303 347.5>
LayerCount: 2
Fore
SplineSet
287 725 m 0xd8
 400 725 472 681 489 598 c 1
 410 588 l 1
 401 637 360 661 287 661 c 0
 206 661 163 635 163 588 c 0
 163 572 168 558 177 547 c 0
 197 524 226 510 310 490 c 0
 358 479 395 466 420 452 c 0
 471 425 500 388 500 335 c 0xd4
 500 271 458 217 393 202 c 1
 466 170 497 130 497 71 c 0
 497 -25 418 -84 282 -84 c 0
 146 -84 79 -42 56 49 c 1
 135 64 l 1
 148 5 187 -20 282 -20 c 0
 370 -20 419 10 419 63 c 0
 419 82 414 97 403 109 c 0
 392 122 377 133 357 142 c 0
 337 152 302 163 253 175 c 0
 126 204 75 255 75 328 c 0xe8
 75 385 118 438 186 458 c 1
 123 479 85 525 85 581 c 0
 85 672 155 725 287 725 c 0xd8
423 324 m 0xe4
 423 371 384 403 269 430 c 1
 198 426 153 389 153 334 c 0
 153 318 158 304 167 292 c 0
 187 268 215 253 299 232 c 1
 376 233 423 268 423 324 c 0xe4
EndSplineSet
EndChar

StartChar: dieresis
Encoding: 168 168 104
Width: 333
GlyphClass: 2
Flags: MW
HStem: 595 90<22 103 22 103 214 294>
VStem: 22 81<595 685> 214 80<595 685>
LayerCount: 2
Fore
SplineSet
294 595 m 1
 214 595 l 1
 214 685 l 1
 294 685 l 1
 294 595 l 1
103 595 m 1
 22 595 l 1
 22 685 l 1
 103 685 l 1
 103 595 l 1
EndSplineSet
EndChar

StartChar: copyright
Encoding: 169 169 105
Width: 737
GlyphClass: 2
Flags: MW
HStem: -8 46<368 368> 136 51<333.5 399.5 333.5 412> 502 51<329.5 395.5> 652 46<368 368>
VStem: 15 47<345 345> 180 63<296 397.5 296 412> 676 45<345 345>
LayerCount: 2
Fore
SplineSet
721 345 m 1
 727 157 556 -14 368 -8 c 0
 304 -8 244 8 189 41 c 0
 78 106 15 222 15 345 c 0
 10 533 181 704 368 698 c 1
 558 703 726 534 721 345 c 1
676 345 m 1
 681 510 534 655 368 652 c 1
 204 656 57 508 62 345 c 1
 57 181 204 33 368 38 c 1
 534 33 681 181 676 345 c 1
243 346 m 0
 243 246 293 187 374 187 c 0
 425 187 463 212 487 263 c 1
 543 246 l 1
 503 167 450 136 374 136 c 0
 251 136 180 214 180 346 c 0
 180 478 247 553 370 553 c 0
 449 553 505 519 536 451 c 1
 480 435 l 1
 460 480 420 502 371 502 c 0
 288 502 243 449 243 346 c 0
EndSplineSet
EndChar

StartChar: ordfeminine
Encoding: 170 170 106
Width: 370
GlyphClass: 2
Flags: MW
HStem: 318 54<126 157.5> 321 53<309 356> 499 45 650 49<156.5 204.5>
VStem: 13 73<411.5 452.5 411.5 462.5> 252 70<468 500 500 500 545 574 574 577>
LayerCount: 2
Fore
SplineSet
127 318 m 0xbc
 56 318 13 358 13 425 c 0
 13 500 64 542 165 543 c 2
 252 545 l 1
 252 574 l 2
 252 627 231 650 178 650 c 0
 135 650 107 633 102 584 c 1
 29 589 l 1
 40 658 93 699 177 699 c 0
 272 699 322 658 322 577 c 2
 322 427 l 2
 322 388 329 374 353 374 c 0
 359 374 366 375 374 378 c 1
 374 327 l 1
 358 323 344 321 333 321 c 0x7c
 285 321 259 347 256 390 c 1
 254 390 l 1
 230 342 188 318 127 318 c 0xbc
146 372 m 0
 175 372 200 382 221 401 c 0
 242 420 252 443 252 468 c 2
 252 500 l 1
 185 498 l 2
 108 494 86 474 86 431 c 0
 86 392 106 372 146 372 c 0
EndSplineSet
EndChar

StartChar: guillemotleft
Encoding: 171 171 107
Width: 556
GlyphClass: 2
Flags: MW
HStem: 69 390<205 286 205 287 205 286 433 515 205 516 205 433>
VStem: 41 475<69 278 69 278>
LayerCount: 2
Fore
SplineSet
516 69 m 1
 433 69 l 1
 268 247 l 1
 268 278 l 1
 433 459 l 1
 515 459 l 1
 515 444 l 1
 350 262 l 1
 516 83 l 1
 516 69 l 1
287 69 m 1
 205 69 l 1
 41 247 l 1
 41 278 l 1
 205 459 l 1
 286 459 l 1
 286 444 l 1
 123 262 l 1
 287 83 l 1
 287 69 l 1
EndSplineSet
EndChar

StartChar: logicalnot
Encoding: 172 172 108
Width: 584
GlyphClass: 2
Flags: MW
HStem: 297 71<49 464 49 535>
VStem: 464 71<88 297 297 297>
LayerCount: 2
Fore
SplineSet
535 88 m 1
 464 88 l 1
 464 297 l 1
 49 297 l 1
 49 368 l 1
 535 368 l 1
 535 88 l 1
EndSplineSet
EndChar

StartChar: uni00AD
Encoding: 173 173 109
Width: 333
GlyphClass: 2
Flags: MW
HStem: 227 78<44 289 44 289>
VStem: 44 245<227 305 227 305>
LayerCount: 2
Fore
SplineSet
289 227 m 1
 44 227 l 1
 44 305 l 1
 289 305 l 1
 289 227 l 1
EndSplineSet
EndChar

StartChar: registered
Encoding: 174 174 110
Width: 737
GlyphClass: 2
Flags: MW
HStem: -8 46<368 368> 305 47<291 369 291 379> 499 48<291 374 291 291> 652 46<368 368>
VStem: 15 47<345 345> 229 62<141 305 141 352 352 499> 459 62<406 452.5> 676 45<345 345>
LayerCount: 2
Fore
SplineSet
721 345 m 1
 727 157 556 -14 368 -8 c 0
 304 -8 244 8 189 41 c 0
 78 106 15 222 15 345 c 0
 10 533 181 704 368 698 c 1
 558 703 726 534 721 345 c 1
676 345 m 1
 681 510 534 655 368 652 c 1
 204 656 57 508 62 345 c 1
 57 181 204 33 368 38 c 1
 534 33 681 181 676 345 c 1
537 141 m 1
 466 141 l 1
 369 305 l 1
 291 305 l 1
 291 141 l 1
 229 141 l 1
 229 547 l 1
 378 547 l 2
 471 547 521 503 521 431 c 0
 521 364 485 324 429 312 c 1
 537 141 l 1
459 430 m 0
 459 475 426 499 374 499 c 2
 291 499 l 1
 291 352 l 1
 379 352 l 2
 431 352 459 382 459 430 c 0
EndSplineSet
EndChar

StartChar: macron
Encoding: 175 175 111
Width: 552
GlyphClass: 2
Flags: MW
HStem: 709 46<-8 561 -8 561>
VStem: -8 569<709 755 709 755>
LayerCount: 2
Fore
SplineSet
561 755 m 1
 561 709 l 1
 -8 709 l 1
 -8 755 l 1
 561 755 l 1
EndSplineSet
EndChar

StartChar: degree
Encoding: 176 176 112
Width: 400
GlyphClass: 2
Flags: MW
HStem: 420 51<180.5 219> 647 51<180.5 219.5 180.5 224>
VStem: 60 53<540 578> 287 53<539.5 578.5 539.5 583.5>
LayerCount: 2
Fore
SplineSet
340 559 m 0
 340 520 326 487 298 460 c 0
 271 433 238 420 200 420 c 0
 161 420 128 434 101 461 c 0
 74 488 60 521 60 559 c 0
 60 597 73 630 100 657 c 0
 127 684 161 698 200 698 c 0
 239 698 272 684 299 657 c 0
 326 630 340 598 340 559 c 0
287 559 m 0
 287 608 248 647 200 647 c 0
 151 647 113 607 113 559 c 0
 113 511 152 471 200 471 c 0
 248 471 287 510 287 559 c 0
EndSplineSet
EndChar

StartChar: plusminus
Encoding: 177 177 113
Width: 549
GlyphClass: 2
Flags: MW
HStem: 0 71<32 518 32 518> 332 71<32 239 32 239 311 518>
VStem: 239 72<139 332 139 332 403 595>
LayerCount: 2
Fore
SplineSet
518 332 m 1
 311 332 l 1
 311 139 l 1
 239 139 l 1
 239 332 l 1
 32 332 l 1
 32 403 l 1
 239 403 l 1
 239 595 l 1
 311 595 l 1
 311 403 l 1
 518 403 l 1
 518 332 l 1
518 0 m 1
 32 0 l 1
 32 71 l 1
 518 71 l 1
 518 0 l 1
EndSplineSet
EndChar

StartChar: uni00B2
Encoding: 178 178 114
Width: 333
GlyphClass: 2
Flags: MW
HStem: 275 55<98 314 98 314> 642 52<148 194>
VStem: 25 65<573 577> 241 67<556.5 595>
LayerCount: 2
Fore
SplineSet
314 275 m 1
 21 275 l 1
 20 325 l 1
 40 370 81 411 150 459 c 0
 214 503 241 538 241 575 c 0
 241 615 218 642 170 642 c 0
 126 642 95 617 90 573 c 1
 25 577 l 1
 33 646 89 694 173 694 c 0
 256 694 308 652 308 580 c 0
 308 532 277 486 216 441 c 0
 176 412 148 389 131 374 c 0
 115 359 104 345 98 330 c 1
 314 330 l 1
 314 275 l 1
EndSplineSet
EndChar

StartChar: uni00B3
Encoding: 179 179 115
Width: 333
GlyphClass: 2
Flags: MW
HStem: 269 51<141.5 194.5 141.5 214.5> 459 53<125 152 152 154 125 152> 642 52<143.5 188.5>
VStem: 22 66<576 582> 236 67<563.5 598.5> 247 66<368 414.5>
LayerCount: 2
Fore
SplineSet
313 388 m 0xe4
 313 313 261 269 168 269 c 0
 75 269 24 306 13 380 c 1
 80 386 l 1
 85 342 115 320 168 320 c 0
 221 320 247 344 247 392 c 0
 247 437 216 459 154 459 c 2xe4
 125 459 l 1
 125 512 l 1
 152 512 l 2
 204 512 236 536 236 579 c 0
 236 618 211 642 166 642 c 0
 121 642 92 619 88 576 c 1
 22 582 l 1
 31 653 84 694 167 694 c 0
 252 694 303 652 303 588 c 0xf8
 303 539 276 501 217 488 c 1
 217 487 l 1
 277 480 313 445 313 388 c 0xe4
EndSplineSet
EndChar

StartChar: acute
Encoding: 180 180 116
Width: 333
GlyphClass: 2
Flags: MW
HStem: 722 14<141 242>
VStem: 35 207<586 736 596 736>
LayerCount: 2
Fore
SplineSet
81 586 m 1
 35 586 l 1
 35 596 l 1
 141 736 l 1
 242 736 l 1
 242 722 l 1
 81 586 l 1
EndSplineSet
EndChar

StartChar: mu
Encoding: 181 181 117
Width: 576
GlyphClass: 2
Flags: MW
HStem: -208 21G<68 156 68 68> -10 68<235.5 288.5> 508 20G<68 157 157 157 401 489 489 489>
VStem: 68 89<148.5 193 193 528> 401 88<222 528>
LayerCount: 2
Fore
SplineSet
156 -208 m 1
 68 -208 l 1
 68 528 l 1
 157 528 l 1
 157 193 l 2
 157 104 190 58 267 58 c 0
 351 58 401 117 401 222 c 2
 401 528 l 1
 489 528 l 1
 489 130 l 2
 489 81 499 59 527 59 c 0
 535 59 544 60 553 63 c 1
 553 0 l 1
 532 -7 513 -10 498 -10 c 0
 439 -10 408 20 405 85 c 1
 403 85 l 1
 369 22 320 -10 257 -10 c 0
 214 -10 176 4 156 29 c 1
 156 -208 l 1
EndSplineSet
EndChar

StartChar: paragraph
Encoding: 182 182 118
Width: 537
GlyphClass: 2
Flags: MW
HStem: 638 50<271 377 271 271 432 495 432 432>
VStem: 216 55<-129 339 339 339> 377 55<-129 638 -129 638>
LayerCount: 2
Fore
SplineSet
495 638 m 1
 432 638 l 1
 432 -129 l 1
 377 -129 l 1
 377 638 l 1
 271 638 l 1
 271 -129 l 1
 216 -129 l 1
 216 339 l 1
 107 339 39 401 39 512 c 0
 39 623 107 688 220 688 c 2
 495 688 l 1
 495 638 l 1
EndSplineSet
EndChar

StartChar: periodcentered
Encoding: 183 183 119
Width: 333
GlyphClass: 2
Flags: MW
HStem: 218 107<119 214 119 214>
VStem: 119 95<218 325>
LayerCount: 2
Fore
SplineSet
214 218 m 1
 119 218 l 1
 119 325 l 1
 214 325 l 1
 214 218 l 1
EndSplineSet
EndChar

StartChar: cedilla
Encoding: 184 184 120
Width: 333
GlyphClass: 2
Flags: MW
HStem: -212 47<94 124 94 146.5> -88 88<111 128.5>
VStem: 172 64<-138.5 -112.5>
LayerCount: 2
Fore
SplineSet
236 -124 m 0
 236 -183 191 -212 102 -212 c 0
 83 -212 69 -211 58 -210 c 1
 58 -162 l 1
 74 -164 88 -165 100 -165 c 0
 148 -165 172 -152 172 -125 c 0
 172 -100 150 -88 107 -88 c 0
 93 -88 84 -88 79 -89 c 1
 111 0 l 1
 163 0 l 1
 144 -49 l 1
 205 -50 236 -79 236 -124 c 0
EndSplineSet
EndChar

StartChar: uni00B9
Encoding: 185 185 121
Width: 333
GlyphClass: 2
Flags: MW
HStem: 275 52<39 142 206 311 39 142> 630 58<142 206> 668 20G<146 206 206 206>
VStem: 142 64<327 630 630 630>
LayerCount: 2
Fore
SplineSet
311 275 m 1xb0
 39 275 l 1
 39 327 l 1
 142 327 l 1
 142 630 l 1
 43 563 l 1
 43 621 l 1xd0
 146 688 l 1
 206 688 l 1
 206 327 l 1
 311 327 l 1
 311 275 l 1xb0
EndSplineSet
EndChar

StartChar: ordmasculine
Encoding: 186 186 122
Width: 365
GlyphClass: 2
Flags: MW
HStem: 318 51<148.5 217 148.5 238.5> 648 51<149.5 219>
VStem: 13 74<461.5 557.5 461.5 570.5> 280 73<461 559>
LayerCount: 2
Fore
SplineSet
353 509 m 0
 353 386 295 318 182 318 c 0
 73 318 13 385 13 509 c 0
 13 632 72 699 184 699 c 0
 297 699 353 636 353 509 c 0
280 509 m 0
 280 609 253 648 185 648 c 0
 114 648 87 606 87 509 c 0
 87 414 116 369 181 369 c 0
 253 369 280 413 280 509 c 0
EndSplineSet
EndChar

StartChar: guillemotright
Encoding: 187 187 123
Width: 556
GlyphClass: 2
Flags: MW
HStem: 69 390<42 124 42 124 41 124 270 351 42 351 42 269>
VStem: 41 475<69 247 83 247>
LayerCount: 2
Fore
SplineSet
516 247 m 1
 351 69 l 1
 269 69 l 1
 269 83 l 1
 434 262 l 1
 270 444 l 1
 270 459 l 1
 351 459 l 1
 516 278 l 1
 516 247 l 1
287 247 m 1
 124 69 l 1
 41 69 l 1
 41 83 l 1
 206 262 l 1
 42 444 l 1
 42 459 l 1
 124 459 l 1
 287 278 l 1
 287 247 l 1
EndSplineSet
EndChar

StartChar: onequarter
Encoding: 188 188 124
Width: 834
GlyphClass: 2
Flags: MW
HStem: 1 142<534 734 534 670> 88 55<534 670 534 670 734 788> 275 52<27 130 194 299 27 130> 349 65<671 671> 630 58<130 194> 668 20G<134 194 194 194 599 669 669 669>
VStem: 130 64<327 630 630 630> 670 64<1 88 1 88 143 319 319 319>
LayerCount: 2
Fore
SplineSet
299 275 m 1x67
 27 275 l 1x77
 27 327 l 1
 130 327 l 1xa7
 130 630 l 1
 32 563 l 1
 32 621 l 1
 134 688 l 1
 194 688 l 1x77
 194 327 l 1
 299 327 l 1
 299 275 l 1x67
669 688 m 1
 241 0 l 1
 168 0 l 1
 599 688 l 1
 669 688 l 1
788 88 m 1
 734 88 l 1
 734 1 l 1
 670 1 l 1
 670 88 l 1
 472 88 l 1xab
 472 142 l 1
 660 414 l 1
 734 414 l 1
 734 143 l 1
 788 143 l 1x67
 788 88 l 1
670 319 m 1
 671 349 l 1
 664 336 651 314 631 283 c 2
 534 143 l 1
 670 143 l 1
 670 319 l 1
EndSplineSet
EndChar

StartChar: onehalf
Encoding: 189 189 125
Width: 834
GlyphClass: 2
Flags: MW
HStem: 1 55<591 807 591 807> 275 52<27 130 194 299 27 130> 368 52<641 687> 630 58<130 194> 668 20G<134 194 194 194 599 669 669 669>
VStem: 130 64<327 630 630 630> 518 65<299 303> 734 67<282.5 321.5>
LayerCount: 2
Fore
SplineSet
299 275 m 1xed
 27 275 l 1
 27 327 l 1
 130 327 l 1
 130 630 l 1
 32 563 l 1
 32 621 l 1xf7
 134 688 l 1
 194 688 l 1
 194 327 l 1
 299 327 l 1
 299 275 l 1xed
669 688 m 1
 241 0 l 1
 168 0 l 1
 599 688 l 1
 669 688 l 1
807 1 m 1
 514 1 l 1
 513 51 l 1
 533 96 573 137 644 185 c 0
 707 229 734 264 734 301 c 0
 734 342 711 368 663 368 c 0
 619 368 588 344 583 299 c 1
 518 303 l 1
 526 372 582 420 666 420 c 0
 749 420 801 378 801 306 c 0
 801 258 770 212 709 167 c 0
 669 138 641 115 625 100 c 0
 609 85 598 71 591 56 c 1
 807 56 l 1
 807 1 l 1
EndSplineSet
EndChar

StartChar: threequarters
Encoding: 190 190 126
Width: 834
GlyphClass: 2
Flags: MW
HStem: 1 142<534 734 534 670> 88 55<534 670 534 670 734 788> 269 51<164.5 217 164.5 237> 349 65<671 671> 459 53<147 175 175 177 147 175> 642 52<166 211.5> 668 20G<608 679 679 679>
VStem: 36 66<380 386> 45 66<576 582> 259 67<563.5 598.5> 269 67<368 414.5> 670 64<1 88 1 88 143 319 319 319>
LayerCount: 2
Fore
SplineSet
679 688 m 1x6c30
 250 0 l 1x7c30
 178 0 l 1
 608 688 l 1
 679 688 l 1x6c30
788 88 m 1
 734 88 l 1
 734 1 l 1
 670 1 l 1
 670 88 l 1
 472 88 l 1x7a30
 472 142 l 1
 660 414 l 1xac30
 734 414 l 1
 734 143 l 1
 788 143 l 1
 788 88 l 1
670 319 m 1
 671 349 l 1
 664 336 651 314 631 283 c 2xac30
 534 143 l 1
 670 143 l 1
 670 319 l 1
336 388 m 0
 336 313 283 269 191 269 c 0
 98 269 46 306 36 380 c 1
 102 386 l 1
 108 342 138 320 191 320 c 0
 243 320 269 344 269 392 c 0
 269 437 238 459 177 459 c 2x6d30
 147 459 l 1
 147 512 l 1
 175 512 l 2
 227 512 259 536 259 579 c 0
 259 618 235 642 188 642 c 0
 144 642 115 619 111 576 c 1
 45 582 l 1
 53 653 107 694 190 694 c 0
 274 694 326 652 326 588 c 0x6cd0
 326 539 299 501 240 488 c 1
 240 487 l 1
 299 480 336 445 336 388 c 0
EndSplineSet
EndChar

StartChar: questiondown
Encoding: 191 191 127
Width: 611
GlyphClass: 2
Flags: MW
HStem: -170 78<251.5 342.5 251.5 367.5> 430 98<274 369 274 369>
VStem: 64 89<-8.5 36.5> 274 95<430 528 430 528>
LayerCount: 2
Fore
SplineSet
64 24 m 0
 64 49 67 71 74 90 c 0
 81 109 92 127 105 143 c 0
 118 159 140 178 171 201 c 2
 210 229 l 2
 257 264 279 300 280 344 c 1
 365 344 l 1
 360 165 153 181 153 28 c 0
 153 -45 206 -92 297 -92 c 0
 388 -92 443 -43 452 36 c 1
 542 30 l 1
 525 -98 437 -170 298 -170 c 0
 153 -170 64 -97 64 24 c 0
274 528 m 1
 369 528 l 1
 369 430 l 1
 274 430 l 1
 274 528 l 1
EndSplineSet
EndChar

StartChar: Agrave
Encoding: 192 192 128
Width: 667
GlyphClass: 2
Flags: MW
HStem: 0 21G<2 99 2 2 570 665 570 570> 201 73<206 463 206 491 178 463> 618 70<334 334> 668 20G<283 389 389 389> 853 14<215 316>
VStem: 2 663<0 0>
LayerCount: 2
Fore
SplineSet
665 0 m 1xdc
 570 0 l 1
 491 201 l 1
 178 201 l 1
 99 0 l 1
 2 0 l 1
 283 688 l 1
 389 688 l 1
 665 0 l 1xdc
348 577 m 2
 334 618 l 1
 330 604 l 2xec
 322 577 310 542 294 500 c 2
 206 274 l 1
 463 274 l 1
 375 501 l 2
 366 524 357 549 348 577 c 2
422 747 m 1
 366 747 l 1
 215 853 l 1
 215 867 l 1
 316 867 l 1
 422 757 l 1
 422 747 l 1
EndSplineSet
EndChar

StartChar: Aacute
Encoding: 193 193 129
Width: 667
GlyphClass: 2
Flags: MW
HStem: 0 21G<2 99 2 2 570 665 570 570> 201 73<206 463 206 491 178 463> 618 70<334 334> 668 20G<283 389 389 389> 853 14<373 474>
VStem: 2 663<0 0>
LayerCount: 2
Fore
SplineSet
665 0 m 1xdc
 570 0 l 1
 491 201 l 1
 178 201 l 1
 99 0 l 1
 2 0 l 1
 283 688 l 1
 389 688 l 1
 665 0 l 1xdc
348 577 m 2
 334 618 l 1
 330 604 l 2xec
 322 577 310 542 294 500 c 2
 206 274 l 1
 463 274 l 1
 375 501 l 2
 366 524 357 549 348 577 c 2
323 747 m 1
 267 747 l 1
 267 757 l 1
 373 867 l 1
 474 867 l 1
 474 853 l 1
 323 747 l 1
EndSplineSet
EndChar

StartChar: Acircumflex
Encoding: 194 194 130
Width: 667
GlyphClass: 2
Flags: MW
HStem: 0 21G<2 99 2 2 570 665 570 570> 201 73<206 463 206 491 178 463> 618 70<334 334> 668 20G<283 389 389 389> 747 127<172 386 172 386 286 495 286 444>
VStem: 2 663<0 0>
LayerCount: 2
Fore
SplineSet
665 0 m 1xdc
 570 0 l 1
 491 201 l 1
 178 201 l 1
 99 0 l 1
 2 0 l 1
 283 688 l 1
 389 688 l 1
 665 0 l 1xdc
348 577 m 2
 334 618 l 1
 330 604 l 2xec
 322 577 310 542 294 500 c 2
 206 274 l 1
 463 274 l 1
 375 501 l 2
 366 524 357 549 348 577 c 2
386 874 m 1
 495 757 l 1
 495 747 l 1
 444 747 l 1
 337 815 l 1
 336 815 l 1
 223 747 l 1
 172 747 l 1
 172 757 l 1
 286 874 l 1
 386 874 l 1
EndSplineSet
EndChar

StartChar: Atilde
Encoding: 195 195 131
Width: 667
GlyphClass: 2
Flags: MW
HStem: 0 21G<2 99 2 2 570 665 570 570> 201 73<206 463 206 491 178 463> 618 70<334 334> 668 20G<283 389 389 389> 747 73<388.5 424.5 388.5 439> 805 73<259 282>
VStem: 160 44<747 747>
LayerCount: 2
Fore
SplineSet
665 0 m 1xda
 570 0 l 1
 491 201 l 1
 178 201 l 1
 99 0 l 1
 2 0 l 1
 283 688 l 1
 389 688 l 1
 665 0 l 1xda
348 577 m 2
 334 618 l 1
 330 604 l 2xea
 322 577 310 542 294 500 c 2
 206 274 l 1
 463 274 l 1
 375 501 l 2
 366 524 357 549 348 577 c 2
411 747 m 0
 357 747 302 805 262 805 c 0
 226 805 209 784 204 747 c 1
 160 747 l 1xd6
 170 843 197 873 259 878 c 1
 315 878 369 820 408 820 c 0
 441 820 460 839 465 878 c 1
 510 878 l 1
 498 782 467 747 411 747 c 0
EndSplineSet
EndChar

StartChar: Adieresis
Encoding: 196 196 132
Width: 667
GlyphClass: 2
Flags: MW
HStem: 0 21G<2 99 2 2 570 665 570 570> 201 73<206 463 206 491 178 463> 618 70<334 334> 668 20G<283 389 389 389> 747 90<200 280 200 280 392 472>
VStem: 200 80<747 837> 392 80<747 837>
LayerCount: 2
Fore
SplineSet
665 0 m 1xde
 570 0 l 1
 491 201 l 1
 178 201 l 1
 99 0 l 1
 2 0 l 1
 283 688 l 1
 389 688 l 1
 665 0 l 1xde
348 577 m 2
 334 618 l 1
 330 604 l 2xee
 322 577 310 542 294 500 c 2
 206 274 l 1
 463 274 l 1
 375 501 l 2
 366 524 357 549 348 577 c 2
472 747 m 1
 392 747 l 1
 392 837 l 1
 472 837 l 1
 472 747 l 1
280 747 m 1
 200 747 l 1
 200 837 l 1
 280 837 l 1
 280 747 l 1
EndSplineSet
EndChar

StartChar: Aring
Encoding: 197 197 133
Width: 667
GlyphClass: 2
Flags: MW
HStem: 0 21G<2 99 2 2 570 665 570 570> 201 73<206 463 206 491 178 463> 637 51<318.5 351.5> 820 53<318.5 351 318.5 353>
VStem: 217 52<738.5 771.5> 400 53<738.5 771.5 738.5 773>
LayerCount: 2
Fore
SplineSet
665 0 m 1
 570 0 l 1
 491 201 l 1
 178 201 l 1
 99 0 l 1
 2 0 l 1
 283 688 l 1
 389 688 l 1
 665 0 l 1
348 577 m 2
 334 618 l 1
 330 604 l 2
 322 577 310 542 294 500 c 2
 206 274 l 1
 463 274 l 1
 375 501 l 2
 366 524 357 549 348 577 c 2
453 755 m 0
 453 722 441 694 418 671 c 0
 395 648 368 637 335 637 c 0
 302 637 274 648 251 671 c 0
 228 694 217 722 217 755 c 0
 217 788 228 815 251 838 c 0
 274 861 302 873 335 873 c 0
 367 873 395 861 418 838 c 0
 441 815 453 788 453 755 c 0
400 755 m 0
 400 791 371 820 335 820 c 0
 298 820 269 791 269 755 c 0
 269 719 296 688 335 688 c 0
 372 688 400 719 400 755 c 0
EndSplineSet
EndChar

StartChar: AE
Encoding: 198 198 134
Width: 1000
GlyphClass: 2
Flags: MW
HStem: 0 76<566 957 566 957> 201 73<240 473 240 473 206 473> 316 75<566 908 566 908> 612 76<566 937 566 566> 616 72<399 473 399 399>
VStem: 473 93<76 201 201 201 274 316 391 612>
LayerCount: 2
Fore
SplineSet
957 0 m 1xf4
 473 0 l 1
 473 201 l 1
 206 201 l 1
 109 0 l 1
 12 0 l 1
 347 688 l 1
 937 688 l 1
 937 612 l 1
 566 612 l 1
 566 391 l 1
 908 391 l 1
 908 316 l 1
 566 316 l 1
 566 76 l 1
 957 76 l 1
 957 0 l 1xf4
473 274 m 1
 473 616 l 1
 399 616 l 1
 386 585 l 1xec
 240 274 l 1
 473 274 l 1
EndSplineSet
EndChar

StartChar: Ccedilla
Encoding: 199 199 135
Width: 722
GlyphClass: 2
Flags: MW
HStem: -212 47<343 373 343 395.5> -88 39<349 393> -10 10<360 412 360 454> -10 77<353.5 439 353.5 454> 622 76<333.5 435>
VStem: 51 95<305 402> 421 64<-138.5 -112.5>
LayerCount: 2
Fore
SplineSet
387 622 m 0xee
 234 622 146 518 146 347 c 0
 146 263 168 195 212 144 c 0
 256 93 316 67 391 67 c 0xde
 487 67 559 115 608 210 c 1
 684 172 l 1
 628 53 522 -10 386 -10 c 0
 176 -10 51 127 51 347 c 0
 51 457 81 543 140 605 c 0
 199 667 281 698 386 698 c 0
 533 698 631 640 678 528 c 1
 589 499 l 1
 557 579 483 622 387 622 c 0xee
485 -124 m 0
 485 -183 440 -212 351 -212 c 0
 332 -212 318 -211 307 -210 c 1
 307 -162 l 1
 323 -164 337 -165 349 -165 c 0
 397 -165 421 -152 421 -125 c 0
 421 -100 399 -88 356 -88 c 0
 342 -88 333 -88 328 -89 c 1
 360 0 l 1
 412 0 l 1
 393 -49 l 1
 454 -50 485 -79 485 -124 c 0
EndSplineSet
EndChar

StartChar: Egrave
Encoding: 200 200 136
Width: 667
GlyphClass: 2
Flags: MW
HStem: 0 76<175 624 175 624> 316 75<175 575 175 575> 612 76<175 604 175 175> 853 14<208 309>
VStem: 82 93<76 316 391 612>
LayerCount: 2
Fore
SplineSet
624 0 m 1
 82 0 l 1
 82 688 l 1
 604 688 l 1
 604 612 l 1
 175 612 l 1
 175 391 l 1
 575 391 l 1
 575 316 l 1
 175 316 l 1
 175 76 l 1
 624 76 l 1
 624 0 l 1
415 747 m 1
 359 747 l 1
 208 853 l 1
 208 867 l 1
 309 867 l 1
 415 757 l 1
 415 747 l 1
EndSplineSet
EndChar

StartChar: Eacute
Encoding: 201 201 137
Width: 667
GlyphClass: 2
Flags: MW
HStem: 0 76<175 624 175 624> 316 75<175 575 175 575> 612 76<175 604 175 175> 853 14<375 476>
VStem: 82 93<76 316 391 612>
LayerCount: 2
Fore
SplineSet
624 0 m 1
 82 0 l 1
 82 688 l 1
 604 688 l 1
 604 612 l 1
 175 612 l 1
 175 391 l 1
 575 391 l 1
 575 316 l 1
 175 316 l 1
 175 76 l 1
 624 76 l 1
 624 0 l 1
325 747 m 1
 269 747 l 1
 269 757 l 1
 375 867 l 1
 476 867 l 1
 476 853 l 1
 325 747 l 1
EndSplineSet
EndChar

StartChar: Ecircumflex
Encoding: 202 202 138
Width: 667
GlyphClass: 2
Flags: MW
HStem: 0 76<175 624 175 624> 316 75<175 575 175 575> 612 76<175 604 175 175> 747 127<183 397 183 397 297 506 297 455>
VStem: 82 93<76 316 391 612>
LayerCount: 2
Fore
SplineSet
624 0 m 1
 82 0 l 1
 82 688 l 1
 604 688 l 1
 604 612 l 1
 175 612 l 1
 175 391 l 1
 575 391 l 1
 575 316 l 1
 175 316 l 1
 175 76 l 1
 624 76 l 1
 624 0 l 1
397 874 m 1
 506 757 l 1
 506 747 l 1
 455 747 l 1
 348 815 l 1
 347 815 l 1
 234 747 l 1
 183 747 l 1
 183 757 l 1
 297 874 l 1
 397 874 l 1
EndSplineSet
EndChar

StartChar: Edieresis
Encoding: 203 203 139
Width: 667
GlyphClass: 2
Flags: MW
HStem: 0 76<175 624 175 624> 316 75<175 575 175 575> 612 76<175 604 175 175> 747 90<206 287 206 287 398 478>
VStem: 82 93<76 316 391 612> 206 81<747 837> 398 80<747 837>
LayerCount: 2
Fore
SplineSet
624 0 m 1
 82 0 l 1
 82 688 l 1
 604 688 l 1
 604 612 l 1
 175 612 l 1
 175 391 l 1
 575 391 l 1
 575 316 l 1
 175 316 l 1
 175 76 l 1
 624 76 l 1
 624 0 l 1
478 747 m 1
 398 747 l 1
 398 837 l 1
 478 837 l 1
 478 747 l 1
287 747 m 1
 206 747 l 1
 206 837 l 1
 287 837 l 1
 287 747 l 1
EndSplineSet
EndChar

StartChar: Igrave
Encoding: 204 204 140
Width: 278
GlyphClass: 2
Flags: MW
HStem: 0 21G<92 186 92 92> 668 20G<92 186 186 186> 853 14<4 105>
VStem: 92 94<0 688>
LayerCount: 2
Fore
SplineSet
186 0 m 1
 92 0 l 1
 92 688 l 1
 186 688 l 1
 186 0 l 1
211 747 m 1
 156 747 l 1
 4 853 l 1
 4 867 l 1
 105 867 l 1
 211 757 l 1
 211 747 l 1
EndSplineSet
EndChar

StartChar: Iacute
Encoding: 205 205 141
Width: 278
GlyphClass: 2
Flags: MW
HStem: 0 21G<92 186 92 92> 668 20G<92 186 186 186> 853 14<175 276>
VStem: 92 94<0 688>
LayerCount: 2
Fore
SplineSet
186 0 m 1
 92 0 l 1
 92 688 l 1
 186 688 l 1
 186 0 l 1
125 747 m 1
 69 747 l 1
 69 757 l 1
 175 867 l 1
 276 867 l 1
 276 853 l 1
 125 747 l 1
EndSplineSet
EndChar

StartChar: Icircumflex
Encoding: 206 206 142
Width: 278
GlyphClass: 2
Flags: MW
HStem: 0 21G<92 186 92 92> 668 20G<92 186 186 186> 747 127<-22 191 -22 191 92 301 92 250>
VStem: 92 94<0 688>
LayerCount: 2
Fore
SplineSet
186 0 m 1
 92 0 l 1
 92 688 l 1
 186 688 l 1
 186 0 l 1
191 874 m 1
 301 757 l 1
 301 747 l 1
 250 747 l 1
 143 815 l 1
 142 815 l 1
 28 747 l 1
 -22 747 l 1
 -22 757 l 1
 92 874 l 1
 191 874 l 1
EndSplineSet
EndChar

StartChar: Idieresis
Encoding: 207 207 143
Width: 278
GlyphClass: 2
Flags: MW
HStem: 0 21G<92 186 92 92> 668 20G<92 186 186 186> 747 90<3 84 3 84 196 275>
VStem: 3 81<747 837> 92 94<0 688> 196 79<747 837>
LayerCount: 2
Fore
SplineSet
186 0 m 1
 92 0 l 1
 92 688 l 1
 186 688 l 1
 186 0 l 1
275 747 m 1
 196 747 l 1
 196 837 l 1
 275 837 l 1
 275 747 l 1
84 747 m 1
 3 747 l 1
 3 837 l 1
 84 837 l 1
 84 747 l 1
EndSplineSet
EndChar

StartChar: Eth
Encoding: 208 208 144
Width: 722
GlyphClass: 2
Flags: MW
HStem: 0 75<175 329 329 339> 316 75<7 82 7 82 175 374> 613 75<175 308 175 175>
VStem: 82 93<75 316 75 316 75 316 391 613> 581 93<351 436.5>
LayerCount: 2
Fore
SplineSet
7 316 m 1
 7 391 l 1
 82 391 l 1
 82 688 l 1
 310 688 l 2
 542 688 674 567 674 351 c 0
 676 139 538 -3 339 0 c 2
 82 0 l 1
 82 316 l 1
 7 316 l 1
581 351 m 0
 581 522 484 613 308 613 c 2
 175 613 l 1
 175 391 l 1
 374 391 l 1
 374 316 l 1
 175 316 l 1
 175 75 l 1
 329 75 l 2
 481 75 581 180 581 351 c 0
EndSplineSet
EndChar

StartChar: Ntilde
Encoding: 209 209 145
Width: 722
GlyphClass: 2
Flags: MW
HStem: 0 21G<82 165 82 82 528 641 528 528> 0 98<563 563 563 641 528 563> 586 102<160 160> 668 20G<82 190 190 190 557 641 641 641> 747 73<421.5 456.5 421.5 471.5> 805 73<292 314.5>
VStem: 82 83<0 457 0 688> 498 44<878 878> 557 84<237 688>
LayerCount: 2
Fore
SplineSet
641 0 m 1x9a80
 528 0 l 1
 160 586 l 1
 163 539 l 1xab80
 165 457 l 1
 165 0 l 1
 82 0 l 1
 82 688 l 1
 190 688 l 1
 563 98 l 1x5a80
 559 162 557 208 557 237 c 2
 557 688 l 1
 641 688 l 1
 641 0 l 1x9a80
444 747 m 0
 387 747 335 805 294 805 c 0
 259 805 242 784 237 747 c 1
 192 747 l 1x9680
 204 843 229 873 292 878 c 1
 348 878 403 820 440 820 c 0
 473 820 492 839 498 878 c 1
 542 878 l 1
 531 782 499 747 444 747 c 0
EndSplineSet
EndChar

StartChar: Ograve
Encoding: 210 210 146
Width: 778
GlyphClass: 2
Flags: MW
HStem: -10 76<349.5 467.5 349.5 493> 622 76<335.5 467> 853 14<266 367>
VStem: 47 95<304 402> 635 95<257.5 433>
LayerCount: 2
Fore
SplineSet
730 347 m 0
 730 129 598 -10 388 -10 c 0
 175 -10 47 128 47 347 c 0
 47 457 77 543 137 605 c 0
 198 667 282 698 389 698 c 0
 600 698 730 567 730 347 c 0
635 347 m 0
 635 519 545 622 389 622 c 0
 232 622 142 522 142 347 c 0
 142 261 164 193 207 142 c 0
 250 91 311 66 388 66 c 0
 547 66 635 168 635 347 c 0
473 747 m 1
 417 747 l 1
 266 853 l 1
 266 867 l 1
 367 867 l 1
 473 757 l 1
 473 747 l 1
EndSplineSet
EndChar

StartChar: Oacute
Encoding: 211 211 147
Width: 778
GlyphClass: 2
Flags: MW
HStem: -10 76<349.5 467.5 349.5 493> 622 76<335.5 467> 853 14<409 510>
VStem: 47 95<304 402> 635 95<257.5 433>
LayerCount: 2
Fore
SplineSet
730 347 m 0
 730 129 598 -10 388 -10 c 0
 175 -10 47 128 47 347 c 0
 47 457 77 543 137 605 c 0
 198 667 282 698 389 698 c 0
 600 698 730 567 730 347 c 0
635 347 m 0
 635 519 545 622 389 622 c 0
 232 622 142 522 142 347 c 0
 142 261 164 193 207 142 c 0
 250 91 311 66 388 66 c 0
 547 66 635 168 635 347 c 0
359 747 m 1
 303 747 l 1
 303 757 l 1
 409 867 l 1
 510 867 l 1
 510 853 l 1
 359 747 l 1
EndSplineSet
EndChar

StartChar: Ocircumflex
Encoding: 212 212 148
Width: 778
GlyphClass: 2
Flags: MW
HStem: -10 76<349.5 467.5 349.5 493> 622 76<335.5 467> 747 127<229 443 229 443 343 552 343 501>
VStem: 47 95<304 402> 635 95<257.5 433>
LayerCount: 2
Fore
SplineSet
730 347 m 0
 730 129 598 -10 388 -10 c 0
 175 -10 47 128 47 347 c 0
 47 457 77 543 137 605 c 0
 198 667 282 698 389 698 c 0
 600 698 730 567 730 347 c 0
635 347 m 0
 635 519 545 622 389 622 c 0
 232 622 142 522 142 347 c 0
 142 261 164 193 207 142 c 0
 250 91 311 66 388 66 c 0
 547 66 635 168 635 347 c 0
443 874 m 1
 552 757 l 1
 552 747 l 1
 501 747 l 1
 394 815 l 1
 393 815 l 1
 280 747 l 1
 229 747 l 1
 229 757 l 1
 343 874 l 1
 443 874 l 1
EndSplineSet
EndChar

StartChar: Otilde
Encoding: 213 213 149
Width: 778
GlyphClass: 2
Flags: MW
HStem: -10 76<349.5 467.5 349.5 493> 622 76<335.5 467> 747 73<436.5 472.5 436.5 487> 805 73<307 330>
VStem: 47 95<304 402> 208 44<747 747> 513 45<878 878> 635 95<257.5 433>
LayerCount: 2
Fore
SplineSet
730 347 m 0xeb
 730 129 598 -10 388 -10 c 0
 175 -10 47 128 47 347 c 0
 47 457 77 543 137 605 c 0
 198 667 282 698 389 698 c 0
 600 698 730 567 730 347 c 0xeb
635 347 m 0
 635 519 545 622 389 622 c 0
 232 622 142 522 142 347 c 0
 142 261 164 193 207 142 c 0
 250 91 311 66 388 66 c 0
 547 66 635 168 635 347 c 0
459 747 m 0
 405 747 350 805 310 805 c 0
 274 805 259 784 252 747 c 1
 208 747 l 1xdf
 219 843 245 873 307 878 c 1
 366 878 417 820 456 820 c 0
 489 820 508 839 513 878 c 1
 558 878 l 1
 547 782 515 747 459 747 c 0
EndSplineSet
EndChar

StartChar: Odieresis
Encoding: 214 214 150
Width: 778
GlyphClass: 2
Flags: MW
HStem: -10 76<349.5 467.5 349.5 493> 622 76<335.5 467> 747 90<252 333 252 333 444 524>
VStem: 47 95<304 402> 252 81<747 837> 444 80<747 837> 635 95<257.5 433>
LayerCount: 2
Fore
SplineSet
730 347 m 0
 730 129 598 -10 388 -10 c 0
 175 -10 47 128 47 347 c 0
 47 457 77 543 137 605 c 0
 198 667 282 698 389 698 c 0
 600 698 730 567 730 347 c 0
635 347 m 0
 635 519 545 622 389 622 c 0
 232 622 142 522 142 347 c 0
 142 261 164 193 207 142 c 0
 250 91 311 66 388 66 c 0
 547 66 635 168 635 347 c 0
524 747 m 1
 444 747 l 1
 444 837 l 1
 524 837 l 1
 524 747 l 1
333 747 m 1
 252 747 l 1
 252 837 l 1
 333 837 l 1
 333 747 l 1
EndSplineSet
EndChar

StartChar: multiply
Encoding: 215 215 151
Width: 584
GlyphClass: 2
Flags: MW
HStem: 110 446<119 121>
VStem: 69 446<161 162>
LayerCount: 2
Fore
SplineSet
119 110 m 1
 69 161 l 1
 242 334 l 1
 70 506 l 1
 121 556 l 1
 292 384 l 1
 463 555 l 1
 514 504 l 1
 343 334 l 1
 515 162 l 1
 465 111 l 1
 293 283 l 1
 119 110 l 1
EndSplineSet
EndChar

StartChar: Oslash
Encoding: 216 216 152
Width: 778
GlyphClass: 2
Flags: MW
HStem: -10 76<358.5 467.5 358.5 493> 622 76<335.5 418>
VStem: 47 95<309.5 402> 635 95<257.5 383.5>
LayerCount: 2
Fore
SplineSet
730 347 m 0
 730 129 598 -10 388 -10 c 0
 308 -10 241 8 186 45 c 1
 127 -26 l 1
 35 -26 l 1
 132 92 l 1
 75 155 47 240 47 347 c 0
 47 457 77 543 137 605 c 0
 198 667 282 698 389 698 c 0
 470 698 537 680 591 645 c 1
 650 716 l 1
 744 716 l 1
 646 598 l 1
 702 536 730 452 730 347 c 0
635 347 m 0
 635 420 619 480 587 527 c 1
 241 110 l 1
 280 81 329 66 388 66 c 0
 547 66 635 168 635 347 c 0
142 347 m 0
 142 272 158 211 191 163 c 1
 537 579 l 1
 496 608 447 622 389 622 c 0
 232 622 142 522 142 347 c 0
EndSplineSet
EndChar

StartChar: Ugrave
Encoding: 217 217 153
Width: 722
GlyphClass: 2
Flags: MW
HStem: -10 76<296 418 296 444.5> 668 20G<77 170 170 170 552 645 645 645> 853 14<246 347>
VStem: 77 93<250 258 258 688> 552 93<264 688>
LayerCount: 2
Fore
SplineSet
357 -10 m 0
 187 -10 77 87 77 250 c 2
 77 688 l 1
 170 688 l 1
 170 258 l 2
 170 133 236 66 356 66 c 0
 480 66 552 135 552 264 c 2
 552 688 l 1
 645 688 l 1
 645 259 l 2
 645 90 532 -10 357 -10 c 0
453 747 m 1
 397 747 l 1
 246 853 l 1
 246 867 l 1
 347 867 l 1
 453 757 l 1
 453 747 l 1
EndSplineSet
EndChar

StartChar: Uacute
Encoding: 218 218 154
Width: 722
GlyphClass: 2
Flags: MW
HStem: -10 76<296 418 296 444.5> 668 20G<77 170 170 170 552 645 645 645> 853 14<382 483>
VStem: 77 93<250 258 258 688> 552 93<264 688>
LayerCount: 2
Fore
SplineSet
357 -10 m 0
 187 -10 77 87 77 250 c 2
 77 688 l 1
 170 688 l 1
 170 258 l 2
 170 133 236 66 356 66 c 0
 480 66 552 135 552 264 c 2
 552 688 l 1
 645 688 l 1
 645 259 l 2
 645 90 532 -10 357 -10 c 0
332 747 m 1
 276 747 l 1
 276 757 l 1
 382 867 l 1
 483 867 l 1
 483 853 l 1
 332 747 l 1
EndSplineSet
EndChar

StartChar: Ucircumflex
Encoding: 219 219 155
Width: 722
GlyphClass: 2
Flags: MW
HStem: -10 76<296 418 296 444.5> 668 20G<77 170 170 170 552 645 645 645> 747 127<199 413 199 413 313 522 313 471>
VStem: 77 93<250 258 258 688> 552 93<264 688>
LayerCount: 2
Fore
SplineSet
357 -10 m 0
 187 -10 77 87 77 250 c 2
 77 688 l 1
 170 688 l 1
 170 258 l 2
 170 133 236 66 356 66 c 0
 480 66 552 135 552 264 c 2
 552 688 l 1
 645 688 l 1
 645 259 l 2
 645 90 532 -10 357 -10 c 0
413 874 m 1
 522 757 l 1
 522 747 l 1
 471 747 l 1
 364 815 l 1
 363 815 l 1
 250 747 l 1
 199 747 l 1
 199 757 l 1
 313 874 l 1
 413 874 l 1
EndSplineSet
EndChar

StartChar: Udieresis
Encoding: 220 220 156
Width: 722
GlyphClass: 2
Flags: MW
HStem: -10 76<296 418 296 444.5> 668 20G<77 170 170 170 552 645 645 645> 747 90<224 305 224 305 417 496>
VStem: 77 93<250 258 258 688> 224 81<747 837> 417 79<747 837> 552 93<264 688>
LayerCount: 2
Fore
SplineSet
357 -10 m 0
 187 -10 77 87 77 250 c 2
 77 688 l 1
 170 688 l 1
 170 258 l 2
 170 133 236 66 356 66 c 0
 480 66 552 135 552 264 c 2
 552 688 l 1
 645 688 l 1
 645 259 l 2
 645 90 532 -10 357 -10 c 0
496 747 m 1
 417 747 l 1
 417 837 l 1
 496 837 l 1
 496 747 l 1
305 747 m 1
 224 747 l 1
 224 837 l 1
 305 837 l 1
 305 747 l 1
EndSplineSet
EndChar

StartChar: Yacute
Encoding: 221 221 157
Width: 667
GlyphClass: 2
Flags: MW
HStem: 0 21G<287 379 287 287> 668 20G<22 125 125 125 542 645 645 645> 853 14<368 469>
VStem: 287 92<0 285 0 285>
LayerCount: 2
Fore
SplineSet
645 688 m 1
 379 285 l 1
 379 0 l 1
 287 0 l 1
 287 285 l 1
 22 688 l 1
 125 688 l 1
 334 360 l 1
 542 688 l 1
 645 688 l 1
317 747 m 1
 262 747 l 1
 262 757 l 1
 368 867 l 1
 469 867 l 1
 469 853 l 1
 317 747 l 1
EndSplineSet
EndChar

StartChar: Thorn
Encoding: 222 222 158
Width: 667
GlyphClass: 2
Flags: MW
HStem: 0 21G<82 175 82 82> 145 69<175 364 364 377 175 364> 495 70<175 360 175 372> 495 193<82 360 82 175>
VStem: 82 93<0 145 0 214 214 495 565 688> 521 93<312.5 400.5>
LayerCount: 2
Fore
SplineSet
614 359 m 0xec
 614 233 526 145 377 145 c 2
 175 145 l 1
 175 0 l 1
 82 0 l 1
 82 688 l 1
 175 688 l 1xdc
 175 565 l 1
 372 565 l 2
 527 565 614 490 614 359 c 0xec
521 357 m 0
 521 444 467 495 360 495 c 2
 175 495 l 1
 175 214 l 1
 364 214 l 2
 464 214 521 268 521 357 c 0
EndSplineSet
EndChar

StartChar: germandbls
Encoding: 223 223 159
Width: 611
GlyphClass: 2
Flags: MW
HStem: -10 71<370.5 423 370.5 450.5> 0 21G<69 157 69 69> 656 69<249 333>
VStem: 69 88<0 499 0 501 0 575> 308 82<368.5 390.5 368.5 403> 416 84<556.5 597.5> 486 84<115.5 161.5>
LayerCount: 2
Fore
SplineSet
570 144 m 0xba
 570 47 506 -10 395 -10 c 0
 340 -10 294 -2 257 14 c 1
 256 94 l 1
 289 75 348 61 393 61 c 0
 453 61 486 90 486 141 c 0
 486 182 460 213 397 250 c 0
 337 286 308 327 308 383 c 0xba
 308 423 326 455 362 484 c 0
 399 515 416 540 416 573 c 0
 416 622 369 656 297 656 c 0
 201 656 157 604 157 499 c 2
 157 0 l 1
 69 0 l 1
 69 501 l 2
 69 649 146 725 297 725 c 0
 421 725 500 668 500 580 c 0
 500 533 482 493 445 459 c 0x7c
 419 436 403 420 398 412 c 0
 393 404 390 395 390 386 c 0
 390 351 435 326 480 295 c 0
 540 255 570 205 570 144 c 0xba
EndSplineSet
EndChar

StartChar: agrave
Encoding: 224 224 160
Width: 556
GlyphClass: 2
Flags: MW
HStem: -10 66<193.5 222 193.5 244.5> -5 59<455.5 531.5> 260 61 471 67<236.5 314.5> 722 14<144 245>
VStem: 42 91<117.5 146 117.5 201.5> 389 89<101 133 217 261 261 261 322 351 351 360>
LayerCount: 2
Fore
SplineSet
202 -10 m 0xbe
 97 -10 42 50 42 147 c 0
 42 256 110 316 271 320 c 2
 389 322 l 1
 389 351 l 2
 389 438 353 471 276 471 c 0
 197 471 165 446 158 387 c 1
 66 396 l 1
 81 491 151 538 278 538 c 0
 410 538 478 476 478 360 c 2
 478 133 l 2
 478 81 490 54 527 54 c 0
 536 54 545 55 556 58 c 1
 556 3 l 1
 534 -2 511 -5 488 -5 c 0x7e
 423 -5 396 28 392 101 c 1
 389 101 l 1
 344 21 287 -10 202 -10 c 0xbe
222 56 m 0
 319 52 390 136 389 217 c 2
 389 261 l 1
 293 259 l 2
 172 256 138 226 133 146 c 0
 133 89 165 56 222 56 c 0
351 586 m 1
 305 586 l 1
 144 722 l 1
 144 736 l 1
 245 736 l 1
 351 596 l 1
 351 586 l 1
EndSplineSet
EndChar

StartChar: aacute
Encoding: 225 225 161
Width: 556
GlyphClass: 2
Flags: MW
HStem: -10 66<193.5 222 193.5 244.5> -5 59<455.5 531.5> 260 61 471 67<236.5 314.5> 722 14<307 408>
VStem: 42 91<117.5 146 117.5 201.5> 389 89<101 133 217 261 261 261 322 351 351 360>
LayerCount: 2
Fore
SplineSet
202 -10 m 0xbe
 97 -10 42 50 42 147 c 0
 42 256 110 316 271 320 c 2
 389 322 l 1
 389 351 l 2
 389 438 353 471 276 471 c 0
 197 471 165 446 158 387 c 1
 66 396 l 1
 81 491 151 538 278 538 c 0
 410 538 478 476 478 360 c 2
 478 133 l 2
 478 81 490 54 527 54 c 0
 536 54 545 55 556 58 c 1
 556 3 l 1
 534 -2 511 -5 488 -5 c 0x7e
 423 -5 396 28 392 101 c 1
 389 101 l 1
 344 21 287 -10 202 -10 c 0xbe
222 56 m 0
 319 52 390 136 389 217 c 2
 389 261 l 1
 293 259 l 2
 172 256 138 226 133 146 c 0
 133 89 165 56 222 56 c 0
247 586 m 1
 201 586 l 1
 201 596 l 1
 307 736 l 1
 408 736 l 1
 408 722 l 1
 247 586 l 1
EndSplineSet
EndChar

StartChar: acircumflex
Encoding: 226 226 162
Width: 556
GlyphClass: 2
Flags: MW
HStem: -10 66<193.5 222 193.5 244.5> -5 59<455.5 531.5> 260 61 471 67<236.5 314.5> 586 142<106 320 106 320 221 430 221 378>
VStem: 42 91<117.5 146 117.5 201.5> 389 89<101 133 217 261 261 261 322 351 351 360>
LayerCount: 2
Fore
SplineSet
202 -10 m 0xb6
 97 -10 42 50 42 147 c 0
 42 256 110 316 271 320 c 2
 389 322 l 1
 389 351 l 2
 389 438 353 471 276 471 c 0
 197 471 165 446 158 387 c 1
 66 396 l 1
 81 491 151 538 278 538 c 0
 410 538 478 476 478 360 c 2
 478 133 l 2
 478 81 490 54 527 54 c 0
 536 54 545 55 556 58 c 1
 556 3 l 1
 534 -2 511 -5 488 -5 c 0x76
 423 -5 396 28 392 101 c 1
 389 101 l 1
 344 21 287 -10 202 -10 c 0xb6
222 56 m 0
 319 52 390 136 389 217 c 2
 389 261 l 1
 293 259 l 2
 172 256 138 226 133 146 c 0
 133 89 165 56 222 56 c 0
320 728 m 1xbe
 430 596 l 1
 430 586 l 1
 378 586 l 1
 271 669 l 1
 157 586 l 1
 106 586 l 1
 106 596 l 1
 221 728 l 1
 320 728 l 1xbe
EndSplineSet
EndChar

StartChar: atilde
Encoding: 227 227 163
Width: 556
GlyphClass: 2
Flags: MW
HStem: -10 66<193.5 222 193.5 244.5> -5 59<455.5 531.5> 260 61 471 67<236.5 314.5> 586 73<337.5 372.5 337.5 387.5> 645 72<208 230.5>
VStem: 42 91<117.5 146 117.5 201.5> 389 89<101 133 217 261 261 261 322 351 351 360> 414 44<717 717>
LayerCount: 2
Fore
SplineSet
202 -10 m 0xbb
 97 -10 42 50 42 147 c 0
 42 256 110 316 271 320 c 2
 389 322 l 1
 389 351 l 2
 389 438 353 471 276 471 c 0
 197 471 165 446 158 387 c 1
 66 396 l 1
 81 491 151 538 278 538 c 0
 410 538 478 476 478 360 c 2
 478 133 l 2
 478 81 490 54 527 54 c 0
 536 54 545 55 556 58 c 1
 556 3 l 1
 534 -2 511 -5 488 -5 c 0x7b
 423 -5 396 28 392 101 c 1
 389 101 l 1
 344 21 287 -10 202 -10 c 0xbb
222 56 m 0
 319 52 390 136 389 217 c 2
 389 261 l 1
 293 259 l 2
 172 256 138 226 133 146 c 0
 133 89 165 56 222 56 c 0
360 586 m 0xba80
 303 586 251 645 210 645 c 0
 175 645 158 623 153 586 c 1
 108 586 l 1xb7
 120 683 145 712 208 717 c 1
 264 717 319 659 356 659 c 0
 389 659 408 678 414 717 c 1
 458 717 l 1
 447 621 415 586 360 586 c 0xba80
EndSplineSet
EndChar

StartChar: adieresis
Encoding: 228 228 164
Width: 556
GlyphClass: 2
Flags: MW
HStem: -10 66<193.5 222 193.5 244.5> -5 59<455.5 531.5> 260 61 471 67<236.5 314.5> 595 90<137 217 137 217 329 409>
VStem: 42 91<117.5 146 117.5 201.5> 137 80<595 685> 329 80<595 685> 389 89<101 133 217 261 261 261 322 351 351 360>
LayerCount: 2
Fore
SplineSet
202 -10 m 0xbc80
 97 -10 42 50 42 147 c 0
 42 256 110 316 271 320 c 2
 389 322 l 1
 389 351 l 2
 389 438 353 471 276 471 c 0
 197 471 165 446 158 387 c 1
 66 396 l 1
 81 491 151 538 278 538 c 0
 410 538 478 476 478 360 c 2
 478 133 l 2
 478 81 490 54 527 54 c 0
 536 54 545 55 556 58 c 1
 556 3 l 1
 534 -2 511 -5 488 -5 c 0x7c80
 423 -5 396 28 392 101 c 1
 389 101 l 1
 344 21 287 -10 202 -10 c 0xbc80
222 56 m 0
 319 52 390 136 389 217 c 2
 389 261 l 1
 293 259 l 2
 172 256 138 226 133 146 c 0
 133 89 165 56 222 56 c 0
409 595 m 1xbb
 329 595 l 1
 329 685 l 1
 409 685 l 1
 409 595 l 1xbb
217 595 m 1
 137 595 l 1
 137 685 l 1
 217 685 l 1
 217 595 l 1
EndSplineSet
EndChar

StartChar: aring
Encoding: 229 229 165
Width: 556
GlyphClass: 2
Flags: MW
HStem: -10 66<193.5 222 193.5 244.5> -5 59<455.5 531.5> 260 61 471 67<236.5 314.5> 570 52<255.5 288.5> 754 52<255.5 288 255.5 290>
VStem: 42 91<117.5 146 117.5 201.5> 154 52<672 704.5> 337 53<672 704.5 672 706.5> 389 89<101 133 217 261 261 261 322 351 351 360>
LayerCount: 2
Fore
SplineSet
202 -10 m 0xbe40
 97 -10 42 50 42 147 c 0
 42 256 110 316 271 320 c 2
 389 322 l 1
 389 351 l 2
 389 438 353 471 276 471 c 0
 197 471 165 446 158 387 c 1
 66 396 l 1
 81 491 151 538 278 538 c 0
 410 538 478 476 478 360 c 2
 478 133 l 2
 478 81 490 54 527 54 c 0
 536 54 545 55 556 58 c 1
 556 3 l 1
 534 -2 511 -5 488 -5 c 0x7e40
 423 -5 396 28 392 101 c 1
 389 101 l 1
 344 21 287 -10 202 -10 c 0xbe40
222 56 m 0
 319 52 390 136 389 217 c 2
 389 261 l 1
 293 259 l 2
 172 256 138 226 133 146 c 0
 133 89 165 56 222 56 c 0
390 688 m 0xbf80
 390 656 378 628 355 605 c 0
 332 582 305 570 272 570 c 0
 239 570 211 582 188 605 c 0
 165 628 154 656 154 688 c 0
 154 721 165 749 188 772 c 0
 211 795 239 806 272 806 c 0
 304 806 332 794 355 771 c 0
 378 748 390 721 390 688 c 0xbf80
337 688 m 0
 337 725 308 754 272 754 c 0
 235 754 206 725 206 688 c 0
 206 653 233 622 272 622 c 0
 309 622 337 652 337 688 c 0
EndSplineSet
EndChar

StartChar: ae
Encoding: 230 230 166
Width: 889
GlyphClass: 2
Flags: MW
HStem: -10 66<186.5 244 569.5 653> 246 67<474 754 474 845 473 754> 260 61 473 65<574.5 654>
VStem: 32 91<118 182 118 203.5> 384 89<237 246 237 261 237 261 237 351> 754 91<246 313>
LayerCount: 2
Fore
SplineSet
845 246 m 1xde
 473 246 l 1
 473 237 l 2
 474 120 524 56 615 56 c 0
 691 56 737 90 753 137 c 1
 831 115 l 1
 799 32 727 -10 615 -10 c 0
 510 -10 442 32 409 116 c 1
 357 24 292 -10 196 -10 c 0
 88 -10 32 50 32 147 c 0
 32 260 108 317 267 320 c 2
 384 322 l 1xbe
 384 351 l 2
 384 439 350 471 271 471 c 0
 188 471 156 447 147 387 c 1
 56 396 l 1
 71 491 143 538 272 538 c 0
 354 538 411 515 443 470 c 1
 481 515 537 538 612 538 c 0
 767 538 845 444 845 257 c 2
 845 246 l 1xde
384 217 m 2
 384 261 l 1
 289 259 l 2
 163 255 123 218 123 146 c 0
 123 90 156 56 217 56 c 0
 315 56 384 131 384 217 c 2
474 313 m 1xde
 754 313 l 1
 745 424 698 473 610 473 c 0
 527 473 478 416 474 313 c 1xde
EndSplineSet
EndChar

StartChar: ccedilla
Encoding: 231 231 167
Width: 500
GlyphClass: 2
Flags: MW
HStem: -212 47<225 255 225 277.5> -88 39<231 275> -10 10<242 294 242 326> -10 70<223.5 298.5 223.5 326> 469 69<220.5 301>
VStem: 42 92<196.5 339.5 196.5 353.5> 303 64<-138.5 -112.5>
LayerCount: 2
Fore
SplineSet
134 267 m 0xde
 134 126 179 60 268 60 c 0xde
 329 60 374 92 385 163 c 1
 474 157 l 1
 459 56 382 -10 270 -10 c 0xee
 122 -10 42 85 42 265 c 0
 42 442 124 538 269 538 c 0
 377 538 452 479 471 380 c 1
 380 374 l 1
 372 431 335 469 267 469 c 0
 174 469 134 412 134 267 c 0xde
367 -124 m 0xee
 367 -183 322 -212 233 -212 c 0
 214 -212 200 -211 189 -210 c 1
 189 -162 l 1
 205 -164 219 -165 231 -165 c 0
 279 -165 303 -152 303 -125 c 0
 303 -100 281 -88 238 -88 c 0
 224 -88 215 -88 210 -89 c 1
 242 0 l 1
 294 0 l 1
 275 -49 l 1
 336 -50 367 -79 367 -124 c 0xee
EndSplineSet
EndChar

StartChar: egrave
Encoding: 232 232 168
Width: 556
GlyphClass: 2
Flags: MW
HStem: -10 66<234 320 234 338> 246 67<136 421 136 512 135 421> 473 65<234.5 321> 722 14<160 261>
VStem: 42 93<185.5 246 185.5 354.5> 421 91<246 313>
LayerCount: 2
Fore
SplineSet
512 246 m 1
 135 246 l 1
 135 125 186 56 282 56 c 0
 358 56 404 90 420 137 c 1
 498 115 l 1
 466 32 394 -10 282 -10 c 0
 126 -10 42 84 42 268 c 0
 42 441 127 538 279 538 c 0
 434 538 512 444 512 257 c 2
 512 246 l 1
136 313 m 1
 421 313 l 1
 412 424 365 473 277 473 c 0
 192 473 140 413 136 313 c 1
367 586 m 1
 321 586 l 1
 160 722 l 1
 160 736 l 1
 261 736 l 1
 367 596 l 1
 367 586 l 1
EndSplineSet
EndChar

StartChar: eacute
Encoding: 233 233 169
Width: 556
GlyphClass: 2
Flags: MW
HStem: -10 66<234 320 234 338> 246 67<136 421 136 512 135 421> 473 65<234.5 321> 722 14<321 422>
VStem: 42 93<185.5 246 185.5 354.5> 421 91<246 313>
LayerCount: 2
Fore
SplineSet
512 246 m 1
 135 246 l 1
 135 125 186 56 282 56 c 0
 358 56 404 90 420 137 c 1
 498 115 l 1
 466 32 394 -10 282 -10 c 0
 126 -10 42 84 42 268 c 0
 42 441 127 538 279 538 c 0
 434 538 512 444 512 257 c 2
 512 246 l 1
136 313 m 1
 421 313 l 1
 412 424 365 473 277 473 c 0
 192 473 140 413 136 313 c 1
261 586 m 1
 215 586 l 1
 215 596 l 1
 321 736 l 1
 422 736 l 1
 422 722 l 1
 261 586 l 1
EndSplineSet
EndChar

StartChar: ecircumflex
Encoding: 234 234 170
Width: 556
GlyphClass: 2
Flags: MW
HStem: -10 66<234 320 234 338> 246 67<136 421 136 512 135 421> 473 65<234.5 321> 586 142<120 333 120 333 234 443 234 392>
VStem: 42 93<185.5 246 185.5 354.5> 421 91<246 313>
LayerCount: 2
Fore
SplineSet
512 246 m 1
 135 246 l 1
 135 125 186 56 282 56 c 0
 358 56 404 90 420 137 c 1
 498 115 l 1
 466 32 394 -10 282 -10 c 0
 126 -10 42 84 42 268 c 0
 42 441 127 538 279 538 c 0
 434 538 512 444 512 257 c 2
 512 246 l 1
136 313 m 1
 421 313 l 1
 412 424 365 473 277 473 c 0
 192 473 140 413 136 313 c 1
333 728 m 1
 443 596 l 1
 443 586 l 1
 392 586 l 1
 285 669 l 1
 284 669 l 1
 170 586 l 1
 120 586 l 1
 120 596 l 1
 234 728 l 1
 333 728 l 1
EndSplineSet
EndChar

StartChar: edieresis
Encoding: 235 235 171
Width: 556
GlyphClass: 2
Flags: MW
HStem: -10 66<234 320 234 338> 246 67<136 421 136 512 135 421> 473 65<234.5 321> 595 90<143 224 143 224 335 415>
VStem: 42 93<185.5 246 185.5 354.5> 143 81<595 685> 335 80<595 685> 421 91<246 313>
LayerCount: 2
Fore
SplineSet
512 246 m 1
 135 246 l 1
 135 125 186 56 282 56 c 0
 358 56 404 90 420 137 c 1
 498 115 l 1
 466 32 394 -10 282 -10 c 0
 126 -10 42 84 42 268 c 0
 42 441 127 538 279 538 c 0
 434 538 512 444 512 257 c 2
 512 246 l 1
136 313 m 1
 421 313 l 1
 412 424 365 473 277 473 c 0
 192 473 140 413 136 313 c 1
415 595 m 1
 335 595 l 1
 335 685 l 1
 415 685 l 1
 415 595 l 1
224 595 m 1
 143 595 l 1
 143 685 l 1
 224 685 l 1
 224 595 l 1
EndSplineSet
EndChar

StartChar: igrave
Encoding: 236 236 172
Width: 278
GlyphClass: 2
Flags: MW
HStem: 0 21G<95 183 95 95> 508 20G<95 183 183 183> 722 14<5 106>
VStem: 95 88<0 528>
LayerCount: 2
Fore
SplineSet
183 0 m 1
 95 0 l 1
 95 528 l 1
 183 528 l 1
 183 0 l 1
212 586 m 1
 166 586 l 1
 5 722 l 1
 5 736 l 1
 106 736 l 1
 212 596 l 1
 212 586 l 1
EndSplineSet
EndChar

StartChar: iacute
Encoding: 237 237 173
Width: 278
GlyphClass: 2
Flags: MW
HStem: 0 21G<95 183 95 95> 508 20G<95 183 183 183> 722 14<172 273>
VStem: 95 88<0 528>
LayerCount: 2
Fore
SplineSet
183 0 m 1
 95 0 l 1
 95 528 l 1
 183 528 l 1
 183 0 l 1
112 586 m 1
 66 586 l 1
 66 596 l 1
 172 736 l 1
 273 736 l 1
 273 722 l 1
 112 586 l 1
EndSplineSet
EndChar

StartChar: icircumflex
Encoding: 238 238 174
Width: 278
GlyphClass: 2
Flags: MW
HStem: 0 21G<95 183 95 95> 508 20G<95 183 183 183> 586 142<-22 192 -22 192 92 301 92 250>
VStem: 95 88<0 528>
LayerCount: 2
Fore
SplineSet
183 0 m 1
 95 0 l 1
 95 528 l 1
 183 528 l 1
 183 0 l 1
192 728 m 1
 301 596 l 1
 301 586 l 1
 250 586 l 1
 143 669 l 1
 142 669 l 1
 29 586 l 1
 -22 586 l 1
 -22 596 l 1
 92 728 l 1
 192 728 l 1
EndSplineSet
EndChar

StartChar: idieresis
Encoding: 239 239 175
Width: 278
GlyphClass: 2
Flags: MW
HStem: 0 21G<95 183 95 95> 508 20G<95 183 183 183> 595 90<4 84 4 84 196 276>
VStem: 4 80<595 685> 95 88<0 528> 196 80<595 685>
LayerCount: 2
Fore
SplineSet
183 0 m 1
 95 0 l 1
 95 528 l 1
 183 528 l 1
 183 0 l 1
276 595 m 1
 196 595 l 1
 196 685 l 1
 276 685 l 1
 276 595 l 1
84 595 m 1
 4 595 l 1
 4 685 l 1
 84 685 l 1
 84 595 l 1
EndSplineSet
EndChar

StartChar: eth
Encoding: 240 240 176
Width: 556
GlyphClass: 2
Flags: MW
HStem: -10 65<228.5 327.5 228.5 356.5> 413 65<230.5 302.5 202 332.5>
VStem: 42 92<173 297 173 314.5> 427 92<172.5 249 249 252 164.5 297.5>
LayerCount: 2
Fore
SplineSet
276 -10 m 0
 125 -10 42 76 42 235 c 0
 42 394 124 478 280 478 c 0
 325 478 362 468 393 449 c 1
 357 520 319 574 278 611 c 1
 131 546 l 1
 131 602 l 1
 238 647 l 1
 203 676 163 702 120 725 c 1
 222 725 l 1
 248 713 276 696 305 675 c 1
 454 739 l 1
 454 685 l 1
 351 640 l 1
 462 537 519 403 519 252 c 2
 519 249 l 2
 519 80 437 -10 276 -10 c 0
427 235 m 0
 427 360 383 413 282 413 c 0
 179 413 134 359 134 235 c 0
 134 111 182 55 275 55 c 0
 380 55 427 110 427 235 c 0
EndSplineSet
EndChar

StartChar: ntilde
Encoding: 241 241 177
Width: 556
GlyphClass: 2
Flags: MW
HStem: 0 21G<71 159 71 71 405 493 405 405> 470 68<286.5 337.5> 508 20G<68 151 151 151> 586 73<337.5 372.5 337.5 387.5> 645 72<208 230.5>
VStem: 71 88<0 306 0 416> 405 88<0 335 335 352> 414 44<717 717>
LayerCount: 2
Fore
SplineSet
493 0 m 1xd6
 405 0 l 1
 405 335 l 2
 405 438 379 470 296 470 c 0xd6
 211 470 159 409 159 306 c 2
 159 0 l 1
 71 0 l 1
 71 416 l 2
 71 477 70 515 68 528 c 1
 151 528 l 2
 152 527 152 522 152 515 c 0xb6
 153 500 154 490 155 438 c 1
 157 438 l 1
 197 511 247 538 326 538 c 0
 442 538 493 485 493 352 c 2
 493 0 l 1xd6
360 586 m 0xd5
 303 586 251 645 210 645 c 0
 175 645 158 623 153 586 c 1
 108 586 l 1xce
 120 683 145 712 208 717 c 1
 264 717 319 659 356 659 c 0
 389 659 408 678 414 717 c 1
 458 717 l 1
 447 621 415 586 360 586 c 0xd5
EndSplineSet
EndChar

StartChar: ograve
Encoding: 242 242 178
Width: 556
GlyphClass: 2
Flags: MW
HStem: -10 65<226.5 327.5 226.5 353.5> 473 65<228.5 331.5> 722 14<161 262>
VStem: 42 92<195 336.5 195 356> 422 92<193 337.5>
LayerCount: 2
Fore
SplineSet
514 265 m 0
 514 80 431 -10 276 -10 c 0
 121 -10 42 86 42 265 c 0
 42 447 121 538 279 538 c 0
 440 538 514 452 514 265 c 0
422 265 m 0
 422 410 383 473 280 473 c 0
 177 473 134 408 134 265 c 0
 134 125 178 55 275 55 c 0
 380 55 422 121 422 265 c 0
368 586 m 1
 322 586 l 1
 161 722 l 1
 161 736 l 1
 262 736 l 1
 368 596 l 1
 368 586 l 1
EndSplineSet
EndChar

StartChar: oacute
Encoding: 243 243 179
Width: 556
GlyphClass: 2
Flags: MW
HStem: -10 65<226.5 327.5 226.5 353.5> 473 65<228.5 331.5> 722 14<316 417>
VStem: 42 92<195 336.5 195 356> 422 92<193 337.5>
LayerCount: 2
Fore
SplineSet
514 265 m 0
 514 80 431 -10 276 -10 c 0
 121 -10 42 86 42 265 c 0
 42 447 121 538 279 538 c 0
 440 538 514 452 514 265 c 0
422 265 m 0
 422 410 383 473 280 473 c 0
 177 473 134 408 134 265 c 0
 134 125 178 55 275 55 c 0
 380 55 422 121 422 265 c 0
256 586 m 1
 210 586 l 1
 210 596 l 1
 316 736 l 1
 417 736 l 1
 417 722 l 1
 256 586 l 1
EndSplineSet
EndChar

StartChar: ocircumflex
Encoding: 244 244 180
Width: 556
GlyphClass: 2
Flags: MW
HStem: -10 65<226.5 327.5 226.5 353.5> 473 65<228.5 331.5> 586 142<117 331 117 331 231 440 231 389>
VStem: 42 92<195 336.5 195 356> 422 92<193 337.5>
LayerCount: 2
Fore
SplineSet
514 265 m 0
 514 80 431 -10 276 -10 c 0
 121 -10 42 86 42 265 c 0
 42 447 121 538 279 538 c 0
 440 538 514 452 514 265 c 0
422 265 m 0
 422 410 383 473 280 473 c 0
 177 473 134 408 134 265 c 0
 134 125 178 55 275 55 c 0
 380 55 422 121 422 265 c 0
331 728 m 1
 440 596 l 1
 440 586 l 1
 389 586 l 1
 282 669 l 1
 281 669 l 1
 168 586 l 1
 117 586 l 1
 117 596 l 1
 231 728 l 1
 331 728 l 1
EndSplineSet
EndChar

StartChar: otilde
Encoding: 245 245 181
Width: 556
GlyphClass: 2
Flags: MW
HStem: -10 65<226.5 327.5 226.5 353.5> 473 65<228.5 331.5> 586 73<338 373.5 338 388.5> 645 72<208 231.5>
VStem: 42 92<195 336.5 195 356> 415 44<717 717> 422 92<193 337.5>
LayerCount: 2
Fore
SplineSet
514 265 m 0xea
 514 80 431 -10 276 -10 c 0
 121 -10 42 86 42 265 c 0
 42 447 121 538 279 538 c 0
 440 538 514 452 514 265 c 0xea
422 265 m 0
 422 410 383 473 280 473 c 0
 177 473 134 408 134 265 c 0
 134 125 178 55 275 55 c 0
 380 55 422 121 422 265 c 0
361 586 m 0xec
 304 586 252 645 211 645 c 0
 176 645 159 623 154 586 c 1
 109 586 l 1xda
 121 683 147 712 208 717 c 1
 266 717 319 659 357 659 c 0
 390 659 409 678 415 717 c 1
 459 717 l 1
 448 621 416 586 361 586 c 0xec
EndSplineSet
EndChar

StartChar: odieresis
Encoding: 246 246 182
Width: 556
GlyphClass: 2
Flags: MW
HStem: -10 65<226.5 327.5 226.5 353.5> 473 65<228.5 331.5> 595 90<144 225 144 225 336 416>
VStem: 42 92<195 336.5 195 356> 144 81<595 685> 336 80<595 685> 422 92<193 337.5>
LayerCount: 2
Fore
SplineSet
514 265 m 0
 514 80 431 -10 276 -10 c 0
 121 -10 42 86 42 265 c 0
 42 447 121 538 279 538 c 0
 440 538 514 452 514 265 c 0
422 265 m 0
 422 410 383 473 280 473 c 0
 177 473 134 408 134 265 c 0
 134 125 178 55 275 55 c 0
 380 55 422 121 422 265 c 0
416 595 m 1
 336 595 l 1
 336 685 l 1
 416 685 l 1
 416 595 l 1
225 595 m 1
 144 595 l 1
 144 685 l 1
 225 685 l 1
 225 595 l 1
EndSplineSet
EndChar

StartChar: divide
Encoding: 247 247 183
Width: 549
GlyphClass: 2
Flags: MW
HStem: 109 89<233 315 233 315> 297 71<32 518 32 518> 468 89<233 315 233 315>
VStem: 233 82<109 198 468 557>
LayerCount: 2
Fore
SplineSet
315 468 m 1
 233 468 l 1
 233 557 l 1
 315 557 l 1
 315 468 l 1
518 297 m 1
 32 297 l 1
 32 368 l 1
 518 368 l 1
 518 297 l 1
315 109 m 1
 233 109 l 1
 233 198 l 1
 315 198 l 1
 315 109 l 1
EndSplineSet
EndChar

StartChar: oslash
Encoding: 248 248 184
Width: 611
GlyphClass: 2
Flags: MW
HStem: -10 65<281.5 356.5 281.5 382.5> 473 65<257.5 331.5>
VStem: 71 92<243.5 336.5 243.5 356> 451 92<193 286>
LayerCount: 2
Fore
SplineSet
543 265 m 0
 543 80 460 -10 305 -10 c 0
 241 -10 190 6 152 38 c 1
 103 -19 l 1
 21 -19 l 1
 111 86 l 1
 84 131 71 190 71 265 c 0
 71 447 150 538 308 538 c 0
 373 538 425 523 462 494 c 1
 506 545 l 1
 588 545 l 1
 503 447 l 1
 530 404 543 343 543 265 c 0
451 265 m 0
 451 307 447 343 439 373 c 1
 204 98 l 1
 226 69 259 55 304 55 c 0
 409 55 451 121 451 265 c 0
163 265 m 0
 163 222 167 187 175 160 c 1
 410 434 l 1
 388 460 354 473 309 473 c 0
 206 473 163 408 163 265 c 0
EndSplineSet
EndChar

StartChar: ugrave
Encoding: 249 249 185
Width: 556
GlyphClass: 2
Flags: MW
HStem: -10 68<223.5 274.5> 0 21G<410 493 410 410> 508 20G<68 156 156 156 402 490 490 490> 722 14<167 268>
VStem: 68 88<176 193 193 528> 402 88<222 528>
LayerCount: 2
Fore
SplineSet
68 528 m 1xbc
 156 528 l 1
 156 193 l 2
 156 90 182 58 265 58 c 0xbc
 350 58 402 119 402 222 c 2
 402 528 l 1
 490 528 l 1
 490 113 l 2
 490 52 491 14 493 0 c 1
 410 0 l 2
 409 1 409 6 408 13 c 0x7c
 408 28 407 39 406 90 c 1
 404 90 l 1
 364 18 314 -10 235 -10 c 0
 119 -10 68 44 68 176 c 2
 68 528 l 1xbc
374 586 m 1
 328 586 l 1
 167 722 l 1
 167 736 l 1
 268 736 l 1
 374 596 l 1
 374 586 l 1
EndSplineSet
EndChar

StartChar: uacute
Encoding: 250 250 186
Width: 556
GlyphClass: 2
Flags: MW
HStem: -10 68<223.5 274.5> 0 21G<410 493 410 410> 508 20G<68 156 156 156 402 490 490 490> 722 14<309 410>
VStem: 68 88<176 193 193 528> 402 88<222 528>
LayerCount: 2
Fore
SplineSet
68 528 m 1xbc
 156 528 l 1
 156 193 l 2
 156 90 182 58 265 58 c 0xbc
 350 58 402 119 402 222 c 2
 402 528 l 1
 490 528 l 1
 490 113 l 2
 490 52 491 14 493 0 c 1
 410 0 l 2
 409 1 409 6 408 13 c 0x7c
 408 28 407 39 406 90 c 1
 404 90 l 1
 364 18 314 -10 235 -10 c 0
 119 -10 68 44 68 176 c 2
 68 528 l 1xbc
249 586 m 1
 203 586 l 1
 203 596 l 1
 309 736 l 1
 410 736 l 1
 410 722 l 1
 249 586 l 1
EndSplineSet
EndChar

StartChar: ucircumflex
Encoding: 251 251 187
Width: 556
GlyphClass: 2
Flags: MW
HStem: -10 68<223.5 274.5> 0 21G<410 493 410 410> 508 20G<68 156 156 156 402 490 490 490> 586 142<117 331 117 331 231 440 231 389>
VStem: 68 88<176 193 193 528> 402 88<222 528>
LayerCount: 2
Fore
SplineSet
68 528 m 1xbc
 156 528 l 1
 156 193 l 2
 156 90 182 58 265 58 c 0xbc
 350 58 402 119 402 222 c 2
 402 528 l 1
 490 528 l 1
 490 113 l 2
 490 52 491 14 493 0 c 1
 410 0 l 2
 409 1 409 6 408 13 c 0x7c
 408 28 407 39 406 90 c 1
 404 90 l 1
 364 18 314 -10 235 -10 c 0
 119 -10 68 44 68 176 c 2
 68 528 l 1xbc
331 728 m 1
 440 596 l 1
 440 586 l 1
 389 586 l 1
 282 669 l 1
 281 669 l 1
 167 586 l 1
 117 586 l 1
 117 596 l 1
 231 728 l 1
 331 728 l 1
EndSplineSet
EndChar

StartChar: udieresis
Encoding: 252 252 188
Width: 556
GlyphClass: 2
Flags: MW
HStem: -10 68<223.5 274.5> 0 21G<410 493 410 410> 508 20G<68 156 156 156 402 490 490 490> 595 90<138 218 138 218 330 410>
VStem: 68 88<176 193 193 528> 138 80<595 685> 330 80<595 685> 402 88<222 528>
LayerCount: 2
Fore
SplineSet
68 528 m 1xb9
 156 528 l 1
 156 193 l 2
 156 90 182 58 265 58 c 0xb9
 350 58 402 119 402 222 c 2
 402 528 l 1
 490 528 l 1
 490 113 l 2
 490 52 491 14 493 0 c 1
 410 0 l 2
 409 1 409 6 408 13 c 0x79
 408 28 407 39 406 90 c 1
 404 90 l 1
 364 18 314 -10 235 -10 c 0
 119 -10 68 44 68 176 c 2
 68 528 l 1xb9
410 595 m 1xb6
 330 595 l 1
 330 685 l 1
 410 685 l 1
 410 595 l 1xb6
218 595 m 1
 138 595 l 1
 138 685 l 1
 218 685 l 1
 218 595 l 1
EndSplineSet
EndChar

StartChar: yacute
Encoding: 253 253 189
Width: 500
GlyphClass: 2
Flags: MW
HStem: -208 69<81 101.5 66.5 122.5> 508 20G<2 96 96 96 405 498 498 498> 722 14<279 380>
VStem: 2 496<528 528>
LayerCount: 2
Fore
SplineSet
93 -208 m 0
 69 -208 49 -206 33 -202 c 1
 33 -136 l 1
 45 -138 59 -139 74 -139 c 0
 129 -139 172 -99 204 -19 c 2
 212 2 l 1
 2 528 l 1
 96 528 l 1
 208 236 l 1
 213 219 l 2
 216 213 223 192 235 156 c 0
 248 120 254 100 255 96 c 2
 290 192 l 1
 405 528 l 1
 498 528 l 1
 295 0 l 2
 273 -56 253 -98 234 -125 c 0
 197 -181 152 -208 93 -208 c 0
219 586 m 1
 173 586 l 1
 173 596 l 1
 279 736 l 1
 380 736 l 1
 380 722 l 1
 219 586 l 1
EndSplineSet
EndChar

StartChar: thorn
Encoding: 254 254 190
Width: 556
GlyphClass: 2
Flags: MW
HStem: -208 21G<67 67 67 155> -10 65<279.5 340 246.5 384.5> 470 68<278 340.5>
VStem: 67 88<-208 -1 188.5 332.5 507.5 518 518 725> 422 92<189 338.5>
LayerCount: 2
Fore
SplineSet
67 -208 m 1
 67 725 l 1
 155 725 l 1
 155 518 l 2
 155 497 154 472 153 443 c 1
 156 443 l 1
 188 508 236 538 320 538 c 0
 449 538 514 454 514 267 c 0
 514 82 449 -10 320 -10 c 0
 239 -10 184 21 156 82 c 1
 153 82 l 2
 154 79 155 52 155 -1 c 2
 155 -208 l 1
 67 -208 l 1
422 265 m 0
 422 412 384 470 297 470 c 0
 197 470 155 407 155 258 c 0
 155 119 197 55 296 55 c 0
 384 55 422 113 422 265 c 0
EndSplineSet
EndChar

StartChar: ydieresis
Encoding: 255 255 191
Width: 500
GlyphClass: 2
Flags: MW
HStem: -208 69<81 101.5 66.5 122.5> 508 20G<2 96 96 96 405 498 498 498> 595 90<113 194 113 194 306 385>
VStem: 113 81<595 685> 306 79<595 685>
LayerCount: 2
Fore
SplineSet
93 -208 m 0
 69 -208 49 -206 33 -202 c 1
 33 -136 l 1
 45 -138 59 -139 74 -139 c 0
 129 -139 172 -99 204 -19 c 2
 212 2 l 1
 2 528 l 1
 96 528 l 1
 208 236 l 1
 213 219 l 2
 216 213 223 192 235 156 c 0
 248 120 254 100 255 96 c 2
 290 192 l 1
 405 528 l 1
 498 528 l 1
 295 0 l 2
 273 -56 253 -98 234 -125 c 0
 197 -181 152 -208 93 -208 c 0
385 595 m 1
 306 595 l 1
 306 685 l 1
 385 685 l 1
 385 595 l 1
194 595 m 1
 113 595 l 1
 113 685 l 1
 194 685 l 1
 194 595 l 1
EndSplineSet
EndChar

StartChar: Amacron
Encoding: 256 256 192
Width: 667
GlyphClass: 2
Flags: MW
HStem: 0 21G<2 99 2 2 570 665 570 570> 201 73<206 463 206 491 178 463> 618 70<334 334> 668 20G<283 389 389 389> 764 62<201 469 201 469>
VStem: 2 663<0 0> 201 268<764 826 764 826>
LayerCount: 2
Fore
SplineSet
665 0 m 1xdc
 570 0 l 1
 491 201 l 1
 178 201 l 1
 99 0 l 1
 2 0 l 1
 283 688 l 1
 389 688 l 1
 665 0 l 1xdc
348 577 m 2
 334 618 l 1
 330 604 l 2xec
 322 577 310 542 294 500 c 2
 206 274 l 1
 463 274 l 1
 375 501 l 2
 366 524 357 549 348 577 c 2
469 826 m 1xda
 469 764 l 1
 201 764 l 1
 201 826 l 1
 469 826 l 1xda
EndSplineSet
EndChar

StartChar: amacron
Encoding: 257 257 193
Width: 556
GlyphClass: 2
Flags: MW
HStem: -10 66<193.5 222 193.5 244.5> -5 59<455.5 531.5> 260 61 471 67<236.5 314.5> 604 62<139 407 139 407>
VStem: 42 91<117.5 146 117.5 201.5> 139 268<604 666 604 666> 389 89<101 133 217 261 261 261 322 351 351 360>
LayerCount: 2
Fore
SplineSet
202 -10 m 0xbd
 97 -10 42 50 42 147 c 0
 42 256 110 316 271 320 c 2
 389 322 l 1
 389 351 l 2
 389 438 353 471 276 471 c 0
 197 471 165 446 158 387 c 1
 66 396 l 1
 81 491 151 538 278 538 c 0
 410 538 478 476 478 360 c 2
 478 133 l 2
 478 81 490 54 527 54 c 0
 536 54 545 55 556 58 c 1
 556 3 l 1
 534 -2 511 -5 488 -5 c 0x7d
 423 -5 396 28 392 101 c 1
 389 101 l 1
 344 21 287 -10 202 -10 c 0xbd
222 56 m 0
 319 52 390 136 389 217 c 2
 389 261 l 1
 293 259 l 2
 172 256 138 226 133 146 c 0
 133 89 165 56 222 56 c 0
407 666 m 1xba
 407 604 l 1
 139 604 l 1
 139 666 l 1
 407 666 l 1xba
EndSplineSet
EndChar

StartChar: Abreve
Encoding: 258 258 194
Width: 667
GlyphClass: 2
Flags: MW
HStem: 0 21G<2 99 2 2 570 665 570 570> 201 73<206 463 206 491 178 463> 618 70<334 334> 668 20G<283 389 389 389> 747 66<305.5 365 305.5 377.5>
VStem: 2 663<0 0>
LayerCount: 2
Fore
SplineSet
665 0 m 1xdc
 570 0 l 1
 491 201 l 1
 178 201 l 1
 99 0 l 1
 2 0 l 1
 283 688 l 1
 389 688 l 1
 665 0 l 1xdc
348 577 m 2
 334 618 l 1
 330 604 l 2xec
 322 577 310 542 294 500 c 2
 206 274 l 1
 463 274 l 1
 375 501 l 2
 366 524 357 549 348 577 c 2
334 747 m 0
 249 747 184 796 172 869 c 1
 229 869 l 1
 241 834 276 813 335 813 c 0
 395 813 429 834 440 869 c 1
 498 869 l 1
 483 794 421 747 334 747 c 0
EndSplineSet
EndChar

StartChar: abreve
Encoding: 259 259 195
Width: 556
GlyphClass: 2
Flags: MW
HStem: -10 66<193.5 222 193.5 244.5> -5 59<455.5 531.5> 260 61 471 67<236.5 314.5> 586 77<243.5 304.5 243.5 317>
VStem: 42 91<117.5 146 117.5 201.5> 389 89<101 133 217 261 261 261 322 351 351 360>
LayerCount: 2
Fore
SplineSet
202 -10 m 0xbe
 97 -10 42 50 42 147 c 0
 42 256 110 316 271 320 c 2
 389 322 l 1
 389 351 l 2
 389 438 353 471 276 471 c 0
 197 471 165 446 158 387 c 1
 66 396 l 1
 81 491 151 538 278 538 c 0
 410 538 478 476 478 360 c 2
 478 133 l 2
 478 81 490 54 527 54 c 0
 536 54 545 55 556 58 c 1
 556 3 l 1
 534 -2 511 -5 488 -5 c 0x7e
 423 -5 396 28 392 101 c 1
 389 101 l 1
 344 21 287 -10 202 -10 c 0xbe
222 56 m 0
 319 52 390 136 389 217 c 2
 389 261 l 1
 293 259 l 2
 172 256 138 226 133 146 c 0
 133 89 165 56 222 56 c 0
273 586 m 0
 188 586 123 646 111 737 c 1
 168 737 l 1
 177 688 213 663 274 663 c 0
 335 663 370 688 379 737 c 1
 437 737 l 1
 422 645 361 586 273 586 c 0
EndSplineSet
EndChar

StartChar: Aogonek
Encoding: 260 260 196
Width: 667
GlyphClass: 2
Flags: MW
HStem: -203 54<602.5 617.5> 0 21G<2 99 2 2 570 665 570 570> 201 73<206 463 206 491 178 463> 618 70<334 334> 668 20G<283 389 389 389>
VStem: 502 69<-119 -89.5>
LayerCount: 2
Fore
SplineSet
665 0 m 1xec
 570 0 l 1
 491 201 l 1
 178 201 l 1
 99 0 l 1
 2 0 l 1
 283 688 l 1
 389 688 l 1
 665 0 l 1xec
348 577 m 2
 334 618 l 1
 330 604 l 2xf4
 322 577 310 542 294 500 c 2
 206 274 l 1
 463 274 l 1
 375 501 l 2
 366 524 357 549 348 577 c 2
673 -138 m 1
 673 -190 l 1
 653 -199 630 -203 605 -203 c 0
 537 -203 502 -167 502 -112 c 0
 502 -67 534 -19 578 5 c 1
 643 5 l 1
 610 -11 571 -55 571 -105 c 0
 571 -133 588 -149 617 -149 c 0
 635 -149 654 -145 673 -138 c 1
EndSplineSet
EndChar

StartChar: aogonek
Encoding: 261 261 197
Width: 556
GlyphClass: 2
Flags: MW
HStem: -208 53<485.5 500.5> -10 66<193.5 222 193.5 244.5> -5 59<455.5 531.5> 260 61 471 67<236.5 314.5>
VStem: 42 91<117.5 146 117.5 201.5> 385 69<-124.5 -94.5> 389 89<101 133 217 261 261 261 322 351 351 360>
LayerCount: 2
Fore
SplineSet
202 -10 m 0xdd
 97 -10 42 50 42 147 c 0
 42 256 110 316 271 320 c 2
 389 322 l 1
 389 351 l 2
 389 438 353 471 276 471 c 0
 197 471 165 446 158 387 c 1
 66 396 l 1
 81 491 151 538 278 538 c 0
 410 538 478 476 478 360 c 2
 478 133 l 2
 478 81 490 54 527 54 c 0
 536 54 545 55 556 58 c 1
 556 3 l 1
 534 -2 511 -5 488 -5 c 0xbd
 423 -5 396 28 392 101 c 1
 389 101 l 1
 344 21 287 -10 202 -10 c 0xdd
222 56 m 0
 319 52 390 136 389 217 c 2
 389 261 l 1
 293 259 l 2
 172 256 138 226 133 146 c 0
 133 89 165 56 222 56 c 0
556 -143 m 1
 556 -195 l 1
 535 -204 513 -208 488 -208 c 0
 420 -208 385 -173 385 -117 c 0
 385 -72 417 -25 461 0 c 1
 526 0 l 1
 493 -19 454 -60 454 -111 c 0
 454 -138 471 -155 500 -155 c 0xde
 517 -155 536 -151 556 -143 c 1
EndSplineSet
EndChar

StartChar: Cacute
Encoding: 262 262 198
Width: 722
GlyphClass: 2
Flags: MW
HStem: -10 77<353.5 439 353.5 454> 622 76<333.5 435> 853 14<432 533>
VStem: 51 95<305 402>
LayerCount: 2
Fore
SplineSet
387 622 m 0
 234 622 146 518 146 347 c 0
 146 263 168 195 212 144 c 0
 256 93 316 67 391 67 c 0
 487 67 559 115 608 210 c 1
 684 172 l 1
 628 53 522 -10 386 -10 c 0
 176 -10 51 127 51 347 c 0
 51 457 81 543 140 605 c 0
 199 667 281 698 386 698 c 0
 533 698 631 640 678 528 c 1
 589 499 l 1
 557 579 483 622 387 622 c 0
381 747 m 1
 326 747 l 1
 326 757 l 1
 432 867 l 1
 533 867 l 1
 533 853 l 1
 381 747 l 1
EndSplineSet
EndChar

StartChar: cacute
Encoding: 263 263 199
Width: 500
GlyphClass: 2
Flags: MW
HStem: -10 70<223.5 298.5 223.5 326> 469 69<220.5 301> 722 14<316 417>
VStem: 42 92<196.5 339.5 196.5 353.5>
LayerCount: 2
Fore
SplineSet
134 267 m 0
 134 126 179 60 268 60 c 0
 329 60 374 92 385 163 c 1
 474 157 l 1
 459 56 382 -10 270 -10 c 0
 122 -10 42 85 42 265 c 0
 42 442 124 538 269 538 c 0
 377 538 452 479 471 380 c 1
 380 374 l 1
 372 431 335 469 267 469 c 0
 174 469 134 412 134 267 c 0
256 586 m 1
 210 586 l 1
 210 596 l 1
 316 736 l 1
 417 736 l 1
 417 722 l 1
 256 586 l 1
EndSplineSet
EndChar

StartChar: Ccircumflex
Encoding: 264 264 200
Width: 722
GlyphClass: 2
Flags: MW
HStem: -10 77<353.5 439 353.5 454> 622 76<333.5 435> 747 127<225 438 225 438 339 548 339 497>
VStem: 51 95<305 402>
LayerCount: 2
Fore
SplineSet
387 622 m 0
 234 622 146 518 146 347 c 0
 146 263 168 195 212 144 c 0
 256 93 316 67 391 67 c 0
 487 67 559 115 608 210 c 1
 684 172 l 1
 628 53 522 -10 386 -10 c 0
 176 -10 51 127 51 347 c 0
 51 457 81 543 140 605 c 0
 199 667 281 698 386 698 c 0
 533 698 631 640 678 528 c 1
 589 499 l 1
 557 579 483 622 387 622 c 0
438 874 m 1
 548 757 l 1
 548 747 l 1
 497 747 l 1
 390 815 l 1
 389 815 l 1
 275 747 l 1
 225 747 l 1
 225 757 l 1
 339 874 l 1
 438 874 l 1
EndSplineSet
EndChar

StartChar: ccircumflex
Encoding: 265 265 201
Width: 500
GlyphClass: 2
Flags: MW
HStem: -10 70<223.5 298.5 223.5 326> 469 69<220.5 301> 586 142<102 315 102 315 216 425 216 374>
VStem: 42 92<196.5 339.5 196.5 353.5>
LayerCount: 2
Fore
SplineSet
134 267 m 0
 134 126 179 60 268 60 c 0
 329 60 374 92 385 163 c 1
 474 157 l 1
 459 56 382 -10 270 -10 c 0
 122 -10 42 85 42 265 c 0
 42 442 124 538 269 538 c 0
 377 538 452 479 471 380 c 1
 380 374 l 1
 372 431 335 469 267 469 c 0
 174 469 134 412 134 267 c 0
315 728 m 1
 425 596 l 1
 425 586 l 1
 374 586 l 1
 267 669 l 1
 266 669 l 1
 152 586 l 1
 102 586 l 1
 102 596 l 1
 216 728 l 1
 315 728 l 1
EndSplineSet
EndChar

StartChar: Cdotaccent
Encoding: 266 266 202
Width: 722
GlyphClass: 2
Flags: MW
HStem: -10 77<353.5 439 353.5 454> 622 76<333.5 435> 784 84<343 431 343 431>
VStem: 51 95<305 402> 343 88<784 868 784 868>
LayerCount: 2
Fore
SplineSet
387 622 m 0
 234 622 146 518 146 347 c 0
 146 263 168 195 212 144 c 0
 256 93 316 67 391 67 c 0
 487 67 559 115 608 210 c 1
 684 172 l 1
 628 53 522 -10 386 -10 c 0
 176 -10 51 127 51 347 c 0
 51 457 81 543 140 605 c 0
 199 667 281 698 386 698 c 0
 533 698 631 640 678 528 c 1
 589 499 l 1
 557 579 483 622 387 622 c 0
431 784 m 1
 343 784 l 1
 343 868 l 1
 431 868 l 1
 431 784 l 1
EndSplineSet
EndChar

StartChar: cdotaccent
Encoding: 267 267 203
Width: 500
GlyphClass: 2
Flags: MW
HStem: -10 70<223.5 298.5 223.5 326> 469 69<220.5 301> 641 84<223 311 223 311>
VStem: 42 92<196.5 339.5 196.5 353.5> 223 88<641 725 641 725>
LayerCount: 2
Fore
SplineSet
134 267 m 0
 134 126 179 60 268 60 c 0
 329 60 374 92 385 163 c 1
 474 157 l 1
 459 56 382 -10 270 -10 c 0
 122 -10 42 85 42 265 c 0
 42 442 124 538 269 538 c 0
 377 538 452 479 471 380 c 1
 380 374 l 1
 372 431 335 469 267 469 c 0
 174 469 134 412 134 267 c 0
311 641 m 1
 223 641 l 1
 223 725 l 1
 311 725 l 1
 311 641 l 1
EndSplineSet
EndChar

StartChar: Ccaron
Encoding: 268 268 204
Width: 722
GlyphClass: 2
Flags: MW
HStem: -10 77<353.5 439 353.5 454> 622 76<333.5 435> 747 127<225 438 225 339>
VStem: 51 95<305 402>
LayerCount: 2
Fore
SplineSet
387 622 m 0
 234 622 146 518 146 347 c 0
 146 263 168 195 212 144 c 0
 256 93 316 67 391 67 c 0
 487 67 559 115 608 210 c 1
 684 172 l 1
 628 53 522 -10 386 -10 c 0
 176 -10 51 127 51 347 c 0
 51 457 81 543 140 605 c 0
 199 667 281 698 386 698 c 0
 533 698 631 640 678 528 c 1
 589 499 l 1
 557 579 483 622 387 622 c 0
548 864 m 1
 438 747 l 1
 339 747 l 1
 225 864 l 1
 225 874 l 1
 275 874 l 1
 389 806 l 1
 390 806 l 1
 497 874 l 1
 548 874 l 1
 548 864 l 1
EndSplineSet
EndChar

StartChar: ccaron
Encoding: 269 269 205
Width: 500
GlyphClass: 2
Flags: MW
HStem: -10 70<223.5 298.5 223.5 326> 469 69<220.5 301> 586 142<104 318 104 219>
VStem: 42 92<196.5 339.5 196.5 353.5>
LayerCount: 2
Fore
SplineSet
134 267 m 0
 134 126 179 60 268 60 c 0
 329 60 374 92 385 163 c 1
 474 157 l 1
 459 56 382 -10 270 -10 c 0
 122 -10 42 85 42 265 c 0
 42 442 124 538 269 538 c 0
 377 538 452 479 471 380 c 1
 380 374 l 1
 372 431 335 469 267 469 c 0
 174 469 134 412 134 267 c 0
428 718 m 1
 318 586 l 1
 219 586 l 1
 104 718 l 1
 104 728 l 1
 155 728 l 1
 269 646 l 1
 270 646 l 1
 376 728 l 1
 428 728 l 1
 428 718 l 1
EndSplineSet
EndChar

StartChar: Dcaron
Encoding: 270 270 206
Width: 722
GlyphClass: 2
Flags: MW
HStem: 0 75<175 329 329 339> 613 75<175 308 175 175> 747 127<175 389 175 289>
VStem: 82 93<75 613 75 688 75 688> 581 93<351 436.5>
LayerCount: 2
Fore
SplineSet
674 351 m 0
 676 139 538 -3 339 0 c 2
 82 0 l 1
 82 688 l 1
 310 688 l 2
 542 688 674 567 674 351 c 0
581 351 m 0
 581 522 484 613 308 613 c 2
 175 613 l 1
 175 75 l 1
 329 75 l 2
 481 75 581 180 581 351 c 0
498 864 m 1
 389 747 l 1
 289 747 l 1
 175 864 l 1
 175 874 l 1
 226 874 l 1
 339 806 l 1
 340 806 l 1
 447 874 l 1
 498 874 l 1
 498 864 l 1
EndSplineSet
EndChar

StartChar: dcaron
Encoding: 271 271 207
Width: 615
GlyphClass: 2
Flags: MW
HStem: -10 68<215 276> 0 21G<408 492 408 408> 473 65<215.5 276 171.5 308.5> 643 82<529 572 401 529>
VStem: 42 92<191 338.5 191 354> 401 88<85 85 198.5 340.5 446 446 505 725> 529 96<644.5 673 673 725 644.5 725>
LayerCount: 2
Fore
SplineSet
403 85 m 1xbe
 401 85 l 1
 368 17 316 -10 236 -10 c 0xbe
 103 -10 42 79 42 262 c 0
 42 446 107 538 236 538 c 0
 316 538 368 510 401 446 c 1
 402 446 l 1
 401 505 l 1
 401 725 l 1
 489 725 l 1
 489 109 l 2
 489 54 490 17 492 0 c 1
 408 0 l 1
 407 5 405 17 404 36 c 0x7e
 403 55 403 71 403 85 c 1xbe
134 265 m 0
 134 117 171 58 259 58 c 0
 358 58 401 126 401 271 c 0
 401 410 357 473 260 473 c 0
 171 473 134 412 134 265 c 0
625 725 m 1
 625 673 l 2
 625 616 610 581 583 550 c 1
 526 550 l 1
 557 583 572 614 572 643 c 1
 529 643 l 1
 529 725 l 1
 625 725 l 1
EndSplineSet
EndChar

StartChar: Dcroat
Encoding: 272 272 208
Width: 722
GlyphClass: 2
Flags: MW
HStem: 0 75<175 329 329 339> 316 75<7 82 7 82 175 374> 613 75<175 308 175 175>
VStem: 82 93<75 316 75 316 75 316 391 613> 581 93<351 436.5>
LayerCount: 2
Fore
SplineSet
7 316 m 1
 7 391 l 1
 82 391 l 1
 82 688 l 1
 310 688 l 2
 542 688 674 567 674 351 c 0
 676 139 538 -3 339 0 c 2
 82 0 l 1
 82 316 l 1
 7 316 l 1
581 351 m 0
 581 522 484 613 308 613 c 2
 175 613 l 1
 175 391 l 1
 374 391 l 1
 374 316 l 1
 175 316 l 1
 175 75 l 1
 329 75 l 2
 481 75 581 180 581 351 c 0
EndSplineSet
EndChar

StartChar: dcroat
Encoding: 273 273 209
Width: 556
GlyphClass: 2
Flags: MW
HStem: -10 68<215 276> 0 21G<408 492 408 408> 473 65<215.5 276 171.5 308.5> 589 64<254 401 254 401 489 553>
VStem: 42 92<191 338.5 191 354> 401 88<85 85 198.5 340.5 446 446 505 589 653 725>
LayerCount: 2
Fore
SplineSet
403 85 m 1xbc
 401 85 l 1
 368 17 316 -10 236 -10 c 0xbc
 103 -10 42 79 42 262 c 0
 42 446 107 538 236 538 c 0
 316 538 368 510 401 446 c 1
 402 446 l 1
 401 505 l 1
 401 589 l 1
 254 589 l 1
 254 653 l 1
 401 653 l 1
 401 725 l 1
 489 725 l 1
 489 653 l 1
 553 653 l 1
 553 589 l 1
 489 589 l 1
 489 109 l 2
 489 54 490 17 492 0 c 1
 408 0 l 1
 407 5 405 17 404 36 c 0x7c
 403 55 403 71 403 85 c 1xbc
134 265 m 0
 134 117 171 58 259 58 c 0
 358 58 401 126 401 271 c 0
 401 410 357 473 260 473 c 0
 171 473 134 412 134 265 c 0
EndSplineSet
EndChar

StartChar: Emacron
Encoding: 274 274 210
Width: 667
GlyphClass: 2
Flags: MW
HStem: 0 76<175 624 175 624> 316 75<175 575 175 575> 612 76<175 604 175 175> 764 62<209 478 209 478>
VStem: 82 93<76 316 391 612> 209 269<764 826 764 826>
LayerCount: 2
Fore
SplineSet
624 0 m 1
 82 0 l 1
 82 688 l 1
 604 688 l 1
 604 612 l 1
 175 612 l 1
 175 391 l 1
 575 391 l 1
 575 316 l 1
 175 316 l 1
 175 76 l 1
 624 76 l 1
 624 0 l 1
478 826 m 1
 478 764 l 1
 209 764 l 1
 209 826 l 1
 478 826 l 1
EndSplineSet
EndChar

StartChar: emacron
Encoding: 275 275 211
Width: 556
GlyphClass: 2
Flags: MW
HStem: -10 66<234 320 234 338> 246 67<136 421 136 512 135 421> 473 65<234.5 321> 604 62<145 413 145 413>
VStem: 42 93<185.5 246 185.5 354.5> 145 268<604 666 604 666> 421 91<246 313>
LayerCount: 2
Fore
SplineSet
512 246 m 1
 135 246 l 1
 135 125 186 56 282 56 c 0
 358 56 404 90 420 137 c 1
 498 115 l 1
 466 32 394 -10 282 -10 c 0
 126 -10 42 84 42 268 c 0
 42 441 127 538 279 538 c 0
 434 538 512 444 512 257 c 2
 512 246 l 1
136 313 m 1
 421 313 l 1
 412 424 365 473 277 473 c 0
 192 473 140 413 136 313 c 1
413 666 m 1
 413 604 l 1
 145 604 l 1
 145 666 l 1
 413 666 l 1
EndSplineSet
EndChar

StartChar: Ebreve
Encoding: 276 276 212
Width: 667
GlyphClass: 2
Flags: MW
HStem: 0 76<175 624 175 624> 316 75<175 575 175 575> 612 76<175 604 175 175> 747 66<313.5 373 313.5 385.5>
VStem: 82 93<76 316 391 612>
LayerCount: 2
Fore
SplineSet
624 0 m 1
 82 0 l 1
 82 688 l 1
 604 688 l 1
 604 612 l 1
 175 612 l 1
 175 391 l 1
 575 391 l 1
 575 316 l 1
 175 316 l 1
 175 76 l 1
 624 76 l 1
 624 0 l 1
342 747 m 0
 255 747 192 796 180 869 c 1
 237 869 l 1
 249 834 284 813 343 813 c 0
 403 813 437 834 448 869 c 1
 505 869 l 1
 492 794 429 747 342 747 c 0
EndSplineSet
EndChar

StartChar: ebreve
Encoding: 277 277 213
Width: 556
GlyphClass: 2
Flags: MW
HStem: -10 66<234 320 234 338> 246 67<136 421 136 512 135 421> 473 65<234.5 321> 586 77<248.5 309.5 248.5 321.5>
VStem: 42 93<185.5 246 185.5 354.5> 421 91<246 313>
LayerCount: 2
Fore
SplineSet
512 246 m 1
 135 246 l 1
 135 125 186 56 282 56 c 0
 358 56 404 90 420 137 c 1
 498 115 l 1
 466 32 394 -10 282 -10 c 0
 126 -10 42 84 42 268 c 0
 42 441 127 538 279 538 c 0
 434 538 512 444 512 257 c 2
 512 246 l 1
136 313 m 1
 421 313 l 1
 412 424 365 473 277 473 c 0
 192 473 140 413 136 313 c 1
278 586 m 0
 191 586 128 646 116 737 c 1
 173 737 l 1
 182 688 218 663 279 663 c 0
 340 663 375 688 384 737 c 1
 441 737 l 1
 428 645 365 586 278 586 c 0
EndSplineSet
EndChar

StartChar: Edotaccent
Encoding: 278 278 214
Width: 667
GlyphClass: 2
Flags: MW
HStem: 0 76<175 624 175 624> 316 75<175 575 175 575> 612 76<175 604 175 175> 784 84<299 387 299 387>
VStem: 82 93<76 316 391 612> 299 88<784 868 784 868>
LayerCount: 2
Fore
SplineSet
624 0 m 1
 82 0 l 1
 82 688 l 1
 604 688 l 1
 604 612 l 1
 175 612 l 1
 175 391 l 1
 575 391 l 1
 575 316 l 1
 175 316 l 1
 175 76 l 1
 624 76 l 1
 624 0 l 1
387 784 m 1
 299 784 l 1
 299 868 l 1
 387 868 l 1
 387 784 l 1
EndSplineSet
EndChar

StartChar: edotaccent
Encoding: 279 279 215
Width: 556
GlyphClass: 2
Flags: MW
HStem: -10 66<234 320 234 338> 246 67<136 421 136 512 135 421> 473 65<234.5 321> 641 84<234 322 234 322>
VStem: 42 93<185.5 246 185.5 354.5> 234 88<641 725 641 725> 421 91<246 313>
LayerCount: 2
Fore
SplineSet
512 246 m 1
 135 246 l 1
 135 125 186 56 282 56 c 0
 358 56 404 90 420 137 c 1
 498 115 l 1
 466 32 394 -10 282 -10 c 0
 126 -10 42 84 42 268 c 0
 42 441 127 538 279 538 c 0
 434 538 512 444 512 257 c 2
 512 246 l 1
136 313 m 1
 421 313 l 1
 412 424 365 473 277 473 c 0
 192 473 140 413 136 313 c 1
322 641 m 1
 234 641 l 1
 234 725 l 1
 322 725 l 1
 322 641 l 1
EndSplineSet
EndChar

StartChar: Eogonek
Encoding: 280 280 216
Width: 667
GlyphClass: 2
Flags: MW
HStem: -208 53<553.5 568.5> 0 76<175 624 175 624 529 594 594 594> 316 75<175 575 175 575> 612 76<175 604 175 175>
VStem: 82 93<76 316 391 612> 453 69<-124.5 -94.5>
LayerCount: 2
Fore
SplineSet
624 0 m 1
 82 0 l 1
 82 688 l 1
 604 688 l 1
 604 612 l 1
 175 612 l 1
 175 391 l 1
 575 391 l 1
 575 316 l 1
 175 316 l 1
 175 76 l 1
 624 76 l 1
 624 0 l 1
624 -143 m 1
 624 -195 l 1
 603 -204 581 -208 556 -208 c 0
 488 -208 453 -173 453 -117 c 0
 453 -72 485 -25 529 0 c 1
 594 0 l 1
 561 -19 522 -60 522 -111 c 0
 522 -138 539 -155 568 -155 c 0
 585 -155 604 -151 624 -143 c 1
EndSplineSet
EndChar

StartChar: eogonek
Encoding: 281 281 217
Width: 556
GlyphClass: 2
Flags: MW
HStem: -208 53<325.5 340.5> -10 10<301 338> -10 66<234 320 234 338> 246 67<136 421 136 512 135 421> 473 65<234.5 321>
VStem: 42 93<185.5 246 185.5 354.5> 225 69<-124.5 -94.5> 421 91<246 313>
LayerCount: 2
Fore
SplineSet
512 246 m 1xdf
 135 246 l 1
 135 125 186 56 282 56 c 0
 358 56 404 90 420 137 c 1xbf
 498 115 l 1
 466 32 394 -10 282 -10 c 0
 126 -10 42 84 42 268 c 0
 42 441 127 538 279 538 c 0
 434 538 512 444 512 257 c 2
 512 246 l 1xdf
136 313 m 1
 421 313 l 1
 412 424 365 473 277 473 c 0
 192 473 140 413 136 313 c 1
396 -143 m 1
 396 -195 l 1
 375 -204 353 -208 328 -208 c 0
 260 -208 225 -173 225 -117 c 0
 225 -72 257 -25 301 0 c 1
 366 0 l 1xdf
 333 -19 294 -60 294 -111 c 0
 294 -138 311 -155 340 -155 c 0
 357 -155 376 -151 396 -143 c 1
EndSplineSet
EndChar

StartChar: Ecaron
Encoding: 282 282 218
Width: 667
GlyphClass: 2
Flags: MW
HStem: 0 76<175 624 175 624> 316 75<175 575 175 575> 612 76<175 604 175 175> 747 127<179 393 179 293>
VStem: 82 93<76 316 391 612>
LayerCount: 2
Fore
SplineSet
624 0 m 1
 82 0 l 1
 82 688 l 1
 604 688 l 1
 604 612 l 1
 175 612 l 1
 175 391 l 1
 575 391 l 1
 575 316 l 1
 175 316 l 1
 175 76 l 1
 624 76 l 1
 624 0 l 1
502 864 m 1
 393 747 l 1
 293 747 l 1
 179 864 l 1
 179 874 l 1
 230 874 l 1
 343 806 l 1
 344 806 l 1
 451 874 l 1
 502 874 l 1
 502 864 l 1
EndSplineSet
EndChar

StartChar: ecaron
Encoding: 283 283 219
Width: 556
GlyphClass: 2
Flags: MW
HStem: -10 66<234 320 234 338> 246 67<136 421 136 512 135 421> 473 65<234.5 321> 586 142<114 328 114 229>
VStem: 42 93<185.5 246 185.5 354.5> 421 91<246 313>
LayerCount: 2
Fore
SplineSet
512 246 m 1
 135 246 l 1
 135 125 186 56 282 56 c 0
 358 56 404 90 420 137 c 1
 498 115 l 1
 466 32 394 -10 282 -10 c 0
 126 -10 42 84 42 268 c 0
 42 441 127 538 279 538 c 0
 434 538 512 444 512 257 c 2
 512 246 l 1
136 313 m 1
 421 313 l 1
 412 424 365 473 277 473 c 0
 192 473 140 413 136 313 c 1
438 718 m 1
 328 586 l 1
 229 586 l 1
 114 718 l 1
 114 728 l 1
 165 728 l 1
 278 646 l 1
 279 646 l 1
 386 728 l 1
 438 728 l 1
 438 718 l 1
EndSplineSet
EndChar

StartChar: Gcircumflex
Encoding: 284 284 220
Width: 778
GlyphClass: 2
Flags: MW
HStem: -10 76<318.5 441.5 318.5 459> 266 78<412 617 412 703> 622 76<310.5 441.5> 747 127<232 446 232 446 346 555 346 504>
VStem: 50 95<260.5 434.5 260.5 459> 617 86<142 266 266 266>
LayerCount: 2
Fore
SplineSet
50 347 m 0
 50 571 176 698 393 698 c 0
 545 698 636 649 688 536 c 1
 599 510 l 1
 560 587 493 622 390 622 c 0
 231 622 145 522 145 347 c 0
 145 174 240 66 397 66 c 0
 486 66 569 95 617 142 c 1
 617 266 l 1
 412 266 l 1
 412 344 l 1
 703 344 l 1
 703 107 l 1
 630 32 521 -10 397 -10 c 0
 181 -10 50 127 50 347 c 0
446 874 m 1
 555 757 l 1
 555 747 l 1
 504 747 l 1
 397 815 l 1
 396 815 l 1
 283 747 l 1
 232 747 l 1
 232 757 l 1
 346 874 l 1
 446 874 l 1
EndSplineSet
EndChar

StartChar: gcircumflex
Encoding: 285 285 221
Width: 556
GlyphClass: 2
Flags: MW
HStem: -208 67<237.5 313.5 237.5 341.5> -4 65<213.5 269.5> 471 66<216.5 277.5 173.5 302.5> 508 20G<408 492 492 492> 586 142<105 319 105 319 220 429 220 377>
VStem: 42 91<192 337.5 192 356.5> 401 88<13 15 15 98 98 98 201 329>
LayerCount: 2
Fore
SplineSet
268 -208 m 0xee
 152 -208 84 -161 64 -77 c 1
 152 -64 l 1
 164 -113 205 -141 270 -141 c 0
 357 -141 401 -90 401 13 c 2
 401 98 l 1
 400 98 l 1
 367 30 309 -4 230 -4 c 0
 101 -4 42 79 42 263 c 0
 42 450 107 537 240 537 c 0
 315 537 372 501 401 438 c 1
 402 438 l 1
 402 448 403 465 404 489 c 0xee
 405 513 407 526 408 528 c 2
 492 528 l 1xde
 490 511 489 474 489 419 c 2
 489 15 l 2
 489 -134 415 -208 268 -208 c 0xee
401 264 m 0
 401 394 343 471 262 471 c 0
 171 471 133 411 133 264 c 0
 133 120 167 61 260 61 c 0
 345 61 401 138 401 264 c 0
319 728 m 1
 429 596 l 1
 429 586 l 1
 377 586 l 1
 271 669 l 1
 270 669 l 1
 156 586 l 1
 105 586 l 1
 105 596 l 1
 220 728 l 1
 319 728 l 1
EndSplineSet
EndChar

StartChar: Gbreve
Encoding: 286 286 222
Width: 778
GlyphClass: 2
Flags: MW
HStem: -10 76<318.5 441.5 318.5 459> 266 78<412 617 412 703> 622 76<310.5 441.5> 747 66<366.5 426 366.5 438.5>
VStem: 50 95<260.5 434.5 260.5 459> 617 86<142 266 266 266>
LayerCount: 2
Fore
SplineSet
50 347 m 0
 50 571 176 698 393 698 c 0
 545 698 636 649 688 536 c 1
 599 510 l 1
 560 587 493 622 390 622 c 0
 231 622 145 522 145 347 c 0
 145 174 240 66 397 66 c 0
 486 66 569 95 617 142 c 1
 617 266 l 1
 412 266 l 1
 412 344 l 1
 703 344 l 1
 703 107 l 1
 630 32 521 -10 397 -10 c 0
 181 -10 50 127 50 347 c 0
396 747 m 0
 309 747 245 796 233 869 c 1
 291 869 l 1
 302 834 337 813 396 813 c 0
 456 813 490 834 501 869 c 1
 559 869 l 1
 544 794 481 747 396 747 c 0
EndSplineSet
EndChar

StartChar: gbreve
Encoding: 287 287 223
Width: 556
GlyphClass: 2
Flags: MW
HStem: -208 67<237.5 313.5 237.5 341.5> -4 65<213.5 269.5> 471 66<216.5 277.5 173.5 302.5> 508 20G<408 492 492 492> 586 77<237 298 237 310.5>
VStem: 42 91<192 337.5 192 356.5> 401 88<13 15 15 98 98 98 201 329>
LayerCount: 2
Fore
SplineSet
268 -208 m 0xee
 152 -208 84 -161 64 -77 c 1
 152 -64 l 1
 164 -113 205 -141 270 -141 c 0
 357 -141 401 -90 401 13 c 2
 401 98 l 1
 400 98 l 1
 367 30 309 -4 230 -4 c 0
 101 -4 42 79 42 263 c 0
 42 450 107 537 240 537 c 0
 315 537 372 501 401 438 c 1
 402 438 l 1
 402 448 403 465 404 489 c 0xee
 405 513 407 526 408 528 c 2
 492 528 l 1xde
 490 511 489 474 489 419 c 2
 489 15 l 2
 489 -134 415 -208 268 -208 c 0xee
401 264 m 0
 401 394 343 471 262 471 c 0
 171 471 133 411 133 264 c 0
 133 120 167 61 260 61 c 0
 345 61 401 138 401 264 c 0
267 586 m 0
 180 586 116 646 104 737 c 1
 162 737 l 1
 171 688 206 663 268 663 c 0
 328 663 363 688 373 737 c 1
 430 737 l 1
 415 645 354 586 267 586 c 0
EndSplineSet
EndChar

StartChar: Gdotaccent
Encoding: 288 288 224
Width: 778
GlyphClass: 2
Flags: MW
HStem: -10 76<318.5 441.5 318.5 459> 266 78<412 617 412 703> 622 76<310.5 441.5> 784 84<352 440 352 440>
VStem: 50 95<260.5 434.5 260.5 459> 352 88<784 868 784 868> 617 86<142 266 266 266>
LayerCount: 2
Fore
SplineSet
50 347 m 0
 50 571 176 698 393 698 c 0
 545 698 636 649 688 536 c 1
 599 510 l 1
 560 587 493 622 390 622 c 0
 231 622 145 522 145 347 c 0
 145 174 240 66 397 66 c 0
 486 66 569 95 617 142 c 1
 617 266 l 1
 412 266 l 1
 412 344 l 1
 703 344 l 1
 703 107 l 1
 630 32 521 -10 397 -10 c 0
 181 -10 50 127 50 347 c 0
440 784 m 1
 352 784 l 1
 352 868 l 1
 440 868 l 1
 440 784 l 1
EndSplineSet
EndChar

StartChar: gdotaccent
Encoding: 289 289 225
Width: 556
GlyphClass: 2
Flags: MW
HStem: -208 67<237.5 313.5 237.5 341.5> -4 65<213.5 269.5> 471 66<216.5 277.5 173.5 302.5> 508 20G<408 492 492 492> 641 84<223 311 223 311>
VStem: 42 91<192 337.5 192 356.5> 223 88<641 725 641 725> 401 88<13 15 15 98 98 98 201 329>
LayerCount: 2
Fore
SplineSet
268 -208 m 0xef
 152 -208 84 -161 64 -77 c 1
 152 -64 l 1
 164 -113 205 -141 270 -141 c 0
 357 -141 401 -90 401 13 c 2
 401 98 l 1
 400 98 l 1
 367 30 309 -4 230 -4 c 0
 101 -4 42 79 42 263 c 0
 42 450 107 537 240 537 c 0
 315 537 372 501 401 438 c 1
 402 438 l 1
 402 448 403 465 404 489 c 0xef
 405 513 407 526 408 528 c 2
 492 528 l 1xdf
 490 511 489 474 489 419 c 2
 489 15 l 2
 489 -134 415 -208 268 -208 c 0xef
401 264 m 0
 401 394 343 471 262 471 c 0
 171 471 133 411 133 264 c 0
 133 120 167 61 260 61 c 0
 345 61 401 138 401 264 c 0
311 641 m 1
 223 641 l 1
 223 725 l 1
 311 725 l 1
 311 641 l 1
EndSplineSet
EndChar

StartChar: Gcommaaccent
Encoding: 290 290 226
Width: 778
GlyphClass: 2
Flags: MW
HStem: -124 76<353 396 353 448> -10 76<318.5 441.5 318.5 459> 266 78<412 617 412 703> 622 76<310.5 441.5>
VStem: 50 95<260.5 434.5 260.5 459> 353 95<-122.5 -94 -94 -48 -122.5 -48> 617 86<142 266 266 266>
LayerCount: 2
Fore
SplineSet
50 347 m 0
 50 571 176 698 393 698 c 0
 545 698 636 649 688 536 c 1
 599 510 l 1
 560 587 493 622 390 622 c 0
 231 622 145 522 145 347 c 0
 145 174 240 66 397 66 c 0
 486 66 569 95 617 142 c 1
 617 266 l 1
 412 266 l 1
 412 344 l 1
 703 344 l 1
 703 107 l 1
 630 32 521 -10 397 -10 c 0
 181 -10 50 127 50 347 c 0
448 -48 m 1
 448 -94 l 2
 448 -151 434 -181 407 -212 c 1
 350 -212 l 1
 379 -180 396 -153 396 -124 c 1
 353 -124 l 1
 353 -48 l 1
 448 -48 l 1
EndSplineSet
EndChar

StartChar: gcommaaccent
Encoding: 291 291 227
Width: 556
GlyphClass: 2
Flags: MW
HStem: -208 67<237.5 313.5 237.5 341.5> -4 65<213.5 269.5> 471 66<216.5 277.5 173.5 302.5> 508 20G<408 492 492 492> 591 82<216 311 268 311 268 311>
VStem: 42 91<192 337.5 192 356.5> 216 95<591 643 643 671.5> 401 88<13 15 15 98 98 98 201 329>
LayerCount: 2
Fore
SplineSet
268 -208 m 0xef
 152 -208 84 -161 64 -77 c 1
 152 -64 l 1
 164 -113 205 -141 270 -141 c 0
 357 -141 401 -90 401 13 c 2
 401 98 l 1
 400 98 l 1
 367 30 309 -4 230 -4 c 0
 101 -4 42 79 42 263 c 0
 42 450 107 537 240 537 c 0
 315 537 372 501 401 438 c 1
 402 438 l 1
 402 448 403 465 404 489 c 0xef
 405 513 407 526 408 528 c 2
 492 528 l 1xdf
 490 511 489 474 489 419 c 2
 489 15 l 2
 489 -134 415 -208 268 -208 c 0xef
401 264 m 0
 401 394 343 471 262 471 c 0
 171 471 133 411 133 264 c 0
 133 120 167 61 260 61 c 0
 345 61 401 138 401 264 c 0
216 591 m 1
 216 643 l 2
 216 700 230 735 257 766 c 1
 314 766 l 1
 283 733 268 702 268 673 c 1
 311 673 l 1
 311 591 l 1
 216 591 l 1
EndSplineSet
EndChar

StartChar: Hcircumflex
Encoding: 292 292 228
Width: 722
GlyphClass: 2
Flags: MW
HStem: 0 21G<82 175 82 82 547 641 547 547> 319 78<175 547 175 547> 668 20G<82 175 175 175 547 641 641 641> 747 127<200 414 200 414 314 523 314 472>
VStem: 82 93<0 319 0 397 397 688> 547 94<0 319 319 319 397 688>
LayerCount: 2
Fore
SplineSet
641 0 m 1
 547 0 l 1
 547 319 l 1
 175 319 l 1
 175 0 l 1
 82 0 l 1
 82 688 l 1
 175 688 l 1
 175 397 l 1
 547 397 l 1
 547 688 l 1
 641 688 l 1
 641 0 l 1
414 874 m 1
 523 757 l 1
 523 747 l 1
 472 747 l 1
 365 815 l 1
 364 815 l 1
 250 747 l 1
 200 747 l 1
 200 757 l 1
 314 874 l 1
 414 874 l 1
EndSplineSet
EndChar

StartChar: hcircumflex
Encoding: 293 293 229
Width: 556
GlyphClass: 2
Flags: MW
HStem: 0 21G<69 157 69 69 403 491 403 403> 470 68<283.5 294> 778 127<118 332 118 332 232 441 232 390>
VStem: 69 88<0 312 526 536 536 725> 403 88<0 335 335 335>
LayerCount: 2
Fore
SplineSet
153 438 m 2
 155 438 l 1
 192 507 243 538 324 538 c 0
 439 538 491 487 491 352 c 2
 491 0 l 1
 403 0 l 1
 403 335 l 2
 402 445 376 465 294 470 c 1
 211 470 157 408 157 312 c 2
 157 0 l 1
 69 0 l 1
 69 725 l 1
 157 725 l 1
 157 536 l 2
 157 516 156 495 155 474 c 0
 154 453 154 441 153 438 c 2
332 905 m 1
 441 788 l 1
 441 778 l 1
 390 778 l 1
 283 846 l 1
 282 846 l 1
 169 778 l 1
 118 778 l 1
 118 788 l 1
 232 905 l 1
 332 905 l 1
EndSplineSet
EndChar

StartChar: Hbar
Encoding: 294 294 230
Width: 722
GlyphClass: 2
Flags: MW
HStem: 0 21G<82 175 82 82 550 641 550 550> 319 78<175 550 175 550> 500 76<7 82 7 82 175 550 641 715> 500 188<7 175 7 175 82 175 82 550>
VStem: 82 93<0 319 397 500 576 688> 550 91<0 319 319 319 397 500 576 688>
LayerCount: 2
Fore
SplineSet
641 0 m 1xec
 550 0 l 1
 550 319 l 1
 175 319 l 1
 175 0 l 1
 82 0 l 1
 82 500 l 1
 7 500 l 1
 7 576 l 1
 82 576 l 1xec
 82 688 l 1
 175 688 l 1xdc
 175 576 l 1
 550 576 l 1xec
 550 688 l 1
 641 688 l 1xdc
 641 576 l 1
 715 576 l 1
 715 500 l 1
 641 500 l 1
 641 0 l 1xec
175 397 m 1
 550 397 l 1
 550 500 l 1
 175 500 l 1
 175 397 l 1
EndSplineSet
EndChar

StartChar: hbar
Encoding: 295 295 231
Width: 556
GlyphClass: 2
Flags: MW
HStem: 0 21G<69 157 69 69 403 491 403 403> 451 68<283.5 294> 589 64<5 69 5 69 157 304>
VStem: 69 88<0 292 507 517 517 589 653 725> 403 88<0 315 315 315>
LayerCount: 2
Fore
SplineSet
153 418 m 2
 155 418 l 1
 192 487 243 519 324 519 c 0
 439 519 491 466 491 333 c 2
 491 0 l 1
 403 0 l 1
 403 315 l 2
 402 425 376 446 294 451 c 1
 211 451 157 389 157 292 c 2
 157 0 l 1
 69 0 l 1
 69 589 l 1
 5 589 l 1
 5 653 l 1
 69 653 l 1
 69 725 l 1
 157 725 l 1
 157 653 l 1
 304 653 l 1
 304 589 l 1
 157 589 l 1
 157 517 l 2
 157 497 156 476 155 455 c 0
 154 434 154 421 153 418 c 2
EndSplineSet
EndChar

StartChar: Itilde
Encoding: 296 296 232
Width: 278
GlyphClass: 2
Flags: MW
HStem: 0 21G<92 186 92 92> 668 20G<92 186 186 186> 747 73<194 229.5 194 244> 805 73<64 87>
VStem: -35 44<747 747> 92 94<0 688> 270 45<878 878>
LayerCount: 2
Fore
SplineSet
186 0 m 1xe6
 92 0 l 1
 92 688 l 1
 186 688 l 1
 186 0 l 1xe6
216 747 m 0
 162 747 107 805 67 805 c 0
 31 805 16 784 9 747 c 1
 -35 747 l 1xde
 -24 843 3 873 64 878 c 1
 120 878 175 820 213 820 c 0
 246 820 265 839 270 878 c 1
 315 878 l 1
 304 782 272 747 216 747 c 0
EndSplineSet
EndChar

StartChar: itilde
Encoding: 297 297 233
Width: 278
GlyphClass: 2
Flags: MW
HStem: 0 21G<95 183 95 95> 508 20G<95 183 183 183> 586 73<194 229.5 194 244> 645 72<64 87>
VStem: -35 44<586 586> 95 88<0 528> 270 45<717 717>
LayerCount: 2
Fore
SplineSet
183 0 m 1xe6
 95 0 l 1
 95 528 l 1
 183 528 l 1
 183 0 l 1xe6
216 586 m 0
 162 586 107 645 67 645 c 0
 31 645 16 623 9 586 c 1
 -35 586 l 1xde
 -24 683 3 712 64 717 c 1
 120 717 175 659 213 659 c 0
 246 659 265 678 270 717 c 1
 315 717 l 1
 304 621 272 586 216 586 c 0
EndSplineSet
EndChar

StartChar: Imacron
Encoding: 298 298 234
Width: 278
GlyphClass: 2
Flags: MW
HStem: 0 21G<92 186 92 92> 668 20G<92 186 186 186> 764 62<6 274 6 274>
VStem: 92 94<0 688>
LayerCount: 2
Fore
SplineSet
186 0 m 1
 92 0 l 1
 92 688 l 1
 186 688 l 1
 186 0 l 1
274 826 m 1
 274 764 l 1
 6 764 l 1
 6 826 l 1
 274 826 l 1
EndSplineSet
EndChar

StartChar: imacron
Encoding: 299 299 235
Width: 278
GlyphClass: 2
Flags: MW
HStem: 0 21G<95 183 95 95> 508 20G<95 183 183 183> 604 62<6 274 6 274>
VStem: 95 88<0 528>
LayerCount: 2
Fore
SplineSet
183 0 m 1
 95 0 l 1
 95 528 l 1
 183 528 l 1
 183 0 l 1
274 666 m 1
 274 604 l 1
 6 604 l 1
 6 666 l 1
 274 666 l 1
EndSplineSet
EndChar

StartChar: Ibreve
Encoding: 300 300 236
Width: 278
GlyphClass: 2
Flags: MW
HStem: 0 21G<92 186 92 92> 668 20G<92 186 186 186> 747 66<111 170.5 111 183.5>
VStem: 92 94<0 688>
LayerCount: 2
Fore
SplineSet
186 0 m 1
 92 0 l 1
 92 688 l 1
 186 688 l 1
 186 0 l 1
140 747 m 0
 53 747 -11 796 -22 869 c 1
 35 869 l 1
 46 834 81 813 141 813 c 0
 200 813 234 834 246 869 c 1
 303 869 l 1
 288 794 227 747 140 747 c 0
EndSplineSet
EndChar

StartChar: ibreve
Encoding: 301 301 237
Width: 278
GlyphClass: 2
Flags: MW
HStem: 0 21G<95 183 95 95> 508 20G<95 183 183 183> 586 77<110 171 110 183.5>
VStem: 95 88<0 528>
LayerCount: 2
Fore
SplineSet
183 0 m 1
 95 0 l 1
 95 528 l 1
 183 528 l 1
 183 0 l 1
140 586 m 0
 53 586 -11 646 -22 737 c 1
 35 737 l 1
 44 688 79 663 141 663 c 0
 201 663 236 688 246 737 c 1
 303 737 l 1
 288 645 227 586 140 586 c 0
EndSplineSet
EndChar

StartChar: Iogonek
Encoding: 302 302 238
Width: 278
GlyphClass: 2
Flags: MW
HStem: -208 53<145.5 160.5> 0 21G<92 186 92 92 121 186 186 186> 668 20G<92 186 186 186>
VStem: 45 69<-124.5 -94.5> 92 94<0 688>
LayerCount: 2
Fore
SplineSet
186 0 m 1xe8
 92 0 l 1
 92 688 l 1
 186 688 l 1
 186 0 l 1xe8
216 -143 m 1
 216 -195 l 1
 195 -204 173 -208 148 -208 c 0
 80 -208 45 -173 45 -117 c 0
 45 -72 76 -25 121 0 c 1xf0
 186 0 l 1xe8
 152 -18 114 -61 114 -111 c 0
 114 -138 131 -155 160 -155 c 0xf0
 177 -155 196 -151 216 -143 c 1
EndSplineSet
EndChar

StartChar: iogonek
Encoding: 303 303 239
Width: 222
GlyphClass: 2
Flags: MW
HStem: -208 53<115.5 130.5> 0 21G<67 155 67 67 91 156 156 156> 508 20G<67 155 155 155> 641 84<67 155 67 155>
VStem: 15 69<-124.5 -94.5> 67 88<0 528 641 725>
LayerCount: 2
Fore
SplineSet
155 641 m 1xf4
 67 641 l 1
 67 725 l 1
 155 725 l 1
 155 641 l 1xf4
155 0 m 1
 67 0 l 1
 67 528 l 1
 155 528 l 1
 155 0 l 1
186 -143 m 1
 186 -195 l 1
 165 -204 143 -208 118 -208 c 0
 50 -208 15 -173 15 -117 c 0
 15 -72 47 -25 91 0 c 1
 156 0 l 1
 123 -19 84 -60 84 -111 c 0
 84 -138 101 -155 130 -155 c 0xf8
 147 -155 166 -151 186 -143 c 1
EndSplineSet
EndChar

StartChar: Idotaccent
Encoding: 304 304 240
Width: 278
GlyphClass: 2
Flags: MW
HStem: 0 21G<92 186 92 92> 668 20G<92 186 186 186> 784 84<95 183 95 183>
VStem: 92 94<0 688> 95 88<784 868 784 868>
LayerCount: 2
Fore
SplineSet
186 0 m 1xf0
 92 0 l 1
 92 688 l 1
 186 688 l 1
 186 0 l 1xf0
183 784 m 1xe8
 95 784 l 1
 95 868 l 1
 183 868 l 1
 183 784 l 1xe8
EndSplineSet
EndChar

StartChar: dotlessi
Encoding: 305 305 241
Width: 278
GlyphClass: 2
Flags: MW
HStem: 0 21G<95 183 95 95> 508 20G<95 183 183 183>
VStem: 95 88<0 528>
LayerCount: 2
Fore
SplineSet
183 0 m 1
 95 0 l 1
 95 528 l 1
 183 528 l 1
 183 0 l 1
EndSplineSet
EndChar

StartChar: IJ
Encoding: 306 306 242
Width: 735
GlyphClass: 2
Flags: MW
HStem: -10 76<427.5 492 427.5 520.5> 0 21G<83 176 83 83> 612 76<436 568>
VStem: 83 93<0 688> 568 93<203 205 205 612 612 612>
LayerCount: 2
Fore
SplineSet
176 0 m 1x78
 83 0 l 1
 83 688 l 1
 176 688 l 1
 176 0 l 1x78
458 -10 m 0xb8
 341 -10 272 50 250 171 c 1
 342 186 l 1
 354 110 397 66 458 66 c 0
 526 66 568 114 568 203 c 2
 568 612 l 1
 436 612 l 1
 436 688 l 1
 661 688 l 1
 661 205 l 2
 661 72 583 -10 458 -10 c 0xb8
EndSplineSet
EndChar

StartChar: ij
Encoding: 307 307 243
Width: 444
GlyphClass: 2
Flags: MW
HStem: -208 70<246.5 250 228 298.5> 0 21G<67 155 67 67> 508 20G<67 155 155 155 289 376 376 376> 641 84<67 155 67 155 289 376>
VStem: 67 88<0 528 641 725> 289 87<-52 528 641 725>
LayerCount: 2
Fore
SplineSet
155 641 m 1
 67 641 l 1
 67 725 l 1
 155 725 l 1
 155 641 l 1
155 0 m 1
 67 0 l 1
 67 528 l 1
 155 528 l 1
 155 0 l 1
376 641 m 1
 289 641 l 1
 289 725 l 1
 376 725 l 1
 376 641 l 1
376 528 m 1
 376 -65 l 2
 376 -165 338 -208 259 -208 c 0
 234 -208 214 -206 197 -203 c 1
 197 -135 l 1
 228 -138 l 1
 272 -138 289 -120 289 -52 c 2
 289 528 l 1
 376 528 l 1
EndSplineSet
EndChar

StartChar: Jcircumflex
Encoding: 308 308 244
Width: 500
GlyphClass: 2
Flags: MW
HStem: -10 76<192.5 257.5 192.5 285.5> 612 76<201 333 201 426> 747 127<152 366 152 366 266 475 266 424>
VStem: 333 93<203 205 205 612 612 612>
LayerCount: 2
Fore
SplineSet
223 -10 m 0
 106 -10 37 50 16 171 c 1
 107 186 l 1
 119 110 161 66 224 66 c 0
 291 66 333 114 333 203 c 2
 333 612 l 1
 201 612 l 1
 201 688 l 1
 426 688 l 1
 426 205 l 2
 426 72 348 -10 223 -10 c 0
366 874 m 1
 475 757 l 1
 475 747 l 1
 424 747 l 1
 317 815 l 1
 316 815 l 1
 203 747 l 1
 152 747 l 1
 152 757 l 1
 266 874 l 1
 366 874 l 1
EndSplineSet
EndChar

StartChar: jcircumflex
Encoding: 309 309 245
Width: 222
GlyphClass: 2
Flags: MW
HStem: -208 70<25.5 28.5 6 76.5> 508 20G<67 155 155 155> 586 142<-50 164 -50 164 64 273 64 222>
VStem: 67 88<-52 528>
LayerCount: 2
Fore
SplineSet
38 -208 m 0
 13 -208 -8 -206 -24 -203 c 1
 -24 -135 l 1
 6 -138 l 1
 51 -138 67 -120 67 -52 c 2
 67 528 l 1
 155 528 l 1
 155 -65 l 2
 155 -165 115 -208 38 -208 c 0
164 728 m 1
 273 596 l 1
 273 586 l 1
 222 586 l 1
 115 669 l 1
 114 669 l 1
 0 586 l 1
 -50 586 l 1
 -50 596 l 1
 64 728 l 1
 164 728 l 1
EndSplineSet
EndChar

StartChar: Kcommaaccent
Encoding: 310 310 246
Width: 667
GlyphClass: 2
Flags: MW
HStem: -124 76<298 341 298 393> 0 21G<82 175 82 82 540 656 540 540> 668 20G<82 175 175 175 507 617 617 617>
VStem: 82 93<0 264 0 343 343 688> 298 95<-122.5 -94 -94 -48 -122.5 -48>
LayerCount: 2
Fore
SplineSet
656 0 m 1
 540 0 l 1
 265 332 l 1
 175 264 l 1
 175 0 l 1
 82 0 l 1
 82 688 l 1
 175 688 l 1
 175 343 l 1
 507 688 l 1
 617 688 l 1
 324 389 l 1
 656 0 l 1
393 -48 m 1
 393 -94 l 2
 393 -151 379 -181 352 -212 c 1
 295 -212 l 1
 324 -180 341 -153 341 -124 c 1
 298 -124 l 1
 298 -48 l 1
 393 -48 l 1
EndSplineSet
EndChar

StartChar: kcommaaccent
Encoding: 311 311 247
Width: 500
GlyphClass: 2
Flags: MW
HStem: -124 76<228 271 228 323> 0 21G<67 155 67 67 398 501 398 398> 508 20G<387 490 490 490>
VStem: 67 88<0 188 0 272 272 725> 228 95<-122.5 -94 -94 -48 -122.5 -48>
LayerCount: 2
Fore
SplineSet
501 0 m 1
 398 0 l 1
 220 241 l 1
 155 188 l 1
 155 0 l 1
 67 0 l 1
 67 725 l 1
 155 725 l 1
 155 272 l 1
 387 528 l 1
 490 528 l 1
 276 301 l 1
 501 0 l 1
323 -48 m 1
 323 -94 l 2
 323 -151 309 -181 282 -212 c 1
 225 -212 l 1
 254 -180 271 -153 271 -124 c 1
 228 -124 l 1
 228 -48 l 1
 323 -48 l 1
EndSplineSet
EndChar

StartChar: kgreenlandic
Encoding: 312 312 248
Width: 500
GlyphClass: 2
Flags: MW
HStem: 0 21G<67 155 67 67 398 501 398 398> 508 20G<67 155 155 155 387 490 490 490>
VStem: 67 88<0 188 0 272 272 528>
LayerCount: 2
Fore
SplineSet
501 0 m 1
 398 0 l 1
 220 241 l 1
 155 188 l 1
 155 0 l 1
 67 0 l 1
 67 528 l 1
 155 528 l 1
 155 272 l 1
 387 528 l 1
 490 528 l 1
 276 301 l 1
 501 0 l 1
EndSplineSet
EndChar

StartChar: Lacute
Encoding: 313 313 249
Width: 556
GlyphClass: 2
Flags: MW
HStem: 0 76<175 523 175 523> 668 20G<82 175 175 175> 853 14<226 327>
VStem: 82 93<76 688 76 688 76 688>
LayerCount: 2
Fore
SplineSet
523 0 m 1
 82 0 l 1
 82 688 l 1
 175 688 l 1
 175 76 l 1
 523 76 l 1
 523 0 l 1
175 747 m 1
 120 747 l 1
 120 757 l 1
 226 867 l 1
 327 867 l 1
 327 853 l 1
 175 747 l 1
EndSplineSet
EndChar

StartChar: lacute
Encoding: 314 314 250
Width: 222
GlyphClass: 2
Flags: MW
HStem: 0 21G<67 155 67 67> 891 14<150 251>
VStem: 67 88<0 725>
LayerCount: 2
Fore
SplineSet
155 0 m 1
 67 0 l 1
 67 725 l 1
 155 725 l 1
 155 0 l 1
100 785 m 1
 44 785 l 1
 44 795 l 1
 150 905 l 1
 251 905 l 1
 251 891 l 1
 100 785 l 1
EndSplineSet
EndChar

StartChar: Lcommaaccent
Encoding: 315 315 251
Width: 556
GlyphClass: 2
Flags: MW
HStem: -124 76<255 298 255 350> 0 76<175 523 175 523> 668 20G<82 175 175 175>
VStem: 82 93<76 688 76 688 76 688> 255 95<-122.5 -94 -94 -48 -122.5 -48>
LayerCount: 2
Fore
SplineSet
523 0 m 1
 82 0 l 1
 82 688 l 1
 175 688 l 1
 175 76 l 1
 523 76 l 1
 523 0 l 1
350 -48 m 1
 350 -94 l 2
 350 -151 336 -181 309 -212 c 1
 252 -212 l 1
 281 -180 298 -153 298 -124 c 1
 255 -124 l 1
 255 -48 l 1
 350 -48 l 1
EndSplineSet
EndChar

StartChar: lcommaaccent
Encoding: 316 316 252
Width: 222
GlyphClass: 2
Flags: MW
HStem: -124 76<64 107 64 160> 0 21G<67 155 67 67>
VStem: 67 88<0 725> 107 53<-138.5 -94>
LayerCount: 2
Fore
SplineSet
155 0 m 1xe0
 67 0 l 1
 67 725 l 1
 155 725 l 1
 155 0 l 1xe0
160 -48 m 1
 160 -94 l 2
 160 -151 144 -181 119 -212 c 1xe0
 62 -212 l 1
 90 -180 107 -153 107 -124 c 1xd0
 64 -124 l 1
 64 -48 l 1
 160 -48 l 1
EndSplineSet
EndChar

StartChar: Lcaron
Encoding: 317 317 253
Width: 556
GlyphClass: 2
Flags: MW
HStem: 0 76<175 523 175 523> 606 82<324 367>
VStem: 82 93<76 688 76 688 76 688> 324 95<608 636 636 688 608 688>
LayerCount: 2
Fore
SplineSet
523 0 m 1
 82 0 l 1
 82 688 l 1
 175 688 l 1
 175 76 l 1
 523 76 l 1
 523 0 l 1
419 688 m 1
 419 636 l 2
 419 580 403 545 378 514 c 1
 321 514 l 1
 352 547 367 577 367 606 c 1
 324 606 l 1
 324 688 l 1
 419 688 l 1
EndSplineSet
EndChar

StartChar: lcaron
Encoding: 318 318 254
Width: 292
GlyphClass: 2
Flags: MW
HStem: 0 21G<67 155 67 67> 643 82<206 249 67 206>
VStem: 67 88<0 725> 206 95<644.5 673 673 725 644.5 725>
LayerCount: 2
Fore
SplineSet
155 0 m 1
 67 0 l 1
 67 725 l 1
 155 725 l 1
 155 0 l 1
301 725 m 1
 301 673 l 2
 301 616 287 581 260 550 c 1
 203 550 l 1
 234 583 249 614 249 643 c 1
 206 643 l 1
 206 725 l 1
 301 725 l 1
EndSplineSet
EndChar

StartChar: Ldot
Encoding: 319 319 255
Width: 556
GlyphClass: 2
Flags: MW
HStem: 0 76<175 523 175 523> 335 84<305 393 305 393> 668 20G<82 175 175 175>
VStem: 82 93<76 688 76 688 76 688> 305 88<335 419 335 419>
LayerCount: 2
Fore
SplineSet
523 0 m 1
 82 0 l 1
 82 688 l 1
 175 688 l 1
 175 76 l 1
 523 76 l 1
 523 0 l 1
393 335 m 1
 305 335 l 1
 305 419 l 1
 393 419 l 1
 393 335 l 1
EndSplineSet
EndChar

StartChar: ldot
Encoding: 320 320 256
Width: 334
GlyphClass: 2
Flags: MW
HStem: 0 21G<67 155 67 67> 335 84<233 321 233 321>
VStem: 67 88<0 725> 233 88<335 419 335 419>
LayerCount: 2
Fore
SplineSet
155 0 m 1
 67 0 l 1
 67 725 l 1
 155 725 l 1
 155 0 l 1
321 335 m 1
 233 335 l 1
 233 419 l 1
 321 419 l 1
 321 335 l 1
EndSplineSet
EndChar

StartChar: Lslash
Encoding: 321 321 257
Width: 556
GlyphClass: 2
Flags: MW
HStem: 0 76<175 523 175 523> 668 20G<82 175 175 175>
VStem: 82 93<76 263 263 263 76 394 394 688>
LayerCount: 2
Fore
SplineSet
301 466 m 1
 301 389 l 1
 175 316 l 1
 175 76 l 1
 523 76 l 1
 523 0 l 1
 82 0 l 1
 82 263 l 1
 10 221 l 1
 10 298 l 1
 82 340 l 1
 82 688 l 1
 175 688 l 1
 175 394 l 1
 301 466 l 1
EndSplineSet
EndChar

StartChar: lslash
Encoding: 322 322 258
Width: 222
GlyphClass: 2
Flags: MW
HStem: 0 21G<67 155 67 67>
VStem: 67 88<0 265 265 265 393 725>
LayerCount: 2
Fore
SplineSet
155 0 m 1
 67 0 l 1
 67 265 l 1
 8 231 l 1
 8 309 l 1
 67 342 l 1
 67 725 l 1
 155 725 l 1
 155 393 l 1
 216 428 l 1
 216 350 l 1
 155 315 l 1
 155 0 l 1
EndSplineSet
EndChar

StartChar: Nacute
Encoding: 323 323 259
Width: 722
GlyphClass: 2
Flags: MW
HStem: 0 21G<82 165 82 82 528 641 528 528> 0 98<563 563 563 641 528 563> 586 102<160 160> 668 20G<82 190 190 190 557 641 641 641> 853 14<399 500>
VStem: 82 83<0 457 0 688> 557 84<237 688>
LayerCount: 2
Fore
SplineSet
641 0 m 1x9e
 528 0 l 1
 160 586 l 1
 163 539 l 1xae
 165 457 l 1
 165 0 l 1
 82 0 l 1
 82 688 l 1
 190 688 l 1
 563 98 l 1x5e
 559 162 557 208 557 237 c 2
 557 688 l 1
 641 688 l 1
 641 0 l 1x9e
349 747 m 1
 293 747 l 1
 293 757 l 1
 399 867 l 1
 500 867 l 1
 500 853 l 1
 349 747 l 1
EndSplineSet
EndChar

StartChar: nacute
Encoding: 324 324 260
Width: 556
GlyphClass: 2
Flags: MW
HStem: 0 21G<71 159 71 71 405 493 405 405> 470 68<286.5 337.5> 508 20G<68 151 151 151> 722 14<331 432>
VStem: 71 88<0 306 0 416> 405 88<0 335 335 352>
LayerCount: 2
Fore
SplineSet
493 0 m 1xdc
 405 0 l 1
 405 335 l 2
 405 438 379 470 296 470 c 0xdc
 211 470 159 409 159 306 c 2
 159 0 l 1
 71 0 l 1
 71 416 l 2
 71 477 70 515 68 528 c 1
 151 528 l 2
 152 527 152 522 152 515 c 0xbc
 153 500 154 490 155 438 c 1
 157 438 l 1
 197 511 247 538 326 538 c 0
 442 538 493 485 493 352 c 2
 493 0 l 1xdc
271 586 m 1
 225 586 l 1
 225 596 l 1
 331 736 l 1
 432 736 l 1
 432 722 l 1
 271 586 l 1
EndSplineSet
EndChar

StartChar: Ncommaaccent
Encoding: 325 325 261
Width: 722
GlyphClass: 2
Flags: MW
HStem: -124 76<313 356 313 408> 0 21G<82 165 82 82 528 641 528 528> 0 98<563 563 563 641 528 563> 586 102<160 160> 668 20G<82 190 190 190 557 641 641 641>
VStem: 82 83<0 457 0 688> 313 95<-122.5 -94 -94 -48 -122.5 -48> 557 84<237 688>
LayerCount: 2
Fore
SplineSet
641 0 m 1xcf
 528 0 l 1
 160 586 l 1
 163 539 l 1xd7
 165 457 l 1
 165 0 l 1
 82 0 l 1
 82 688 l 1
 190 688 l 1
 563 98 l 1xaf
 559 162 557 208 557 237 c 2
 557 688 l 1
 641 688 l 1
 641 0 l 1xcf
408 -48 m 1
 408 -94 l 2
 408 -151 394 -181 367 -212 c 1
 310 -212 l 1
 339 -180 356 -153 356 -124 c 1
 313 -124 l 1
 313 -48 l 1
 408 -48 l 1
EndSplineSet
EndChar

StartChar: ncommaaccent
Encoding: 326 326 262
Width: 556
GlyphClass: 2
Flags: MW
HStem: -124 76<234 277 234 330> 0 21G<71 159 71 71 405 493 405 405> 470 68<286.5 337.5> 508 20G<68 151 151 151>
VStem: 71 88<0 306 0 416> 234 96<-122.5 -94 -94 -48 -122.5 -48> 405 88<0 335 335 352>
CounterMasks: 1 0e
LayerCount: 2
Fore
SplineSet
493 0 m 1xee
 405 0 l 1
 405 335 l 2
 405 438 379 470 296 470 c 0xee
 211 470 159 409 159 306 c 2
 159 0 l 1
 71 0 l 1
 71 416 l 2
 71 477 70 515 68 528 c 1
 151 528 l 2
 152 527 152 522 152 515 c 0xde
 153 500 154 490 155 438 c 1
 157 438 l 1
 197 511 247 538 326 538 c 0
 442 538 493 485 493 352 c 2
 493 0 l 1xee
330 -48 m 1
 330 -94 l 2
 330 -151 314 -181 289 -212 c 1
 231 -212 l 1
 260 -180 277 -153 277 -124 c 1
 234 -124 l 1
 234 -48 l 1
 330 -48 l 1
EndSplineSet
EndChar

StartChar: Ncaron
Encoding: 327 327 263
Width: 722
GlyphClass: 2
Flags: MW
HStem: 0 21G<82 165 82 82 528 641 528 528> 0 98<563 563 563 641 528 563> 586 102<160 160> 668 20G<82 190 190 190 557 641 641 641> 747 127<197 411 197 311>
VStem: 82 83<0 457 0 688> 557 84<237 688>
LayerCount: 2
Fore
SplineSet
641 0 m 1x9e
 528 0 l 1
 160 586 l 1
 163 539 l 1xae
 165 457 l 1
 165 0 l 1
 82 0 l 1
 82 688 l 1
 190 688 l 1
 563 98 l 1x5e
 559 162 557 208 557 237 c 2
 557 688 l 1
 641 688 l 1
 641 0 l 1x9e
520 864 m 1
 411 747 l 1
 311 747 l 1
 197 864 l 1
 197 874 l 1
 248 874 l 1
 361 806 l 1
 362 806 l 1
 469 874 l 1
 520 874 l 1
 520 864 l 1
EndSplineSet
EndChar

StartChar: ncaron
Encoding: 328 328 264
Width: 556
GlyphClass: 2
Flags: MW
HStem: 0 21G<71 159 71 71 405 493 405 405> 470 68<286.5 337.5> 508 20G<68 151 151 151> 586 142<118 332 118 232>
VStem: 71 88<0 306 0 416> 405 88<0 335 335 352>
LayerCount: 2
Fore
SplineSet
493 0 m 1xdc
 405 0 l 1
 405 335 l 2
 405 438 379 470 296 470 c 0xdc
 211 470 159 409 159 306 c 2
 159 0 l 1
 71 0 l 1
 71 416 l 2
 71 477 70 515 68 528 c 1
 151 528 l 2
 152 527 152 522 152 515 c 0xbc
 153 500 154 490 155 438 c 1
 157 438 l 1
 197 511 247 538 326 538 c 0
 442 538 493 485 493 352 c 2
 493 0 l 1xdc
441 718 m 1
 332 586 l 1
 232 586 l 1
 118 718 l 1
 118 728 l 1
 169 728 l 1
 282 646 l 1
 283 646 l 1
 390 728 l 1
 441 728 l 1
 441 718 l 1
EndSplineSet
EndChar

StartChar: napostrophe
Encoding: 329 329 265
Width: 604
GlyphClass: 2
Flags: MW
HStem: 0 21G<117 205 117 117 451 539 451 451> 465 63<-1 197> 470 68<332.5 383.5> 592 96<2 45 2 97>
VStem: 2 95<592 617 617 688 583 688> 117 88<0 306 0 416> 451 88<0 335 335 352>
LayerCount: 2
Fore
SplineSet
539 0 m 1xb6
 451 0 l 1
 451 335 l 2
 451 438 425 470 342 470 c 0xb6
 257 470 205 409 205 306 c 2
 205 0 l 1
 117 0 l 1
 117 416 l 2
 117 477 116 515 114 528 c 1
 197 528 l 2
 198 527 198 522 198 515 c 0xd6
 199 500 200 490 201 438 c 1
 203 438 l 1
 243 511 293 538 372 538 c 0
 487 538 539 485 539 352 c 2
 539 0 l 1xb6
97 688 m 1xde
 97 617 l 2
 97 549 86 506 59 465 c 1
 -1 465 l 1
 30 509 45 551 45 592 c 1
 2 592 l 1
 2 688 l 1
 97 688 l 1xde
EndSplineSet
EndChar

StartChar: Eng
Encoding: 330 330 266
Width: 723
GlyphClass: 2
Flags: MW
HStem: -10 75<444.5 474 444.5 506.5> 0 21G<83 176 83 83> 622 76<395 452.5> 668 20G<81 170 170 170>
VStem: 83 93<0 435 0 533> 558 92<267 424 424 434>
LayerCount: 2
Fore
SplineSet
459 -10 m 0xac
 398 -10 343 14 304 63 c 1
 366 119 l 1
 395 83 427 65 462 65 c 0
 486 65 505 71 518 84 c 0
 546 111 558 155 558 267 c 2
 558 424 l 2
 558 563 510 622 395 622 c 0xac
 278 625 173 533 176 435 c 2
 176 0 l 1
 83 0 l 1
 83 533 l 1
 81 688 l 1
 170 688 l 1x5c
 173 638 174 597 174 565 c 1
 176 565 l 1
 223 649 316 698 423 698 c 0
 583 698 650 618 650 434 c 2
 650 265 l 2
 650 192 644 137 631 100 c 0
 607 27 554 -10 459 -10 c 0xac
EndSplineSet
EndChar

StartChar: eng
Encoding: 331 331 267
Width: 556
GlyphClass: 2
Flags: MW
HStem: -208 70<362.5 366 344 415> 0 21G<71 159 71 71> 470 68<286.5 337.5> 508 20G<68 151 151 151>
VStem: 71 88<0 306 0 416> 405 88<-52 335 335 352>
LayerCount: 2
Fore
SplineSet
375 -208 m 0xec
 350 -208 330 -206 313 -203 c 1
 313 -135 l 1
 344 -138 l 1
 388 -138 405 -120 405 -52 c 2
 405 335 l 2
 405 438 379 470 296 470 c 0xec
 211 470 159 409 159 306 c 2
 159 0 l 1
 71 0 l 1
 71 416 l 2
 71 477 70 515 68 528 c 1
 151 528 l 2
 152 527 152 522 152 515 c 0xdc
 153 500 154 490 155 438 c 1
 157 438 l 1
 197 511 247 538 326 538 c 0
 442 538 493 485 493 352 c 2
 493 -65 l 2
 493 -164 455 -208 375 -208 c 0xec
EndSplineSet
EndChar

StartChar: Omacron
Encoding: 332 332 268
Width: 778
GlyphClass: 2
Flags: MW
HStem: -10 76<349.5 467.5 349.5 493> 622 76<335.5 467> 764 62<254 522 254 522>
VStem: 47 95<304 402> 254 268<764 826 764 826> 635 95<257.5 433>
LayerCount: 2
Fore
SplineSet
730 347 m 0
 730 129 598 -10 388 -10 c 0
 175 -10 47 128 47 347 c 0
 47 457 77 543 137 605 c 0
 198 667 282 698 389 698 c 0
 600 698 730 567 730 347 c 0
635 347 m 0
 635 519 545 622 389 622 c 0
 232 622 142 522 142 347 c 0
 142 261 164 193 207 142 c 0
 250 91 311 66 388 66 c 0
 547 66 635 168 635 347 c 0
522 826 m 1
 522 764 l 1
 254 764 l 1
 254 826 l 1
 522 826 l 1
EndSplineSet
EndChar

StartChar: omacron
Encoding: 333 333 269
Width: 556
GlyphClass: 2
Flags: MW
HStem: -10 65<226.5 327.5 226.5 353.5> 473 65<228.5 331.5> 604 62<144 412 144 412>
VStem: 42 92<195 336.5 195 356> 144 268<604 666 604 666> 422 92<193 337.5>
CounterMasks: 1 1c
LayerCount: 2
Fore
SplineSet
514 265 m 0
 514 80 431 -10 276 -10 c 0
 121 -10 42 86 42 265 c 0
 42 447 121 538 279 538 c 0
 440 538 514 452 514 265 c 0
422 265 m 0
 422 410 383 473 280 473 c 0
 177 473 134 408 134 265 c 0
 134 125 178 55 275 55 c 0
 380 55 422 121 422 265 c 0
412 666 m 1
 412 604 l 1
 144 604 l 1
 144 666 l 1
 412 666 l 1
EndSplineSet
EndChar

StartChar: Obreve
Encoding: 334 334 270
Width: 778
GlyphClass: 2
Flags: MW
HStem: -10 76<349.5 467.5 349.5 493> 622 76<335.5 467> 747 66<359.5 419 359.5 431.5>
VStem: 47 95<304 402> 635 95<257.5 433>
LayerCount: 2
Fore
SplineSet
730 347 m 0
 730 129 598 -10 388 -10 c 0
 175 -10 47 128 47 347 c 0
 47 457 77 543 137 605 c 0
 198 667 282 698 389 698 c 0
 600 698 730 567 730 347 c 0
635 347 m 0
 635 519 545 622 389 622 c 0
 232 622 142 522 142 347 c 0
 142 261 164 193 207 142 c 0
 250 91 311 66 388 66 c 0
 547 66 635 168 635 347 c 0
388 747 m 0
 301 747 238 796 226 869 c 1
 283 869 l 1
 295 834 330 813 389 813 c 0
 449 813 483 834 494 869 c 1
 551 869 l 1
 538 794 475 747 388 747 c 0
EndSplineSet
EndChar

StartChar: obreve
Encoding: 335 335 271
Width: 556
GlyphClass: 2
Flags: MW
HStem: -10 65<226.5 327.5 226.5 353.5> 473 65<228.5 331.5> 586 77<248.5 309.5 248.5 321.5>
VStem: 42 92<195 336.5 195 356> 422 92<193 337.5>
LayerCount: 2
Fore
SplineSet
514 265 m 0
 514 80 431 -10 276 -10 c 0
 121 -10 42 86 42 265 c 0
 42 447 121 538 279 538 c 0
 440 538 514 452 514 265 c 0
422 265 m 0
 422 410 383 473 280 473 c 0
 177 473 134 408 134 265 c 0
 134 125 178 55 275 55 c 0
 380 55 422 121 422 265 c 0
278 586 m 0
 191 586 128 646 116 737 c 1
 173 737 l 1
 182 688 218 663 279 663 c 0
 340 663 375 688 384 737 c 1
 441 737 l 1
 428 645 365 586 278 586 c 0
EndSplineSet
EndChar

StartChar: Ohungarumlaut
Encoding: 336 336 272
Width: 778
GlyphClass: 2
Flags: MW
HStem: -10 76<349.5 467.5 349.5 493> 622 76<335.5 467> 854 14<347 448>
VStem: 47 95<304 402> 635 95<257.5 433>
LayerCount: 2
Fore
SplineSet
730 347 m 0
 730 129 598 -10 388 -10 c 0
 175 -10 47 128 47 347 c 0
 47 457 77 543 137 605 c 0
 198 667 282 698 389 698 c 0
 600 698 730 567 730 347 c 0
635 347 m 0
 635 519 545 622 389 622 c 0
 232 622 142 522 142 347 c 0
 142 261 164 193 207 142 c 0
 250 91 311 66 388 66 c 0
 547 66 635 168 635 347 c 0
297 747 m 1
 251 747 l 1
 251 757 l 1
 347 868 l 1
 448 868 l 1
 448 854 l 1
 297 747 l 1
466 747 m 1
 420 747 l 1
 420 757 l 1
 517 868 l 1
 618 868 l 1
 618 854 l 1
 466 747 l 1
EndSplineSet
EndChar

StartChar: ohungarumlaut
Encoding: 337 337 273
Width: 556
GlyphClass: 2
Flags: MW
HStem: -10 65<226.5 327.5 226.5 353.5> 473 65<228.5 331.5> 722 14<246 347>
VStem: 42 92<195 336.5 195 356> 422 92<193 337.5>
LayerCount: 2
Fore
SplineSet
514 265 m 0
 514 80 431 -10 276 -10 c 0
 121 -10 42 86 42 265 c 0
 42 447 121 538 279 538 c 0
 440 538 514 452 514 265 c 0
422 265 m 0
 422 410 383 473 280 473 c 0
 177 473 134 408 134 265 c 0
 134 125 178 55 275 55 c 0
 380 55 422 121 422 265 c 0
186 586 m 1
 140 586 l 1
 140 596 l 1
 246 736 l 1
 347 736 l 1
 347 722 l 1
 186 586 l 1
355 586 m 1
 310 586 l 1
 310 596 l 1
 416 736 l 1
 517 736 l 1
 517 722 l 1
 355 586 l 1
EndSplineSet
EndChar

StartChar: OE
Encoding: 338 338 274
Width: 1000
GlyphClass: 2
Flags: MW
HStem: -5 76<332.5 398.5 309 408.5> 0 76<544 956 544 956 488 956> 316 75<544 907 544 907> 612 76<544 936 544 544> 617 76<333 391.5>
VStem: 47 95<292.5 401> 451 93<76 316 391 612>
LayerCount: 2
Fore
SplineSet
956 0 m 1x76
 488 0 l 2
 466 -3 432 -5 385 -5 c 0
 280 -5 198 26 137 89 c 0
 77 152 47 238 47 347 c 0
 47 455 77 540 137 601 c 0
 197 662 280 693 386 693 c 0xae
 421 693 455 691 490 688 c 2
 936 688 l 1
 936 612 l 1
 544 612 l 1
 544 391 l 1
 907 391 l 1
 907 316 l 1
 544 316 l 1
 544 76 l 1
 956 76 l 1
 956 0 l 1x76
385 71 m 0x76
 412 71 434 72 451 73 c 1
 451 615 l 1
 422 618 397 617 386 617 c 0
 227 617 142 522 142 347 c 0xae
 142 172 233 71 385 71 c 0x76
EndSplineSet
EndChar

StartChar: oe
Encoding: 339 339 275
Width: 944
GlyphClass: 2
Flags: MW
HStem: -10 65<231.5 326> 246 67<523 809 523 899 522 809> 473 65<232.5 329.5 205.5 337 624.5 709>
VStem: 42 92<195 334.5 195 355.5> 430 92<193 246 185.5 336.5> 809 90<246 313>
LayerCount: 2
Fore
SplineSet
899 246 m 1
 522 246 l 1
 522 125 574 56 670 56 c 0
 746 56 792 90 808 137 c 1
 885 115 l 1
 854 32 782 -10 670 -10 c 0
 581 -10 516 20 477 80 c 1
 436 20 371 -10 281 -10 c 0
 126 -10 42 86 42 265 c 0
 42 446 127 538 284 538 c 0
 375 538 440 509 478 452 c 1
 519 509 582 538 667 538 c 0
 822 538 899 444 899 257 c 2
 899 246 l 1
430 265 m 0
 430 408 389 473 285 473 c 0
 180 473 134 404 134 265 c 0
 134 125 183 55 280 55 c 0
 387 55 430 121 430 265 c 0
523 313 m 1
 809 313 l 1
 798 424 753 473 665 473 c 0
 580 473 527 413 523 313 c 1
EndSplineSet
EndChar

StartChar: Racute
Encoding: 340 340 276
Width: 722
GlyphClass: 2
Flags: MW
HStem: 0 21G<82 175 82 82 568 676 568 568> 286 73<175 390 175 400> 613 75<175 396 175 175> 853 14<376 477>
VStem: 82 93<0 286 0 359 359 613> 555 93<448.5 530>
LayerCount: 2
Fore
SplineSet
676 0 m 1
 568 0 l 1
 390 286 l 1
 175 286 l 1
 175 0 l 1
 82 0 l 1
 82 688 l 1
 406 688 l 2
 561 688 648 615 648 491 c 0
 648 390 585 315 480 296 c 1
 676 0 l 1
555 490 m 0
 555 570 499 613 396 613 c 2
 175 613 l 1
 175 359 l 1
 400 359 l 2
 499 359 555 407 555 490 c 0
326 747 m 1
 270 747 l 1
 270 757 l 1
 376 867 l 1
 477 867 l 1
 477 853 l 1
 326 747 l 1
EndSplineSet
EndChar

StartChar: racute
Encoding: 341 341 277
Width: 333
GlyphClass: 2
Flags: MW
HStem: 0 21G<69 157 69 69> 458 70 458 80<247.5 279.5> 513 20G<316 316> 722 14<230 331>
VStem: 69 88<0 275>
LayerCount: 2
Fore
SplineSet
157 0 m 1xac
 69 0 l 1
 69 405 l 2
 69 442 68 483 66 528 c 1
 149 528 l 1xcc
 152 468 153 432 153 420 c 1
 155 420 l 1
 183 511 214 538 281 538 c 0xac
 292 538 304 536 316 533 c 1x9c
 316 453 l 1
 305 456 289 458 270 458 c 0
 197 458 157 392 157 275 c 2
 157 0 l 1xac
170 586 m 1
 124 586 l 1
 124 596 l 1
 230 736 l 1
 331 736 l 1
 331 722 l 1
 170 586 l 1
EndSplineSet
EndChar

StartChar: Rcommaaccent
Encoding: 342 342 278
Width: 722
GlyphClass: 2
Flags: MW
HStem: -124 76<317 360 317 413> 0 21G<82 175 82 82 568 676 568 568> 286 73<175 390 175 400> 613 75<175 396 175 175>
VStem: 82 93<0 286 0 359 359 613> 317 96<-122.5 -94 -94 -48 -122.5 -48> 555 93<448.5 530>
CounterMasks: 1 0e
LayerCount: 2
Fore
SplineSet
676 0 m 1
 568 0 l 1
 390 286 l 1
 175 286 l 1
 175 0 l 1
 82 0 l 1
 82 688 l 1
 406 688 l 2
 561 688 648 615 648 491 c 0
 648 390 585 315 480 296 c 1
 676 0 l 1
555 490 m 0
 555 570 499 613 396 613 c 2
 175 613 l 1
 175 359 l 1
 400 359 l 2
 499 359 555 407 555 490 c 0
413 -48 m 1
 413 -94 l 2
 413 -151 397 -181 372 -212 c 1
 314 -212 l 1
 343 -180 360 -153 360 -124 c 1
 317 -124 l 1
 317 -48 l 1
 413 -48 l 1
EndSplineSet
EndChar

StartChar: rcommaaccent
Encoding: 343 343 279
Width: 333
GlyphClass: 2
Flags: MW
HStem: -124 76<66 109 66 161> 0 21G<69 157 69 69> 458 70 458 80<247.5 279.5> 513 20G<316 316>
VStem: 69 88<0 275> 109 52<-138.5 -94>
LayerCount: 2
Fore
SplineSet
157 0 m 1xd4
 69 0 l 1
 69 405 l 2
 69 442 68 483 66 528 c 1
 149 528 l 1xe4
 152 468 153 432 153 420 c 1
 155 420 l 1
 183 511 214 538 281 538 c 0xd4
 292 538 304 536 316 533 c 1xcc
 316 453 l 1
 305 456 289 458 270 458 c 0
 197 458 157 392 157 275 c 2
 157 0 l 1xd4
161 -48 m 1
 161 -94 l 2
 161 -151 147 -181 120 -212 c 1xd4
 63 -212 l 1
 92 -180 109 -153 109 -124 c 1xd2
 66 -124 l 1
 66 -48 l 1
 161 -48 l 1
EndSplineSet
EndChar

StartChar: Rcaron
Encoding: 344 344 280
Width: 722
GlyphClass: 2
Flags: MW
HStem: 0 21G<82 175 82 82 568 676 568 568> 286 73<175 390 175 400> 613 75<175 396 175 175> 747 127<175 389 175 289>
VStem: 82 93<0 286 0 359 359 613> 555 93<448.5 530>
LayerCount: 2
Fore
SplineSet
676 0 m 1
 568 0 l 1
 390 286 l 1
 175 286 l 1
 175 0 l 1
 82 0 l 1
 82 688 l 1
 406 688 l 2
 561 688 648 615 648 491 c 0
 648 390 585 315 480 296 c 1
 676 0 l 1
555 490 m 0
 555 570 499 613 396 613 c 2
 175 613 l 1
 175 359 l 1
 400 359 l 2
 499 359 555 407 555 490 c 0
498 864 m 1
 389 747 l 1
 289 747 l 1
 175 864 l 1
 175 874 l 1
 226 874 l 1
 339 806 l 1
 340 806 l 1
 447 874 l 1
 498 874 l 1
 498 864 l 1
EndSplineSet
EndChar

StartChar: rcaron
Encoding: 345 345 281
Width: 333
GlyphClass: 2
Flags: MW
HStem: 0 21G<69 157 69 69> 458 70 458 80<247.5 279.5> 513 20G<316 316> 586 142<27 241 27 142>
VStem: 69 88<0 275>
LayerCount: 2
Fore
SplineSet
157 0 m 1xac
 69 0 l 1
 69 405 l 2
 69 442 68 483 66 528 c 1
 149 528 l 1xcc
 152 468 153 432 153 420 c 1
 155 420 l 1
 183 511 214 538 281 538 c 0xac
 292 538 304 536 316 533 c 1x9c
 316 453 l 1
 305 456 289 458 270 458 c 0
 197 458 157 392 157 275 c 2
 157 0 l 1xac
351 718 m 1
 241 586 l 1
 142 586 l 1
 27 718 l 1
 27 728 l 1
 78 728 l 1
 191 646 l 1
 192 646 l 1
 299 728 l 1
 351 728 l 1
 351 718 l 1
EndSplineSet
EndChar

StartChar: Sacute
Encoding: 346 346 282
Width: 667
GlyphClass: 2
Flags: MW
HStem: -10 73<282 400.5 282 427> 628 70<282.5 388> 883 14<380 481>
VStem: 78 90<508.5 555 508.5 573.5> 529 92<145 230>
LayerCount: 2
Fore
SplineSet
621 190 m 0
 621 63 517 -10 337 -10 c 0
 169 -10 72 48 45 165 c 1
 136 183 l 1
 156 100 224 63 340 63 c 0
 461 63 529 105 529 185 c 0
 529 275 442 291 318 317 c 0
 210 341 160 365 128 394 c 0
 96 423 78 463 78 514 c 0
 78 633 171 698 339 698 c 0
 495 698 572 655 605 540 c 1
 513 524 l 1
 493 597 438 628 338 628 c 0
 227 628 168 591 168 519 c 0
 168 498 174 480 185 466 c 0
 196 453 213 441 234 431 c 0
 255 422 297 410 360 396 c 0
 487 368 621 339 621 190 c 0
320 747 m 1
 274 747 l 1
 274 757 l 1
 380 897 l 1
 481 897 l 1
 481 883 l 1
 320 747 l 1
EndSplineSet
EndChar

StartChar: sacute
Encoding: 347 347 283
Width: 500
GlyphClass: 2
Flags: MW
HStem: -10 67<208 294 208 317.5> 470 67<210.5 286> 722 14<294 395>
VStem: 49 85<389.5 421.5 389.5 437> 378 86<111.5 159.5>
LayerCount: 2
Fore
SplineSet
464 146 m 0
 464 46 385 -10 250 -10 c 0
 118 -10 49 32 28 124 c 1
 105 139 l 1
 121 83 166 57 250 57 c 0
 338 57 378 84 378 139 c 0
 378 180 351 205 288 222 c 2
 225 239 l 2
 174 252 138 264 117 277 c 0
 74 302 49 337 49 389 c 0
 49 485 119 537 250 537 c 0
 367 537 436 498 455 407 c 1
 375 397 l 1
 366 445 322 470 250 470 c 0
 171 470 134 446 134 397 c 0
 134 382 138 370 146 360 c 0
 154 351 166 342 181 335 c 0
 196 328 228 319 277 307 c 0
 324 296 357 285 378 275 c 0
 399 265 415 254 426 242 c 0
 450 218 464 186 464 146 c 0
234 586 m 1
 188 586 l 1
 188 596 l 1
 294 736 l 1
 395 736 l 1
 395 722 l 1
 234 586 l 1
EndSplineSet
EndChar

StartChar: Scircumflex
Encoding: 348 348 284
Width: 667
GlyphClass: 2
Flags: MW
HStem: -10 73<282 400.5 282 427> 628 70<282.5 388> 747 127<181 395 181 395 295 504 295 453>
VStem: 78 90<508.5 555 508.5 573.5> 529 92<145 230>
LayerCount: 2
Fore
SplineSet
621 190 m 0
 621 63 517 -10 337 -10 c 0
 169 -10 72 48 45 165 c 1
 136 183 l 1
 156 100 224 63 340 63 c 0
 461 63 529 105 529 185 c 0
 529 275 442 291 318 317 c 0
 210 341 160 365 128 394 c 0
 96 423 78 463 78 514 c 0
 78 633 171 698 339 698 c 0
 495 698 572 655 605 540 c 1
 513 524 l 1
 493 597 438 628 338 628 c 0
 227 628 168 591 168 519 c 0
 168 498 174 480 185 466 c 0
 196 453 213 441 234 431 c 0
 255 422 297 410 360 396 c 0
 487 368 621 339 621 190 c 0
395 874 m 1
 504 757 l 1
 504 747 l 1
 453 747 l 1
 346 815 l 1
 345 815 l 1
 231 747 l 1
 181 747 l 1
 181 757 l 1
 295 874 l 1
 395 874 l 1
EndSplineSet
EndChar

StartChar: scircumflex
Encoding: 349 349 285
Width: 500
GlyphClass: 2
Flags: MW
HStem: -10 67<208 294 208 317.5> 470 67<210.5 286> 586 142<84 298 84 298 198 407 198 356>
VStem: 49 85<389.5 421.5 389.5 437> 378 86<111.5 159.5>
LayerCount: 2
Fore
SplineSet
464 146 m 0
 464 46 385 -10 250 -10 c 0
 118 -10 49 32 28 124 c 1
 105 139 l 1
 121 83 166 57 250 57 c 0
 338 57 378 84 378 139 c 0
 378 180 351 205 288 222 c 2
 225 239 l 2
 174 252 138 264 117 277 c 0
 74 302 49 337 49 389 c 0
 49 485 119 537 250 537 c 0
 367 537 436 498 455 407 c 1
 375 397 l 1
 366 445 322 470 250 470 c 0
 171 470 134 446 134 397 c 0
 134 382 138 370 146 360 c 0
 154 351 166 342 181 335 c 0
 196 328 228 319 277 307 c 0
 324 296 357 285 378 275 c 0
 399 265 415 254 426 242 c 0
 450 218 464 186 464 146 c 0
298 728 m 1
 407 596 l 1
 407 586 l 1
 356 586 l 1
 249 669 l 1
 248 669 l 1
 135 586 l 1
 84 586 l 1
 84 596 l 1
 198 728 l 1
 298 728 l 1
EndSplineSet
EndChar

StartChar: Scedilla
Encoding: 350 350 286
Width: 667
GlyphClass: 2
Flags: MW
HStem: -212 47<300 330 300 352.5> -88 39<306 350> -10 10<317 369 317 427> -10 73<282 400.5 282 427> 628 70<282.5 388>
VStem: 78 90<508.5 555 508.5 573.5> 378 64<-138.5 -112.5> 529 92<145 230>
LayerCount: 2
Fore
SplineSet
621 190 m 0xef
 621 63 517 -10 337 -10 c 0xef
 169 -10 72 48 45 165 c 1
 136 183 l 1
 156 100 224 63 340 63 c 0xdf
 461 63 529 105 529 185 c 0
 529 275 442 291 318 317 c 0
 210 341 160 365 128 394 c 0
 96 423 78 463 78 514 c 0
 78 633 171 698 339 698 c 0
 495 698 572 655 605 540 c 1
 513 524 l 1
 493 597 438 628 338 628 c 0
 227 628 168 591 168 519 c 0
 168 498 174 480 185 466 c 0
 196 453 213 441 234 431 c 0
 255 422 297 410 360 396 c 0
 487 368 621 339 621 190 c 0xef
442 -124 m 0
 442 -183 397 -212 308 -212 c 0
 289 -212 275 -211 264 -210 c 1
 264 -162 l 1
 280 -164 294 -165 306 -165 c 0
 354 -165 378 -152 378 -125 c 0
 378 -100 356 -88 313 -88 c 0
 299 -88 290 -88 285 -89 c 1
 317 0 l 1
 369 0 l 1
 350 -49 l 1
 411 -50 442 -79 442 -124 c 0
EndSplineSet
EndChar

StartChar: scedilla
Encoding: 351 351 287
Width: 500
GlyphClass: 2
Flags: MW
HStem: -212 47<200.5 230.5 200.5 252.5> -88 39<206 250> -10 10<217 270 217 317.5> -10 67<208 294 208 317.5> 470 67<210.5 286>
VStem: 49 85<389.5 421.5 389.5 437> 278 64<-138.5 -112.5> 378 86<111.5 159.5>
LayerCount: 2
Fore
SplineSet
464 146 m 0xef
 464 46 385 -10 250 -10 c 0xef
 118 -10 49 32 28 124 c 1
 105 139 l 1
 121 83 166 57 250 57 c 0
 338 57 378 84 378 139 c 0xdf
 378 180 351 205 288 222 c 2
 225 239 l 2
 174 252 138 264 117 277 c 0
 74 302 49 337 49 389 c 0
 49 485 119 537 250 537 c 0
 367 537 436 498 455 407 c 1
 375 397 l 1
 366 445 322 470 250 470 c 0
 171 470 134 446 134 397 c 0
 134 382 138 370 146 360 c 0
 154 351 166 342 181 335 c 0
 196 328 228 319 277 307 c 0
 324 296 357 285 378 275 c 0
 399 265 415 254 426 242 c 0
 450 218 464 186 464 146 c 0xef
342 -124 m 0
 342 -183 297 -212 208 -212 c 0
 190 -212 176 -211 165 -210 c 1
 165 -162 l 1
 180 -164 194 -165 207 -165 c 0
 254 -165 278 -152 278 -125 c 0
 278 -100 256 -88 213 -88 c 0
 199 -88 190 -88 186 -89 c 2
 217 0 l 1
 270 0 l 1
 250 -49 l 1
 311 -50 342 -79 342 -124 c 0
EndSplineSet
EndChar

StartChar: Scaron
Encoding: 352 352 288
Width: 667
GlyphClass: 2
Flags: MW
HStem: -10 73<282 400.5 282 427> 628 70<282.5 388> 747 127<181 395 181 295>
VStem: 78 90<508.5 555 508.5 573.5> 529 92<145 230>
LayerCount: 2
Fore
SplineSet
621 190 m 0
 621 63 517 -10 337 -10 c 0
 169 -10 72 48 45 165 c 1
 136 183 l 1
 156 100 224 63 340 63 c 0
 461 63 529 105 529 185 c 0
 529 275 442 291 318 317 c 0
 210 341 160 365 128 394 c 0
 96 423 78 463 78 514 c 0
 78 633 171 698 339 698 c 0
 495 698 572 655 605 540 c 1
 513 524 l 1
 493 597 438 628 338 628 c 0
 227 628 168 591 168 519 c 0
 168 498 174 480 185 466 c 0
 196 453 213 441 234 431 c 0
 255 422 297 410 360 396 c 0
 487 368 621 339 621 190 c 0
504 864 m 1
 395 747 l 1
 295 747 l 1
 181 864 l 1
 181 874 l 1
 232 874 l 1
 345 806 l 1
 346 806 l 1
 453 874 l 1
 504 874 l 1
 504 864 l 1
EndSplineSet
EndChar

StartChar: scaron
Encoding: 353 353 289
Width: 500
GlyphClass: 2
Flags: MW
HStem: -10 67<208 294 208 317.5> 470 67<210.5 286> 586 142<84 298 84 199>
VStem: 49 85<389.5 421.5 389.5 437> 378 86<111.5 159.5>
LayerCount: 2
Fore
SplineSet
464 146 m 0
 464 46 385 -10 250 -10 c 0
 118 -10 49 32 28 124 c 1
 105 139 l 1
 121 83 166 57 250 57 c 0
 338 57 378 84 378 139 c 0
 378 180 351 205 288 222 c 2
 225 239 l 2
 174 252 138 264 117 277 c 0
 74 302 49 337 49 389 c 0
 49 485 119 537 250 537 c 0
 367 537 436 498 455 407 c 1
 375 397 l 1
 366 445 322 470 250 470 c 0
 171 470 134 446 134 397 c 0
 134 382 138 370 146 360 c 0
 154 351 166 342 181 335 c 0
 196 328 228 319 277 307 c 0
 324 296 357 285 378 275 c 0
 399 265 415 254 426 242 c 0
 450 218 464 186 464 146 c 0
408 718 m 1
 298 586 l 1
 199 586 l 1
 84 718 l 1
 84 728 l 1
 135 728 l 1
 249 646 l 1
 250 646 l 1
 356 728 l 1
 408 728 l 1
 408 718 l 1
EndSplineSet
EndChar

StartChar: uni0162
Encoding: 354 354 290
Width: 611
GlyphClass: 2
Flags: MW
HStem: -212 47<265 295 265 317.5> -88 88<271 299.5> 0 21G<259 352 259 259 282 334 334 334> 612 76<22 259 22 588 352 588 352 352>
VStem: 259 93<0 612 0 612> 343 64<-138.5 -112.5>
LayerCount: 2
Fore
SplineSet
588 612 m 1xb8
 352 612 l 1
 352 0 l 1
 259 0 l 1
 259 612 l 1
 22 612 l 1
 22 688 l 1
 588 688 l 1
 588 612 l 1xb8
407 -124 m 0xd4
 407 -183 362 -212 273 -212 c 0
 254 -212 240 -211 229 -210 c 1
 229 -162 l 1
 245 -164 259 -165 271 -165 c 0
 319 -165 343 -152 343 -125 c 0
 343 -100 321 -88 278 -88 c 0
 264 -88 255 -88 250 -89 c 1
 282 0 l 1xd4
 334 0 l 1xb4
 315 -49 l 1
 376 -50 407 -79 407 -124 c 0xd4
EndSplineSet
EndChar

StartChar: uni0163
Encoding: 355 355 291
Width: 278
GlyphClass: 2
Flags: MW
HStem: -212 47<133 163 133 185.5> -88 39<139 183> -8 8<150 197> 464 64<15 76 15 80 164 262>
VStem: 76 88<112 131 131 464> 211 64<-138.5 -112.5>
LayerCount: 2
Fore
SplineSet
271 69 m 1
 271 4 l 1
 242 -4 212 -8 182 -8 c 0
 111 -8 76 32 76 112 c 2
 76 464 l 1
 15 464 l 1
 15 528 l 1
 80 528 l 1
 105 646 l 1
 164 646 l 1
 164 528 l 1
 262 528 l 1
 262 464 l 1
 164 464 l 1
 164 131 l 2
 164 80 179 62 220 62 c 0
 231 62 248 64 271 69 c 1
275 -124 m 0
 275 -183 230 -212 141 -212 c 0
 122 -212 108 -211 97 -210 c 1
 97 -162 l 1
 113 -164 127 -165 139 -165 c 0
 187 -165 211 -152 211 -125 c 0
 211 -100 189 -88 146 -88 c 0
 132 -88 123 -88 118 -89 c 1
 150 0 l 1
 202 0 l 1
 183 -49 l 1
 244 -50 275 -79 275 -124 c 0
EndSplineSet
EndChar

StartChar: Tcaron
Encoding: 356 356 292
Width: 611
GlyphClass: 2
Flags: MW
HStem: 0 21G<259 352 259 259> 612 76<22 259 22 588 352 588 352 352> 747 127<141 355 141 255>
VStem: 259 93<0 612 0 612>
LayerCount: 2
Fore
SplineSet
588 612 m 1
 352 612 l 1
 352 0 l 1
 259 0 l 1
 259 612 l 1
 22 612 l 1
 22 688 l 1
 588 688 l 1
 588 612 l 1
464 864 m 1
 355 747 l 1
 255 747 l 1
 141 864 l 1
 141 874 l 1
 192 874 l 1
 305 806 l 1
 306 806 l 1
 413 874 l 1
 464 874 l 1
 464 864 l 1
EndSplineSet
EndChar

StartChar: tcaron
Encoding: 357 357 293
Width: 375
GlyphClass: 2
Flags: MW
HStem: -8 70<146.5 225.5> 464 64<15 76 15 80 164 262> 643 82<288 331 288 383>
VStem: 76 88<112 131 131 464> 288 95<644.5 673 673 725 644.5 725>
LayerCount: 2
Fore
SplineSet
271 69 m 1
 271 4 l 1
 242 -4 212 -8 182 -8 c 0
 111 -8 76 32 76 112 c 2
 76 464 l 1
 15 464 l 1
 15 528 l 1
 80 528 l 1
 105 646 l 1
 164 646 l 1
 164 528 l 1
 262 528 l 1
 262 464 l 1
 164 464 l 1
 164 131 l 2
 164 80 179 62 220 62 c 0
 231 62 248 64 271 69 c 1
383 725 m 1
 383 673 l 2
 383 616 369 581 342 550 c 1
 285 550 l 1
 316 583 331 614 331 643 c 1
 288 643 l 1
 288 725 l 1
 383 725 l 1
EndSplineSet
EndChar

StartChar: Tbar
Encoding: 358 358 294
Width: 611
GlyphClass: 2
Flags: MW
HStem: 0 21G<259 352 259 259> 316 75<123 259 123 259 352 489> 612 76<22 259 22 588 352 588 352 352>
VStem: 259 93<0 316 0 316 391 612>
LayerCount: 2
Fore
SplineSet
588 612 m 1
 352 612 l 1
 352 391 l 1
 489 391 l 1
 489 316 l 1
 352 316 l 1
 352 0 l 1
 259 0 l 1
 259 316 l 1
 123 316 l 1
 123 391 l 1
 259 391 l 1
 259 612 l 1
 22 612 l 1
 22 688 l 1
 588 688 l 1
 588 612 l 1
EndSplineSet
EndChar

StartChar: tbar
Encoding: 359 359 295
Width: 278
GlyphClass: 2
Flags: MW
HStem: -8 70<146.5 225.5> 252 64<15 76 15 76 164 262> 464 64<15 76 15 80 164 262>
VStem: 76 88<112 131 131 252 316 464>
LayerCount: 2
Fore
SplineSet
262 252 m 1
 164 252 l 1
 164 131 l 2
 164 80 179 62 220 62 c 0
 231 62 248 64 271 69 c 1
 271 4 l 1
 242 -4 212 -8 182 -8 c 0
 111 -8 76 32 76 112 c 2
 76 252 l 1
 15 252 l 1
 15 316 l 1
 76 316 l 1
 76 464 l 1
 15 464 l 1
 15 528 l 1
 80 528 l 1
 105 646 l 1
 164 646 l 1
 164 528 l 1
 262 528 l 1
 262 464 l 1
 164 464 l 1
 164 316 l 1
 262 316 l 1
 262 252 l 1
EndSplineSet
EndChar

StartChar: Utilde
Encoding: 360 360 296
Width: 722
GlyphClass: 2
Flags: MW
HStem: -10 76<296 418 296 444.5> 668 20G<77 170 170 170 552 645 645 645> 747 73<414.5 450.5 414.5 465.5> 805 73<285 308>
VStem: 77 93<250 258 258 688> 186 44<747 747> 491 45<878 878> 552 93<264 688>
LayerCount: 2
Fore
SplineSet
357 -10 m 0xe9
 187 -10 77 87 77 250 c 2
 77 688 l 1
 170 688 l 1
 170 258 l 2
 170 133 236 66 356 66 c 0
 480 66 552 135 552 264 c 2
 552 688 l 1
 645 688 l 1
 645 259 l 2
 645 90 532 -10 357 -10 c 0xe9
438 747 m 0xeb
 382 747 328 805 288 805 c 0
 252 805 237 784 230 747 c 1
 186 747 l 1xdd
 197 843 223 873 285 878 c 1
 344 878 395 820 434 820 c 0
 467 820 486 839 491 878 c 1
 536 878 l 1
 525 782 493 747 438 747 c 0xeb
EndSplineSet
EndChar

StartChar: utilde
Encoding: 361 361 297
Width: 556
GlyphClass: 2
Flags: MW
HStem: -10 68<220.5 272> 0 21G<407 490 407 407> 508 20G<65 153 153 153 399 487 487 487> 586 73<338 373.5 338 388> 645 72<208 231>
VStem: 65 88<176 193 193 528> 399 88<222 528> 414 45<717 717>
LayerCount: 2
Fore
SplineSet
65 528 m 1xb6
 153 528 l 1
 153 193 l 2
 153 90 179 58 262 58 c 0xb6
 347 58 399 119 399 222 c 2
 399 528 l 1
 487 528 l 1
 487 113 l 2
 487 52 488 14 490 0 c 1
 407 0 l 2
 406 1 406 6 405 13 c 0x76
 405 28 404 39 403 90 c 1
 401 90 l 1
 361 18 312 -10 232 -10 c 0
 117 -10 65 44 65 176 c 2
 65 528 l 1xb6
360 586 m 0xb5
 306 586 251 645 211 645 c 0
 175 645 160 623 153 586 c 1
 109 586 l 1xae
 120 683 146 712 208 717 c 1
 266 717 319 659 357 659 c 0
 390 659 409 678 414 717 c 1
 459 717 l 1
 448 621 416 586 360 586 c 0xb5
EndSplineSet
EndChar

StartChar: Umacron
Encoding: 362 362 298
Width: 722
GlyphClass: 2
Flags: MW
HStem: -10 76<296 418 296 444.5> 668 20G<77 170 170 170 552 645 645 645> 764 62<228 496 228 496>
VStem: 77 93<250 258 258 688> 228 268<764 826 764 826> 552 93<264 688>
LayerCount: 2
Fore
SplineSet
357 -10 m 0
 187 -10 77 87 77 250 c 2
 77 688 l 1
 170 688 l 1
 170 258 l 2
 170 133 236 66 356 66 c 0
 480 66 552 135 552 264 c 2
 552 688 l 1
 645 688 l 1
 645 259 l 2
 645 90 532 -10 357 -10 c 0
496 826 m 1
 496 764 l 1
 228 764 l 1
 228 826 l 1
 496 826 l 1
EndSplineSet
EndChar

StartChar: umacron
Encoding: 363 363 299
Width: 556
GlyphClass: 2
Flags: MW
HStem: -10 68<220.5 272> 0 21G<407 490 407 407> 508 20G<65 153 153 153 399 487 487 487> 604 62<142 410 142 410>
VStem: 65 88<176 193 193 528> 142 268<604 666 604 666> 399 88<222 528>
LayerCount: 2
Fore
SplineSet
65 528 m 1xba
 153 528 l 1
 153 193 l 2
 153 90 179 58 262 58 c 0xba
 347 58 399 119 399 222 c 2
 399 528 l 1
 487 528 l 1
 487 113 l 2
 487 52 488 14 490 0 c 1
 407 0 l 2
 406 1 406 6 405 13 c 0x7a
 405 28 404 39 403 90 c 1
 401 90 l 1
 361 18 312 -10 232 -10 c 0
 117 -10 65 44 65 176 c 2
 65 528 l 1xba
410 666 m 1xb4
 410 604 l 1
 142 604 l 1
 142 666 l 1
 410 666 l 1xb4
EndSplineSet
EndChar

StartChar: Ubreve
Encoding: 364 364 300
Width: 722
GlyphClass: 2
Flags: MW
HStem: -10 76<296 418 296 444.5> 668 20G<77 170 170 170 552 645 645 645> 747 66<331.5 391 331.5 403.5>
VStem: 77 93<250 258 258 688> 552 93<264 688>
LayerCount: 2
Fore
SplineSet
357 -10 m 0
 187 -10 77 87 77 250 c 2
 77 688 l 1
 170 688 l 1
 170 258 l 2
 170 133 236 66 356 66 c 0
 480 66 552 135 552 264 c 2
 552 688 l 1
 645 688 l 1
 645 259 l 2
 645 90 532 -10 357 -10 c 0
360 747 m 0
 273 747 210 796 198 869 c 1
 255 869 l 1
 267 834 302 813 361 813 c 0
 421 813 455 834 466 869 c 1
 523 869 l 1
 510 794 447 747 360 747 c 0
EndSplineSet
EndChar

StartChar: ubreve
Encoding: 365 365 301
Width: 556
GlyphClass: 2
Flags: MW
HStem: -10 68<220.5 272> 0 21G<407 490 407 407> 508 20G<65 153 153 153 399 487 487 487> 586 77<245.5 306.5 245.5 319>
VStem: 65 88<176 193 193 528> 399 88<222 528>
LayerCount: 2
Fore
SplineSet
65 528 m 1xbc
 153 528 l 1
 153 193 l 2
 153 90 179 58 262 58 c 0xbc
 347 58 399 119 399 222 c 2
 399 528 l 1
 487 528 l 1
 487 113 l 2
 487 52 488 14 490 0 c 1
 407 0 l 2
 406 1 406 6 405 13 c 0x7c
 405 28 404 39 403 90 c 1
 401 90 l 1
 361 18 312 -10 232 -10 c 0
 117 -10 65 44 65 176 c 2
 65 528 l 1xbc
275 586 m 0
 190 586 125 646 113 737 c 1
 170 737 l 1
 179 688 215 663 276 663 c 0
 337 663 372 688 381 737 c 1
 438 737 l 1
 425 645 363 586 275 586 c 0
EndSplineSet
EndChar

StartChar: Uring
Encoding: 366 366 302
Width: 722
GlyphClass: 2
Flags: MW
HStem: -10 76<296 418 296 444.5> 668 20G<77 170 170 170 552 645 645 645> 669 52<345 377.5> 853 52<345 377.5 345 379.5>
VStem: 77 93<250 258 258 688> 243 52<771.5 804.5> 427 52<771.5 804 771.5 806> 552 93<264 688>
LayerCount: 2
Fore
SplineSet
357 -10 m 0xdf
 187 -10 77 87 77 250 c 2
 77 688 l 1
 170 688 l 1
 170 258 l 2
 170 133 236 66 356 66 c 0
 480 66 552 135 552 264 c 2
 552 688 l 1
 645 688 l 1
 645 259 l 2
 645 90 532 -10 357 -10 c 0xdf
479 788 m 0
 479 755 467 727 444 704 c 0
 421 681 394 669 361 669 c 0
 329 669 301 681 278 704 c 0xbf
 255 727 243 755 243 788 c 0
 243 821 255 848 278 871 c 0
 301 894 329 905 361 905 c 0
 394 905 421 893 444 870 c 0
 467 847 479 820 479 788 c 0
427 788 m 0
 427 824 398 853 361 853 c 0
 324 853 295 824 295 788 c 0
 295 752 324 721 361 721 c 0
 400 721 427 751 427 788 c 0
EndSplineSet
EndChar

StartChar: uring
Encoding: 367 367 303
Width: 556
GlyphClass: 2
Flags: MW
HStem: -10 68<220.5 272> 0 21G<407 490 407 407> 508 20G<65 153 153 153 399 487 487 487> 570 52<261.5 294.5> 754 52<261.5 294 261.5 296>
VStem: 65 88<176 193 193 528> 160 52<672 704.5> 343 53<672 704.5 672 706.5> 399 88<222 528>
LayerCount: 2
Fore
SplineSet
65 528 m 1xbc80
 153 528 l 1
 153 193 l 2
 153 90 179 58 262 58 c 0xbc80
 347 58 399 119 399 222 c 2
 399 528 l 1
 487 528 l 1
 487 113 l 2
 487 52 488 14 490 0 c 1
 407 0 l 2
 406 1 406 6 405 13 c 0x7c80
 405 28 404 39 403 90 c 1
 401 90 l 1
 361 18 312 -10 232 -10 c 0
 117 -10 65 44 65 176 c 2
 65 528 l 1xbc80
396 688 m 0xbb
 396 656 384 628 361 605 c 0
 338 582 311 570 278 570 c 0
 245 570 217 582 194 605 c 0
 171 628 160 656 160 688 c 0
 160 721 171 749 194 772 c 0
 217 795 245 806 278 806 c 0
 310 806 338 794 361 771 c 0
 384 748 396 721 396 688 c 0xbb
343 688 m 0
 343 725 314 754 278 754 c 0
 241 754 212 725 212 688 c 0
 212 653 239 622 278 622 c 0
 315 622 343 652 343 688 c 0
EndSplineSet
EndChar

StartChar: Uhungarumlaut
Encoding: 368 368 304
Width: 722
GlyphClass: 2
Flags: MW
HStem: -10 76<296 418 296 444.5> 668 20G<77 170 170 170 552 645 645 645> 854 14<313 415>
VStem: 77 93<250 258 258 688> 552 93<264 688>
LayerCount: 2
Fore
SplineSet
357 -10 m 0
 187 -10 77 87 77 250 c 2
 77 688 l 1
 170 688 l 1
 170 258 l 2
 170 133 236 66 356 66 c 0
 480 66 552 135 552 264 c 2
 552 688 l 1
 645 688 l 1
 645 259 l 2
 645 90 532 -10 357 -10 c 0
263 747 m 1
 217 747 l 1
 217 757 l 1
 313 868 l 1
 415 868 l 1
 415 854 l 1
 263 747 l 1
433 747 m 1
 387 747 l 1
 387 757 l 1
 483 868 l 1
 584 868 l 1
 584 854 l 1
 433 747 l 1
EndSplineSet
EndChar

StartChar: uhungarumlaut
Encoding: 369 369 305
Width: 556
GlyphClass: 2
Flags: MW
HStem: -10 68<220.5 272> 0 21G<407 490 407 407> 508 20G<65 153 153 153 399 487 487 487> 722 14<244 345>
VStem: 65 88<176 193 193 528> 399 88<222 528>
LayerCount: 2
Fore
SplineSet
65 528 m 1xbc
 153 528 l 1
 153 193 l 2
 153 90 179 58 262 58 c 0xbc
 347 58 399 119 399 222 c 2
 399 528 l 1
 487 528 l 1
 487 113 l 2
 487 52 488 14 490 0 c 1
 407 0 l 2
 406 1 406 6 405 13 c 0x7c
 405 28 404 39 403 90 c 1
 401 90 l 1
 361 18 312 -10 232 -10 c 0
 117 -10 65 44 65 176 c 2
 65 528 l 1xbc
184 586 m 1
 138 586 l 1
 138 596 l 1
 244 736 l 1
 345 736 l 1
 345 722 l 1
 184 586 l 1
354 586 m 1
 308 586 l 1
 308 596 l 1
 414 736 l 1
 515 736 l 1
 515 722 l 1
 354 586 l 1
EndSplineSet
EndChar

StartChar: Uogonek
Encoding: 370 370 306
Width: 722
GlyphClass: 2
Flags: MW
HStem: -208 53<404.5 420.5> -10 10<380 444.5> -10 76<296 418 296 444.5> 668 20G<77 170 170 170 552 645 645 645>
VStem: 77 93<250 258 258 688> 305 69<-124.5 -94.5> 552 93<264 688>
LayerCount: 2
Fore
SplineSet
357 -10 m 0xda
 187 -10 77 87 77 250 c 2
 77 688 l 1
 170 688 l 1
 170 258 l 2
 170 133 236 66 356 66 c 0xba
 480 66 552 135 552 264 c 2
 552 688 l 1
 645 688 l 1
 645 259 l 2
 645 90 532 -10 357 -10 c 0xda
476 -143 m 1
 476 -195 l 1
 455 -204 433 -208 408 -208 c 0
 339 -208 305 -173 305 -117 c 0
 305 -72 336 -25 380 0 c 1
 445 0 l 1
 413 -19 374 -60 374 -111 c 0
 374 -138 390 -155 419 -155 c 0xde
 437 -155 456 -151 476 -143 c 1
EndSplineSet
EndChar

StartChar: uogonek
Encoding: 371 371 307
Width: 556
GlyphClass: 2
Flags: MW
HStem: -208 53<431.5 447.5> -10 68<220.5 272> 0 21G<407 490 407 472 407 407 472 472> 508 20G<65 153 153 153 399 487 487 487>
VStem: 65 88<176 193 193 528> 332 68<-124.5 -94.5> 399 88<222 528>
LayerCount: 2
Fore
SplineSet
65 528 m 1xda
 153 528 l 1
 153 193 l 2
 153 90 179 58 262 58 c 0xda
 347 58 399 119 399 222 c 2
 399 528 l 1
 487 528 l 1
 487 113 l 2
 487 52 488 14 490 0 c 1
 407 0 l 2
 406 1 406 6 405 13 c 0xba
 405 28 404 39 403 90 c 1
 401 90 l 1
 361 18 312 -10 232 -10 c 0
 117 -10 65 44 65 176 c 2
 65 528 l 1xda
502 -143 m 1
 502 -195 l 1
 482 -204 460 -208 435 -208 c 0
 366 -208 332 -173 332 -117 c 0
 332 -72 363 -25 407 0 c 1
 472 0 l 1
 441 -18 400 -61 400 -111 c 0
 400 -138 417 -155 446 -155 c 0xbc
 464 -155 483 -151 502 -143 c 1
EndSplineSet
EndChar

StartChar: Wcircumflex
Encoding: 372 372 308
Width: 944
GlyphClass: 2
Flags: MW
HStem: 0 82<680 680 680 738 626 680> 584 104<473 473> 668 20G<4 102 102 102 428 518 518 518 843 940 940 940> 747 127<309 523 309 523 423 632 423 581>
VStem: 4 936<688 688>
LayerCount: 2
Fore
SplineSet
940 688 m 1xb8
 738 0 l 1
 626 0 l 1
 507 437 l 2
 500 464 488 513 473 584 c 1
 451 489 l 2xd8
 446 464 401 301 318 0 c 1
 207 0 l 1
 4 688 l 1
 102 688 l 1
 225 251 l 2
 240 196 253 140 266 82 c 1
 273 118 282 157 292 199 c 0
 303 242 348 405 428 688 c 1
 518 688 l 1
 637 260 l 2
 656 190 670 131 680 82 c 1
 685 99 l 1
 706 190 l 2
 711 214 757 380 843 688 c 1
 940 688 l 1xb8
523 874 m 1
 632 757 l 1
 632 747 l 1
 581 747 l 1
 474 815 l 1
 473 815 l 1
 360 747 l 1
 309 747 l 1
 309 757 l 1
 423 874 l 1
 523 874 l 1
EndSplineSet
EndChar

StartChar: wcircumflex
Encoding: 373 373 309
Width: 722
GlyphClass: 2
Flags: MW
HStem: 0 73<196 196 196 248 146 196> 456 72<361 361> 508 20G<-1 85 85 85 314 409 409 409 639 725 725 725> 586 142<197 411 197 411 312 521 312 469>
VStem: -1 726<528 528>
LayerCount: 2
Fore
SplineSet
725 528 m 1xb8
 573 0 l 1
 471 0 l 1
 379 374 l 1
 361 456 l 1
 358 441 354 420 347 393 c 0xd8
 341 366 308 235 248 0 c 1
 146 0 l 1
 -1 528 l 1
 85 528 l 1
 175 169 l 1
 196 73 l 1
 204 109 l 1
 314 528 l 1
 409 528 l 1
 501 166 l 1
 523 73 l 1
 539 141 l 1
 639 528 l 1
 725 528 l 1xb8
411 728 m 1
 521 596 l 1
 521 586 l 1
 469 586 l 1
 362 669 l 1
 361 669 l 1
 248 586 l 1
 197 586 l 1
 197 596 l 1
 312 728 l 1
 411 728 l 1
EndSplineSet
EndChar

StartChar: Ycircumflex
Encoding: 374 374 310
Width: 667
GlyphClass: 2
Flags: MW
HStem: 0 21G<287 379 287 287> 668 20G<22 125 125 125 542 645 645 645> 747 127<169 383 169 383 284 493 284 441>
VStem: 287 92<0 285 0 285>
LayerCount: 2
Fore
SplineSet
645 688 m 1
 379 285 l 1
 379 0 l 1
 287 0 l 1
 287 285 l 1
 22 688 l 1
 125 688 l 1
 334 360 l 1
 542 688 l 1
 645 688 l 1
383 874 m 1
 493 757 l 1
 493 747 l 1
 441 747 l 1
 334 815 l 1
 333 815 l 1
 220 747 l 1
 169 747 l 1
 169 757 l 1
 284 874 l 1
 383 874 l 1
EndSplineSet
EndChar

StartChar: ycircumflex
Encoding: 375 375 311
Width: 500
GlyphClass: 2
Flags: MW
HStem: -208 69<81 101.5 66.5 122.5> 508 20G<2 96 96 96 405 498 498 498> 586 142<89 303 89 303 203 412 203 361>
VStem: 2 496<528 528>
LayerCount: 2
Fore
SplineSet
93 -208 m 0
 69 -208 49 -206 33 -202 c 1
 33 -136 l 1
 45 -138 59 -139 74 -139 c 0
 129 -139 172 -99 204 -19 c 2
 212 2 l 1
 2 528 l 1
 96 528 l 1
 208 236 l 1
 213 219 l 2
 216 213 223 192 235 156 c 0
 248 120 254 100 255 96 c 2
 290 192 l 1
 405 528 l 1
 498 528 l 1
 295 0 l 2
 273 -56 253 -98 234 -125 c 0
 197 -181 152 -208 93 -208 c 0
303 728 m 1
 412 596 l 1
 412 586 l 1
 361 586 l 1
 254 669 l 1
 253 669 l 1
 140 586 l 1
 89 586 l 1
 89 596 l 1
 203 728 l 1
 303 728 l 1
EndSplineSet
EndChar

StartChar: Ydieresis
Encoding: 376 376 312
Width: 667
GlyphClass: 2
Flags: MW
HStem: 0 21G<287 379 287 287> 668 20G<22 125 125 125 542 645 645 645> 747 90<198 278 198 278 390 470>
VStem: 198 80<747 837> 287 92<0 285 0 285> 390 80<747 837>
LayerCount: 2
Fore
SplineSet
645 688 m 1
 379 285 l 1
 379 0 l 1
 287 0 l 1
 287 285 l 1
 22 688 l 1
 125 688 l 1
 334 360 l 1
 542 688 l 1
 645 688 l 1
470 747 m 1
 390 747 l 1
 390 837 l 1
 470 837 l 1
 470 747 l 1
278 747 m 1
 198 747 l 1
 198 837 l 1
 278 837 l 1
 278 747 l 1
EndSplineSet
EndChar

StartChar: Zacute
Encoding: 377 377 313
Width: 611
GlyphClass: 2
Flags: MW
HStem: 0 76<138 580 138 580> 612 76<67 451 67 557> 853 14<344 445>
VStem: 32 548<0 70 70 70>
LayerCount: 2
Fore
SplineSet
580 76 m 1
 580 0 l 1
 32 0 l 1
 32 70 l 1
 451 612 l 1
 67 612 l 1
 67 688 l 1
 557 688 l 1
 557 620 l 1
 138 76 l 1
 580 76 l 1
294 747 m 1
 238 747 l 1
 238 757 l 1
 344 867 l 1
 445 867 l 1
 445 853 l 1
 294 747 l 1
EndSplineSet
EndChar

StartChar: zacute
Encoding: 378 378 314
Width: 500
GlyphClass: 2
Flags: MW
HStem: 0 68<144 450 144 450> 460 68<57 336 57 440> 722 14<292 393>
VStem: 41 409<0 67 67 67>
LayerCount: 2
Fore
SplineSet
450 0 m 1
 41 0 l 1
 41 67 l 1
 336 460 l 1
 57 460 l 1
 57 528 l 1
 440 528 l 1
 440 461 l 1
 144 68 l 1
 450 68 l 1
 450 0 l 1
232 586 m 1
 186 586 l 1
 186 596 l 1
 292 736 l 1
 393 736 l 1
 393 722 l 1
 232 586 l 1
EndSplineSet
EndChar

StartChar: Zdotaccent
Encoding: 379 379 315
Width: 611
GlyphClass: 2
Flags: MW
HStem: 0 76<138 580 138 580> 612 76<67 451 67 557> 784 84<262 350 262 350>
VStem: 262 88<784 868 784 868>
LayerCount: 2
Fore
SplineSet
580 76 m 1
 580 0 l 1
 32 0 l 1
 32 70 l 1
 451 612 l 1
 67 612 l 1
 67 688 l 1
 557 688 l 1
 557 620 l 1
 138 76 l 1
 580 76 l 1
350 784 m 1
 262 784 l 1
 262 868 l 1
 350 868 l 1
 350 784 l 1
EndSplineSet
EndChar

StartChar: zdotaccent
Encoding: 380 380 316
Width: 500
GlyphClass: 2
Flags: MW
HStem: 0 68<144 450 144 450> 460 68<57 336 57 440> 641 84<200 288 200 288>
VStem: 200 88<641 725 641 725>
LayerCount: 2
Fore
SplineSet
450 0 m 1
 41 0 l 1
 41 67 l 1
 336 460 l 1
 57 460 l 1
 57 528 l 1
 440 528 l 1
 440 461 l 1
 144 68 l 1
 450 68 l 1
 450 0 l 1
288 641 m 1
 200 641 l 1
 200 725 l 1
 288 725 l 1
 288 641 l 1
EndSplineSet
EndChar

StartChar: Zcaron
Encoding: 381 381 317
Width: 611
GlyphClass: 2
Flags: MW
HStem: 0 76<138 580 138 580> 612 76<67 451 67 557> 747 127<152 366 152 267>
VStem: 32 548<0 70 70 70>
LayerCount: 2
Fore
SplineSet
580 76 m 1
 580 0 l 1
 32 0 l 1
 32 70 l 1
 451 612 l 1
 67 612 l 1
 67 688 l 1
 557 688 l 1
 557 620 l 1
 138 76 l 1
 580 76 l 1
476 864 m 1
 366 747 l 1
 267 747 l 1
 152 864 l 1
 152 874 l 1
 203 874 l 1
 316 806 l 1
 317 806 l 1
 424 874 l 1
 476 874 l 1
 476 864 l 1
EndSplineSet
EndChar

